<?xml version="1.0" encoding="utf-8"?>
<!-- Generator: Adobe Illustrator 21.0.2, SVG Export Plug-In . SVG Version: 6.00 Build 0)  -->
<svg version="1.1" id="Слой_1" xmlns="http://www.w3.org/2000/svg" xmlns:xlink="http://www.w3.org/1999/xlink" x="0px" y="0px"
	 viewBox="0 0 2000 2000" style="enable-background:new 0 0 2000 2000;" xml:space="preserve">
<style type="text/css">
	.st0{fill:#FFDF57;}
	.st1{fill:#201000;}
	.st2{fill:#00DA9F;}
	.st3{fill:#FF98E1;}
	.st4{fill:#F76567;}
	.st5{fill:#FFFFFF;}
</style>
<g id="Objects">
	<path class="st0" d="M1511.6,897.9c-20.3,0-36.8-16.5-36.8-36.8c0-20.3,16.5-36.8,36.8-36.8c20.3,0,36.8,16.5,36.8,36.8
		C1548.4,881.4,1531.9,897.9,1511.6,897.9z M1511.6,833.9c-15,0-27.2,12.2-27.2,27.2s12.2,27.2,27.2,27.2c15,0,27.2-12.2,27.2-27.2
		S1526.6,833.9,1511.6,833.9z"/>
	<ellipse transform="matrix(0.7799 -0.6259 0.6259 0.7799 -21.3808 1190.158)" class="st1" cx="1681.5" cy="625.5" rx="6" ry="6"/>
	<path class="st2" d="M1419.9,731.5c-1.9,0-3.7-1.2-4.5-3c-1-2.5,0.2-5.3,2.7-6.2l214.5-84.3c2.4-1,5.3,0.2,6.2,2.7
		c1,2.5-0.2,5.3-2.7,6.2l-214.5,84.3C1421,731.4,1420.5,731.5,1419.9,731.5z"/>
	<path class="st2" d="M1440.1,782.9c-1.9,0-3.7-1.2-4.5-3c-1-2.5,0.2-5.3,2.7-6.2l214.5-84.3c2.4-1,5.3,0.2,6.2,2.7
		c1,2.5-0.2,5.3-2.7,6.2l-214.5,84.3C1441.2,782.7,1440.6,782.9,1440.1,782.9z"/>
	<circle class="st3" cx="1814.1" cy="845.1" r="43.2"/>
	<path class="st3" d="M1640.5,1077.2c-8.7,0-17.3-1.3-25.4-4.5c-18.8-7.4-29.5-30.1-26.6-56.4c3.1-28,23.5-63.2,70.5-70.4
		c36.3-5.5,51.6,8.3,58,20.9c11.7,22.9,1.5,54.8-11,67.6c-6.3,6.5-13.6,8.5-19.9,5.4c-6.3-3.1-10.5-8-12.5-14.5
		c-1.3-4.1-1.5-8.6-1.1-13.2c-13.7,15.9-31.2,31.5-42.5,31.5c-0.1,0-0.2,0-0.4,0c-2.8-0.1-9.4-1.3-11.1-11
		c-3.7-21.1,12.6-44.5,29.5-52.4c11.6-5.4,22.6-3.4,30.2,5.6c0.5,0.6,0.8,1.3,1,2c2.4-5.5,4.6-9.3,4.8-9.7c1.2-2.1,3.7-2.9,5.9-2
		c2.2,0.9,3.4,3.2,2.9,5.6c-0.5,2.2-2.2,5.6-4.6,9.5c-4,9.2-8.2,22.4-5.4,31.4c1.2,4,3.7,6.8,7.6,8.7c3.1,1.5,6.5-1.1,8.9-3.5
		c10-10.2,18.8-38,9.3-56.5c-7.2-14-23.8-19.5-48-15.8c-41.6,6.4-59.6,37.3-62.4,61.9c-2.5,21.9,5.8,40.6,20.5,46.4
		c37.1,14.6,89.4-17.3,90-17.6c2.3-1.4,5.2-0.7,6.6,1.6c1.4,2.3,0.7,5.2-1.6,6.6C1711.7,1055.5,1676,1077.2,1640.5,1077.2z
		 M1660.3,986.8c-2.6,0-5.4,0.7-8.4,2.1c-13.4,6.3-26.9,26-24.1,42.1c0.5,3,1.4,3.1,2,3.1c9.3,0.1,32.6-23.4,45.2-40.4
		c-1.6,0.2-3.2-0.4-4.3-1.7C1667.9,988.5,1664.4,986.8,1660.3,986.8z"/>
	<path class="st1" d="M1731.7,819.4h-175.3c-2.7,0-4.8-2.1-4.8-4.8c0-2.7,2.1-4.8,4.8-4.8h175.3c2.7,0,4.8,2.1,4.8,4.8
		C1736.5,817.3,1734.3,819.4,1731.7,819.4z"/>
	<path class="st1" d="M1731.7,869.1h-91.2c-2.7,0-4.8-2.1-4.8-4.8s2.1-4.8,4.8-4.8h91.2c2.7,0,4.8,2.1,4.8,4.8
		S1734.3,869.1,1731.7,869.1z"/>
	<path class="st1" d="M1731.7,918.7h-91.2c-2.7,0-4.8-2.1-4.8-4.8s2.1-4.8,4.8-4.8h91.2c2.7,0,4.8,2.1,4.8,4.8
		S1734.3,918.7,1731.7,918.7z"/>
	<path class="st1" d="M1694.2,681.4c-0.4,7.1-0.9,14.3-1.3,21.4c-0.4,6.2,9.1,7.4,9.5,1.2c0.4-7.1,0.9-14.3,1.3-21.4
		C1704.1,676.5,1694.5,675.2,1694.2,681.4z"/>
	<path class="st4" d="M255.4,953.7c-6.4-7.5-12.8-14.9-19.2-22.4c-4-4.7-10.8,2.1-6.8,6.8c6.4,7.5,12.8,14.9,19.2,22.4
		C252.6,965.2,259.4,958.4,255.4,953.7z"/>
	<path class="st4" d="M420.5,1274.7c-19.4,30.8-38.8,61.7-58.1,92.5c-3.3,5.2,5,10.1,8.3,4.8c19.4-30.8,38.8-61.7,58.1-92.5
		C432.1,1274.3,423.8,1269.5,420.5,1274.7z"/>
	<path class="st4" d="M1590.2,1392.3c-4.3-5.3-8.5-10.7-12.8-16c-1.6-2-5.1-1.7-6.8,0c-2,2-1.6,4.8,0,6.8c4.3,5.3,8.5,10.7,12.8,16
		c1.6,2,5.1,1.7,6.8,0C1592.3,1397.1,1591.8,1394.3,1590.2,1392.3z"/>
</g>
<g id="Page">
	<path class="st0" d="M476,558.6V1298c88.8-170.5,101.7-157.8,155.3-179.3c44.4-17.8,97.8-21.9,145-12.1c10.9-7.2,22-11.3,35.8-8.7
		c19.3,3.6,34.6,12.5,55.1,12c15.2-0.3,30.7-6.5,45.9-4.5c8.9,1.2,16.6,5.2,23.7,10.3c30.4-10,65.2-17,95.6-5.8
		c5.5,2,10.5,4.7,15.1,7.8c1.5-1.1,3.6-1.5,5.4,0c14.7,11.8,28.8,24.2,43.5,36c9.4-47.7,10.2-103.8,42.8-140.2
		c17.3-19.3,45.8-23.3,70.2-26.2c6.3-0.8,12.6-1.3,18.9-1.8v-427H476z"/>
	<path class="st0" d="M353.6,1450.1h-120c-2.7,0-4.8-2.1-4.8-4.8s2.1-4.8,4.8-4.8h120c2.7,0,4.8,2.1,4.8,4.8
		S356.3,1450.1,353.6,1450.1z"/>
	<path class="st0" d="M312.8,1597.3h-79.2c-2.7,0-4.8-2.1-4.8-4.8s2.1-4.8,4.8-4.8h79.2c2.7,0,4.8,2.1,4.8,4.8
		S315.4,1597.3,312.8,1597.3z"/>
	<path class="st0" d="M1586.8,1450.1h-291.3c-2.7,0-4.8-2.1-4.8-4.8s2.1-4.8,4.8-4.8h291.3c2.7,0,4.8,2.1,4.8,4.8
		S1589.5,1450.1,1586.8,1450.1z"/>
	<path class="st0" d="M1625.3,1309.2h-329.7c-2.7,0-4.8-2.1-4.8-4.8s2.1-4.8,4.8-4.8h329.7c2.7,0,4.8,2.1,4.8,4.8
		S1627.9,1309.2,1625.3,1309.2z"/>
	<path class="st0" d="M1625.3,1597.3h-344.1c-2.7,0-4.8-2.1-4.8-4.8s2.1-4.8,4.8-4.8h344.1c2.7,0,4.8,2.1,4.8,4.8
		S1627.9,1597.3,1625.3,1597.3z"/>
	<path class="st0" d="M421.5,633.8h-188c-2.7,0-4.8-2.1-4.8-4.8c0-2.7,2.1-4.8,4.8-4.8h188c2.7,0,4.8,2.2,4.8,4.8
		C426.3,631.6,424.2,633.8,421.5,633.8z"/>
	<path class="st0" d="M421.5,781h-188c-2.7,0-4.8-2.1-4.8-4.8c0-2.7,2.1-4.8,4.8-4.8h188c2.7,0,4.8,2.1,4.8,4.8
		C426.3,778.9,424.2,781,421.5,781z"/>
	<path class="st0" d="M421.5,931.5h-92.7c-2.7,0-4.8-2.1-4.8-4.8s2.1-4.8,4.8-4.8h92.7c2.7,0,4.8,2.1,4.8,4.8
		S424.2,931.5,421.5,931.5z"/>
	<rect x="229" y="360.1" class="st3" width="408.2" height="123.2"/>
	<rect x="648.9" y="360.1" class="st3" width="989.1" height="123.2"/>
</g>
<g id="Man">
	<g id="Head">
		<path class="st1" d="M959.5,708.9c-17.2-12.7-44.7-8.1-64-4.2c-28.2,5.7-55.8,16.2-82,28c-18.7,8.5-88.8,42-47.4,70.2
			c16.2,11.1,43.5,6.7,61.3,4.1c30.7-4.4,59.4-15.5,85.9-31.4C937.7,765.3,992.9,733.5,959.5,708.9z"/>
		<path class="st5" d="M994.6,970.3c-6.5-47.2-44-118.8-60.6-190.8c-29.2-79.5-142.6-52.1-181-1.6c-30.4,40-24.4,87.1-15.6,127.1
			c20.7,93.8,79.2,112.3,79.2,112.3l-7.3,78.5c29.1,21,68.1,59.6,101.3,41.4l4-98.4c0,0,53.3,2.3,73.9-25.2
			C995.4,1004.3,996.7,986,994.6,970.3z"/>
		<path class="st1" d="M892.1,1146.7c-24.6,0-49.8-19.6-71-36c-5.1-4-10-7.7-14.6-11.1c-1.4-1-2.1-2.6-2-4.3l6.9-74.9
			c-13.6-5.8-60.5-31.5-78.7-114.5c-9.2-41.9-14.5-90.3,16.4-131c25.9-34.1,80.7-55.7,124.7-49.1c22,3.3,51,15,64.6,52
			c0.1,0.2,0.1,0.4,0.2,0.6c8.1,35,21.4,70.6,33.2,102.1c12.4,33.2,24.1,64.5,27.5,89.1l0,0c2.1,15.3,1.4,35.6-7,46.8
			c-18.3,24.4-59,27-73.1,27.1l-3.8,93.8c-0.1,1.7-1,3.2-2.5,4C906.1,1145.1,899.1,1146.7,892.1,1146.7z M814.3,1093.4
			c4.1,3,8.3,6.2,12.7,9.7c25.5,19.8,54.3,42.1,79,31l3.9-95.6c0.1-1.3,0.6-2.5,1.5-3.3c0.9-0.9,2.3-1.4,3.5-1.3
			c0.5,0,51.1,1.8,69.8-23.3c5.4-7.2,7.5-23.2,5.2-39.8v0c-3.2-23.5-14.8-54.4-27-87c-11.8-31.7-25.3-67.6-33.5-103
			c-12-32.4-37.6-42.6-56.9-45.5c-40.1-6-92,14.4-115.6,45.4c-28.5,37.5-23.9,81.3-14.7,123.1c19.7,89.7,75.4,108.6,75.9,108.8
			c2.1,0.7,3.5,2.8,3.3,5L814.3,1093.4z"/>
		<path class="st1" d="M929,1041.9l3.9-4.3c0,0,35.1,3.4,55.6-24c6.9-9.3,8.3-27.5,6.1-43.3c-2.4-17.4-13.3-49.1-21.5-72
			c-53.1-0.1-81.1,87.3-116,62C838,946.6,796.2,841.9,809,797c9.1-31.9,78.7-32,112.2-40.3C880.2,706.4,787,733,752.9,777.8
			c-30.4,40-24.4,87.1-15.6,127.1c17.7,80.4,70.1,113.9,82.8,119.4C843.2,1035.9,894.8,1041,929,1041.9z"/>
		<path class="st5" d="M905.3,803.6c35.2,44.9,60,60.8,39.7,90.3"/>
		<path class="st1" d="M944.9,898.7c-0.9,0-1.9-0.3-2.7-0.9c-2.2-1.5-2.7-4.5-1.2-6.7c13.5-19.5,5.5-30.8-19.6-60.4
			c-6-7-12.7-15-19.8-24.1c-1.6-2.1-1.3-5.1,0.8-6.7c2.1-1.7,5.1-1.3,6.7,0.8c7,9,13.7,16.9,19.6,23.8
			c24.1,28.4,38.6,45.6,20.2,72.1C947.9,898,946.4,898.7,944.9,898.7z"/>
		<path class="st5" d="M783.2,837.7c-57.9-24.7-93.3,7.2-94.4,36.6c-1.8,48.6,41.5,71.8,109.7,52.5"/>
		<path class="st1" d="M754.2,938.4c-20.1,0-37-4.9-49.3-14.6c-14.4-11.4-21.7-28.5-20.9-49.7c0.6-15.9,9.7-31,24.4-40.3
			c11.7-7.4,37.2-17.3,76.6-0.5c2.4,1,3.6,3.9,2.5,6.3c-1,2.4-3.9,3.6-6.3,2.5c-26.3-11.2-50.3-11.2-67.7-0.2
			c-11.8,7.5-19.5,20-20,32.5c-0.7,17.9,5.3,32.4,17.2,41.8c18.3,14.4,49,16.5,86.3,5.9c2.6-0.7,5.2,0.8,5.9,3.3
			c0.7,2.6-0.8,5.2-3.3,5.9C783.4,936.1,768,938.4,754.2,938.4z"/>
		<path class="st1" d="M727,866.6c16-5.6,34.1-0.8,45.1,12.1c4,4.7-2.7,11.6-6.7,6.9c-9-10.5-22.8-14.4-35.9-9.7
			C723.8,877.9,721.2,868.6,727,866.6z"/>
		<ellipse transform="matrix(0.9623 -0.272 0.272 0.9623 -194.342 264.5533)" class="st1" cx="857" cy="833.2" rx="6" ry="6"/>
		<ellipse transform="matrix(0.9623 -0.272 0.272 0.9623 -185.037 284.1114)" class="st1" cx="932.2" cy="809.4" rx="6" ry="6"/>
		<path class="st1" d="M842.3,803.8c2.4-1.9,4.8-3.8,7.1-5.7c2-1.6,4.8-2.1,6.8-0.1c1.7,1.6,2.2,5.2,0.1,6.8l-7.1,5.7
			c-2,1.6-4.8,2.1-6.8,0.1C840.8,809,840.3,805.4,842.3,803.8z"/>
		<path class="st5" d="M944.6,928.7c-15.7-2.9-30.4,41.6-11.2,43.2S962.2,931.9,944.6,928.7z"/>
		<path class="st1" d="M883,699.1c-17-40.2-75.5,27.5-90,46.7c-0.9,0.6-1.5,1.5-1.8,2.5c-2.9,4.1,2.2,8.1,6.1,6.5
			c23.2,2.2,46.6-2.9,66-16.1C875.9,730.2,890,715.6,883,699.1z"/>
		<path class="st1" d="M929.8,777.9c-3.2-0.3-6.4-0.7-9.6-1c-2.6-0.3-4.8,2.4-4.8,4.8c0,2.8,2.2,4.5,4.8,4.8c3.2,0.3,6.4,0.7,9.6,1
			c2.6,0.3,4.8-2.4,4.8-4.8C934.6,779.9,932.4,778.2,929.8,777.9z"/>
		<path class="st1" d="M1051.3,881.7c-11.2,8.8-22.4,17.6-33.6,26.4c-4.9,3.8,2,10.6,6.8,6.8c11.2-8.8,22.4-17.6,33.6-26.4
			C1062.9,884.7,1056.1,877.9,1051.3,881.7z"/>
		<path class="st1" d="M1048.7,947.7c-7.2-1.6-14.4-3.2-21.6-4.8c-6-1.3-8.6,7.9-2.6,9.3c7.2,1.6,14.4,3.2,21.6,4.8
			C1052.2,958.3,1054.8,949,1048.7,947.7z"/>
	</g>
	<g id="Hand">
		<path class="st1" d="M1264.5,1105c-19.8,37.4-27.3,87.3-29.7,192.9c-0.2,10.1-0.4,20.5-0.6,31.1c-1.9,96.8-4.3,217.3-29.7,254.4
			c-12.5,18.3-34.8,29.1-61.2,29.7c-34.8,0.7-68.1-15.8-89.4-44.2c-1.6-2.1-4.6-2.6-6.7-1c-2.1,1.6-2.6,4.6-1,6.7
			c22.7,30.2,58,48.1,94.9,48.1c0.8,0,1.7,0,2.5,0c29.5-0.6,54.7-13,68.9-33.8c27.1-39.5,29.4-156.5,31.4-259.7
			c0.2-10.6,0.4-21,0.6-31c2.4-107.4,10.2-155.9,30.6-192.2c0.7-1.2,0.8-2.5,0.4-3.7C1271.8,1103.3,1268.2,1104.3,1264.5,1105z"/>
		<path class="st1" d="M1289.6,1100.4c-1.3,0-2.6-0.5-3.5-1.5c-1.8-1.9-1.7-5,0.2-6.8c4.8-4.5,6.1-9,3.5-12.8
			c-2.1-3.1-5.9-4.3-7.3-3.5c-2.2,1.1-4.8,0.4-6.1-1.6c-1.3-2-1-4.7,0.9-6.3c4.5-3.9,6.4-11.3,4.2-16.8c-1.1-2.9-3.8-6.2-10.1-6.1
			c-1.7,0.2-3.4-0.8-4.3-2.4c-0.9-1.5-0.9-3.4,0-4.9c2.2-3.6,7.7-15.4,4.7-21.3c-0.4-0.9-1.8-3.5-8.4-4.2c-1.4-0.1-2.7-0.9-3.5-2.1
			s-1-2.6-0.7-4c1.1-3.9,2.9-15.1-1.8-20.1c-2.6-2.8-7.2-3.6-13.9-2.3c-28.4,5.4-37.1,12.8-37.2,12.8c-2,1.7-5,1.6-6.8-0.4
			c-1.8-1.9-1.7-4.9,0.2-6.7c1-0.9,10.7-9.3,41.9-15.2c10.2-1.9,17.8-0.1,22.8,5.3c6.4,7,6,17.7,5,24.1c6.2,1.8,9.3,5.4,10.8,8.4
			c3.9,7.7,0.9,17.8-1.9,24.2c5.5,1.7,9.8,5.6,11.9,11.2c2.5,6.3,2,13.6-1,19.7c3.2,1.3,6.1,3.6,8.2,6.6c4.2,6.1,5.2,15.9-4.9,25.3
			C1291.9,1100,1290.8,1100.4,1289.6,1100.4z"/>
		<g id="Speaker">
			
				<rect x="1134.4" y="842.2" transform="matrix(0.9789 -0.2045 0.2045 0.9789 -158.3216 259.3315)" class="st4" width="82" height="106.6"/>
			<path class="st4" d="M1146.1,960.9c-0.9,0-1.8-0.3-2.6-0.8c-1.1-0.7-1.8-1.8-2.1-3l-21.8-104.4c-0.5-2.6,1.1-5.1,3.7-5.7
				l80.2-16.8c1.2-0.3,2.5,0,3.6,0.7c1.1,0.7,1.8,1.8,2.1,3l21.8,104.4c0.5,2.6-1.1,5.1-3.7,5.7l-80.2,16.8
				C1146.8,960.9,1146.5,960.9,1146.1,960.9z M1130,855.4l19.8,95l70.8-14.8l-19.8-95L1130,855.4z"/>
			<polygon class="st4" points="1226.4,939.3 1526,974.7 1453.6,628 1204.5,835 			"/>
			<path class="st4" d="M1526,979.5c-0.2,0-0.4,0-0.6,0l-299.7-35.4c-2-0.2-3.7-1.8-4.1-3.8l-21.8-104.4c-0.4-1.7,0.3-3.5,1.6-4.7
				l249-207c1.3-1.1,3.1-1.4,4.7-0.8c1.6,0.6,2.8,1.9,3.1,3.6l72.4,346.7c0.3,1.5-0.1,3.1-1.2,4.2
				C1528.6,978.9,1527.4,979.5,1526,979.5z M1230.4,935l289.6,34.2l-69.5-332.4l-240.7,200L1230.4,935z"/>
			<path class="st4" d="M1241.6,1183.7L1241.6,1183.7c-11.3,2.3-22.3-5.1-24.5-16.4l-43-217.1l40.8-8.2l43,217.3
				C1260.1,1170.5,1252.8,1181.4,1241.6,1183.7z"/>
			<path class="st4" d="M1262.6,1158.3l-9.7-49.2l-17.8-89.9l-3.6-18.2l-0.5-2.7l-11.3-57.2c-0.3-1.3-1-2.3-2-3.1
				c-1.1-0.7-2.4-1-3.6-0.7l-40.8,8.2c-2.6,0.5-4.3,3-3.8,5.6l8.7,43.9l5.4,27.2l28.9,146.1c1.3,6.7,5.2,12.5,10.9,16.3
				c4.3,2.8,9.1,4.3,14.2,4.3c1.7,0,3.4-0.2,5.1-0.5C1256.3,1185.6,1265.3,1172.1,1262.6,1158.3z M1240.6,1179
				c-4.2,0.8-8.5,0-12-2.4c-3.6-2.4-6-6-6.8-10.2l-28.4-143.4l-5.4-27.3l-8.3-41.7l31.4-6.3l10.1,51.2l0.9,4.5l3.7,18.6l18.2,91.9
				l9.2,46.4C1254.9,1168.8,1249.3,1177.2,1240.6,1179z"/>
			<path class="st4" d="M1126.7,945.1c-2.3,0-4.3-1.6-4.7-3.9l-12-62.4c-0.5-2.6,1.2-5.1,3.8-5.6c2.6-0.5,5.1,1.2,5.6,3.8l12,62.4
				c0.5,2.6-1.2,5.1-3.8,5.6C1127.3,945.1,1127,945.1,1126.7,945.1z"/>
			<path class="st5" d="M1165.1,964.1c-2.2,0-4.2-1.6-4.7-3.8c-0.5-2.6,1.1-5.1,3.7-5.7l57.7-12.1l-20.8-99.7
				c-0.5-2.6,1.1-5.1,3.7-5.7c2.6-0.6,5.1,1.1,5.7,3.7l21.8,104.4c0.5,2.6-1.1,5.1-3.7,5.7l-62.4,13
				C1165.7,964.1,1165.4,964.1,1165.1,964.1z"/>
		</g>
		<path class="st5" d="M1252.9,1109.1c-2.8,2-5.7,3.6-8.9,4.7c-3.5,1.2-7.1,1.6-11,1.3c-14.2-1.4-16.1-10.7-16.2-23.9
			c-1.7-1.2-3.1-2.9-4.2-5.2c-2.9-6.2-2.2-13.9,0.3-20.6c-3.4-1.6-6.3-4.2-8.2-7.9c-4.4-8.8-1.4-18.8,5.4-25.3
			c-0.9-12.7,3.3-22.2,12.1-28.8c2.5-1.9,5.5-3.6,8.8-5l0.5,2.7l3.6,18.2L1252.9,1109.1z"/>
		<path class="st1" d="M1293.7,1093.2c-1.4-2.3-4.3-3-6.6-1.7c-25,14.9-61.5,24.7-66.2,17.7c-4.2-6.3,1.8-13.8,2.1-14.2
			c0.6-0.7,1-1.6,1.1-2.5c-3.1-0.6-6.2-1.5-9.2-2.6c0,0,0,0,0,0c-2.4,3.4-9,14.1-1.9,24.6c3.1,4.6,9,6.5,16.2,6.5
			c20.1,0,50.9-14.1,62.9-21.2C1294.3,1098.4,1295.1,1095.4,1293.7,1093.2z"/>
		<path class="st1" d="M1223.2,1097.1c-6.8,0-12.3-1.8-15.4-6.4c-8.3-12.4,2.3-25.1,2.7-25.7c1.7-2,4.7-2.3,6.8-0.6
			c2,1.7,2.3,4.7,0.6,6.8c-0.2,0.3-6.3,7.8-2.1,14.1c4.5,6.7,35.9-2.3,62.1-18c2.3-1.4,5.2-0.6,6.6,1.7c1.4,2.3,0.6,5.2-1.7,6.6
			C1270.4,1083.1,1242,1097.1,1223.2,1097.1z"/>
		<path class="st1" d="M1213.7,1067.3c-6.1,0-11.2-1.7-14.1-6c-8.3-12.4,2.3-25.1,2.7-25.7c1.7-2,4.7-2.3,6.8-0.6
			c2,1.7,2.3,4.7,0.6,6.8c-0.2,0.3-6.3,7.8-2.1,14.1c4.2,6.3,32.8-3,61.2-19.9c2.3-1.4,5.2-0.6,6.6,1.7c1.4,2.3,0.6,5.2-1.7,6.6
			C1265.8,1049,1233.8,1067.3,1213.7,1067.3z"/>
		<path class="st1" d="M1205.9,1037.6c-6,0-10.9-1.8-13.8-6.1c-8.3-12.4,2.2-25.2,2.6-25.7c1.7-2,4.7-2.3,6.8-0.6
			c2,1.7,2.3,4.7,0.6,6.8c-0.2,0.3-6.3,7.8-2,14.1c3.7,5.5,26.9-0.6,59.3-20.1c2.3-1.4,5.2-0.6,6.6,1.6c1.4,2.3,0.6,5.2-1.6,6.6
			C1247.9,1024.1,1222.5,1037.6,1205.9,1037.6z"/>
		<path class="st5" d="M1241.1,1013.5c-0.9,2.4-3,4.2-6,5.6c-2.6,1.2-5.7,2.1-9.3,2.7c-10,1.8-22.8,1.6-32.4,1
			c-4-0.2-7.5-0.5-9.9-0.8l-5.4-27.2c3.4,0.2,6.7,0.5,9.9,0.7c13.1,0.9,24.4,1.8,33.3,3.1c3.9,0.6,7.3,1.3,10.2,2.2
			C1239.7,1003.4,1243.4,1007.2,1241.1,1013.5z"/>
		<path class="st1" d="M1082.7,1488.5c-2.6,0-4.7-2-4.8-4.6c-5.1-121.8-9.4-412.2,60.1-479.5c11-10.6,23.4-15.5,37.1-14.5l11.1,0.8
			c32.7,2.3,52.5,3.7,58.6,13.1c1.5,2.3,2.8,6.1,0.8,11.3c-5.6,15.2-41.7,13.8-60,12c1.3,12.1-0.3,37.9-30.4,63.5
			c-2,1.7-5,1.5-6.8-0.5c-1.7-2-1.5-5.1,0.5-6.8c35.3-30,26.5-59,26.1-60.2c-0.5-1.6-0.2-3.3,0.9-4.5c1.1-1.3,2.7-1.9,4.3-1.7
			c25.2,3.1,53.8,1.8,56.3-5.1c0.7-1.9,0.3-2.5,0.1-2.8c-3.5-5.4-26.7-7-51.2-8.8l-11.1-0.8c-11-0.8-20.7,3.1-29.7,11.8
			c-68.5,66.4-61.1,378.2-57.2,472.2c0.1,2.6-1.9,4.9-4.6,5C1082.8,1488.5,1082.7,1488.5,1082.7,1488.5z"/>
		<path class="st1" d="M1179.8,1248.1c-31.3,0-67.9-6.8-96.2-28.8c-2.1-1.6-2.5-4.6-0.8-6.7c1.6-2.1,4.6-2.5,6.7-0.8
			c51.7,40.2,134,25.4,149.2,16.9c2.3-1.3,5.2-0.5,6.5,1.9c1.3,2.3,0.5,5.2-1.9,6.5C1234.4,1242,1209.4,1248.1,1179.8,1248.1z"/>
		<path class="st1" d="M1175.8,1302.1c-31.3,0-67.9-6.8-96.2-28.8c-2.1-1.6-2.5-4.6-0.8-6.7c1.6-2.1,4.6-2.5,6.7-0.8
			c51.7,40.2,134,25.4,149.2,16.9c2.3-1.3,5.2-0.5,6.5,1.9c1.3,2.3,0.5,5.2-1.9,6.5C1230.4,1296,1205.4,1302.1,1175.8,1302.1z"/>
	</g>
	<g id="Pocket">
		<polyline class="st5" points="698.5,1231 726.5,1179.6 752.9,1231 		"/>
		<path class="st1" d="M753,1235.8c-1.7,0-3.4-1-4.3-2.6l-22.3-43.4l-23.7,43.5c-1.3,2.3-4.2,3.2-6.5,1.9c-2.3-1.3-3.2-4.2-1.9-6.5
			l28-51.4c0.8-1.6,2.3-2.7,4.3-2.5c1.8,0,3.4,1,4.2,2.6l26.4,51.4c1.2,2.4,0.3,5.3-2.1,6.5C754.4,1235.6,753.7,1235.8,753,1235.8z"
			/>
		<polygon class="st0" points="757.7,1229.2 757.7,1283.8 693.7,1286.5 693.7,1229.2 		"/>
		<polygon class="st1" points="738.2,1202.6 726.5,1179.6 714.7,1202.6 		"/>
		<path class="st1" d="M801.1,1273.7c-1-0.9-2.3-1.4-3.5-1.3l-39.8,1.7l-64,2.8l-6.6,0.3c-2.6,0.1-4.6,2.2-4.6,4.8v124.8
			c0,2.7,2.1,4.8,4.8,4.8h110.4c2.6,0,4.8-2.1,4.8-4.8v-129.6C802.6,1275.9,802,1274.7,801.1,1273.7z M793,1402.1H692.1v-115.4
			l1.6-0.1l64-2.8l35.2-1.5V1402.1z"/>
	</g>
	<g id="Body">
		<polygon class="st5" points="809.8,1072.3 773.8,1101.1 838.6,1202 881.8,1139.6 		"/>
		<path class="st1" d="M838.6,1206.8C838.5,1206.8,838.5,1206.8,838.6,1206.8c-1.7,0-3.2-0.9-4-2.2l-64.8-100.8
			c-1.3-2.1-0.9-4.8,1-6.3l36-28.8c1.9-1.5,4.5-1.4,6.3,0.2l72,67.2c1.7,1.6,2,4.3,0.7,6.2l-43.2,62.4
			C841.6,1206,840.2,1206.8,838.6,1206.8z M780.1,1102.2l58.6,91.1l36.8-53.1l-66-61.6L780.1,1102.2z"/>
		<line class="st5" x1="624.9" y1="1314.8" x2="629.7" y2="1617.3"/>
		<path class="st1" d="M629.7,1622.1c-2.6,0-4.8-2.1-4.8-4.7l-4.8-302.5c0-2.6,2.1-4.8,4.7-4.9c0,0,0.1,0,0.1,0
			c2.6,0,4.8,2.1,4.8,4.7l4.8,302.5C634.5,1619.9,632.4,1622.1,629.7,1622.1C629.8,1622.1,629.7,1622.1,629.7,1622.1z"/>
		<line class="st5" x1="881.8" y1="1139.6" x2="884.2" y2="1617.3"/>
		<path class="st1" d="M884.2,1622.1c-2.6,0-4.8-2.1-4.8-4.8l-2.4-477.8c0-2.6,2.1-4.8,4.8-4.8c0,0,0,0,0,0c2.6,0,4.8,2.1,4.8,4.8
			l2.4,477.8C889,1620,886.9,1622.1,884.2,1622.1C884.2,1622.1,884.2,1622.1,884.2,1622.1z"/>
		<path class="st1" d="M1096.9,1144.9c-37.8-47.1-94.2-45.5-141-44.2c-7.3,0.2-14.5,0.4-21.3,0.4c-2.7,0-4.8,2.1-4.8,4.8
			s2.1,4.8,4.8,4.8c6.9,0,14.1-0.2,21.5-0.4c48.7-1.4,102.9-2.9,137.7,46.5C1094.6,1152.8,1095.6,1148.8,1096.9,1144.9z"/>
		<line class="st5" x1="1045" y1="1290.8" x2="1047.4" y2="1617.3"/>
		<path class="st1" d="M1047.4,1622.1c-2.6,0-4.8-2.1-4.8-4.8l-2.4-326.5c0-2.7,2.1-4.8,4.8-4.8c0,0,0,0,0,0c2.6,0,4.8,2.1,4.8,4.8
			l2.4,326.5C1052.3,1619.9,1050.1,1622.1,1047.4,1622.1C1047.5,1622.1,1047.5,1622.1,1047.4,1622.1z"/>
		<polygon class="st5" points="881.8,1139.6 929.8,1192.4 941.8,1110.7 917.8,1081.9 		"/>
		<path class="st1" d="M929.8,1197.2c-1.3,0-2.6-0.6-3.6-1.6l-48-52.8c-1.4-1.6-1.7-4-0.5-5.8l36-57.6c0.8-1.3,2.2-2.1,3.7-2.2
			c1.6-0.1,3,0.5,4,1.7l24,28.8c0.9,1.1,1.3,2.4,1.1,3.8l-12,81.6c-0.3,1.8-1.6,3.4-3.3,3.9C930.7,1197.1,930.3,1197.2,929.8,1197.2
			z M887.8,1139l38.7,42.6l10.2-69.5l-18.4-22.1L887.8,1139z"/>
		<path class="st1" d="M364,1602.1c-0.5,0-1-0.1-1.5-0.2c-2.5-0.8-3.9-3.6-3-6.1c0.7-2.1,71.3-213.1,134.7-336.8l3.3-6.5
			c62.2-121.4,75.1-146.6,276-156.2c2.6-0.2,4.9,1.9,5,4.6c0.1,2.6-1.9,4.9-4.6,5c-195.4,9.3-207.9,33.7-267.9,151l-3.3,6.5
			c-63.1,123.1-133.5,333.3-134.2,335.4C367.9,1600.9,366,1602.1,364,1602.1z"/>
		<path class="st1" d="M536.9,1618.1c-0.5,0-1.1-0.1-1.6-0.3c-2.5-0.9-3.8-3.6-2.9-6.1l86.4-246.5c0.9-2.5,3.6-3.8,6.1-2.9
			c2.5,0.9,3.8,3.6,2.9,6.1l-86.4,246.5C540.7,1616.9,538.9,1618.1,536.9,1618.1z"/>
	</g>
</g>
</svg>
