<?xml version="1.0" encoding="utf-8"?>
<!-- Generator: Adobe Illustrator 21.0.2, SVG Export Plug-In . SVG Version: 6.00 Build 0)  -->
<svg version="1.1" id="Слой_1" xmlns="http://www.w3.org/2000/svg" xmlns:xlink="http://www.w3.org/1999/xlink" x="0px" y="0px"
	 viewBox="0 0 2000 2000" style="enable-background:new 0 0 2000 2000;" xml:space="preserve">
<style type="text/css">
	.st0{fill:#FFDF57;}
	.st1{fill:#00DA9F;}
	.st2{fill:#201000;}
	.st3{fill:#FFFFFF;}
	.st4{fill:#FF98E1;}
	.st5{fill:#F76567;}
</style>
<g id="Book">
	<polygon class="st0" points="1444.8,1113.3 1318.4,1494.4 1030.4,1494.4 1047.7,1442.3 1109.3,1256.4 1140.8,1161.6 1147.5,1141.4 
		1156.8,1113.3 	"/>
	<polygon class="st0" points="1318.4,1494.4 1464.2,1364.4 1590.6,983.3 1444.9,1113.3 	"/>
	<path class="st1" d="M1339.7,1482.2c-0.5,0-1-0.1-1.5-0.2c-2.5-0.8-3.9-3.5-3.1-6.1l121.2-370.6c0.8-2.5,3.5-3.9,6.1-3.1
		c2.5,0.8,3.9,3.5,3.1,6.1l-121.2,370.6C1343.6,1481,1341.7,1482.2,1339.7,1482.2z"/>
	<path class="st1" d="M1290.3,1499.2c-0.5,0-1-0.1-1.5-0.2c-2.5-0.8-3.9-3.5-3.1-6.1l121.2-370.6c0.8-2.5,3.5-3.9,6.1-3.1
		c2.5,0.8,3.9,3.5,3.1,6.1l-121.2,370.6C1294.2,1497.9,1292.3,1499.2,1290.3,1499.2z"/>
	<path class="st2" d="M1433.8,1105.4c-2.4,0-4.4-1.7-4.8-4.1c-6.6-47.2,43.3-82.1,80.8-91.7c34.3-8.8,43.4-35,43.5-35.3
		c0.8-2.5,3.5-3.9,6.1-3c2.5,0.8,3.9,3.6,3,6.1c-0.4,1.3-10.9,31.4-50.2,41.5c-34,8.8-79.4,39.8-73.7,81.1c0.4,2.6-1.5,5.1-4.1,5.4
		C1434.3,1105.4,1434.1,1105.4,1433.8,1105.4z"/>
	<path class="st2" d="M1418.2,1103c-1,0-2-0.3-2.8-0.9l0,0c-0.3-0.2-30.9-21.7-94-15.9c-49.6,4.5-124.6,11.1-144.1,12.8
		c-2.6,0.2-5-1.7-5.2-4.4l0,0c-0.2-2.6,1.7-5,4.4-5.2c19.5-1.7,94.5-8.3,144.1-12.8c67.1-6.1,99.2,16.7,100.5,17.7
		c2.1,1.6,2.6,4.6,1,6.7C1421.2,1102.3,1419.7,1103,1418.2,1103z"/>
</g>
<g id="Thumb">
	<path class="st2" d="M412.3,791.3c-0.6,0-1.2-0.1-1.8-0.4c-1.8-0.7-3-2.5-3-4.4V447.2c0-2.7,2.1-4.8,4.8-4.8h300.9
		c2.7,0,4.8,2.1,4.8,4.8v243.3c0,2.7-2.1,4.8-4.8,4.8H510.3l-94.6,94.6C414.8,790.8,413.5,791.3,412.3,791.3z M417.1,452v322.9
		l87.8-87.8c0.9-0.9,2.1-1.4,3.4-1.4h200.1V452H417.1z"/>
	<path class="st3" d="M485.6,503.1l0.6,143.5c0,0,131.7,0.5,149.9-0.6c25.7-1.5,31.3-31.5,7.7-32.9c0,0,20-0.8,19.9-15.8
		s-22.9-19.2-22.9-19.2s22.8-0.8,22.1-15.1c-0.8-15-20.8-17-20.8-17s20.7-4.2,20.6-21.5c-0.1-27.8-44.4-28.4-72.2-28.3
		c0,0,42.5-77.3,21.1-83.6c-21.4-6.3-49,68.7-61.8,79.5S485.6,503.1,485.6,503.1z"/>
	<path class="st1" d="M547.1,651.5c-31,0-58.5-0.1-60.9-0.1c-2.6,0-4.8-2.1-4.8-4.8l-0.6-143.5c0-2.6,2.1-4.8,4.8-4.8
		c19.2-0.1,52.8-2.8,61.1-9.8c3.7-3.1,10.3-15.2,16.6-26.9c14.9-27.6,31.9-58.8,49.6-53.6c3.7,1.1,6.5,3.7,8,7.4
		c6.8,16.5-13,57.8-22.5,76c13.3,0.1,27.5,0.8,39.7,3.8c19.4,4.8,29.3,14.6,29.4,29.3c0,9.9-5.5,16.6-11.8,20.8
		c6.1,3.3,11.5,8.8,12,17.5c0.2,4.4-1.2,8.4-4.1,11.6c-1.9,2.1-4.2,3.6-6.7,4.8c6.1,3.7,11.6,9.4,11.7,18.1
		c0,8.3-4.6,13.5-10.2,16.7c3.5,3.4,5.2,7.9,5.2,12.4c0,11.2-10.1,23.4-27.2,24.5C626.4,651.4,584.3,651.5,547.1,651.5z M491,641.8
		c23.8,0.1,128.9,0.3,144.8-0.6c12.5-0.8,18.2-9.1,18.1-14.9c0-5-3.8-8.1-10.4-8.4c-2.6-0.1-4.5-2.3-4.5-4.8c0-2.6,2-4.7,4.6-4.8
		c0.6,0,15.4-0.8,15.3-11c0-10.6-18.8-14.4-19-14.5c-2.4-0.5-4.1-2.6-3.9-5.1c0.2-2.4,2.2-4.4,4.6-4.5c3.1-0.1,12.1-1.3,15.9-5.5
		c1.2-1.3,1.7-2.7,1.6-4.6c-0.6-10.7-16.3-12.5-16.5-12.5c-2.4-0.2-4.2-2.2-4.3-4.5c-0.1-2.4,1.5-4.5,3.8-4.9
		c0.7-0.1,16.8-3.7,16.8-16.8c0-6.2-2.3-15.1-22.1-20c-13.6-3.4-30.5-3.5-45.3-3.5c-1.8,0.2-3.3-0.9-4.1-2.3
		c-0.9-1.5-0.9-3.3-0.1-4.8c12.5-22.8,30.6-63.2,25.8-74.9c-0.5-1.2-1.1-1.6-1.9-1.8c-10.4-3.1-27.9,29.5-38.5,48.9
		c-7.7,14.1-13.7,25.3-18.9,29.6c-11.8,9.9-48.6,11.7-62.5,12L491,641.8z"/>
	<path class="st1" d="M597.5,650.9c-0.2,0-0.5,0-0.7-0.1c-7.1-1.1-13.9-5.3-17.7-11c-3.1-4.6-4-9.7-2.8-14.9
		c4.3-17.4,30.2-17.1,53-16.7c5.2,0.1,10,0.1,14.2,0c2.7-0.2,4.9,2,5,4.6c0.1,2.6-2,4.9-4.6,5c-4.4,0.2-9.4,0.1-14.7,0
		c-17.4-0.2-41.1-0.6-43.6,9.4c-0.6,2.5-0.1,4.9,1.4,7.2c2.3,3.4,6.8,6.1,11.1,6.8c2.6,0.4,4.4,2.8,4,5.5
		C601.9,649.2,599.9,650.9,597.5,650.9z"/>
	<path class="st1" d="M595.3,618.8c-0.2,0-0.5,0-0.7-0.1c-6.7-1-13.8-5.9-18-12.4c-3.5-5.4-4.6-11.2-3.1-16.4
		c4.6-16.5,31-16.5,54.3-16.5c4.6,0,9,0,12.9-0.1c2.7-0.2,4.9,2,5,4.6c0.1,2.6-2,4.9-4.6,5c-4,0.2-8.5,0.2-13.2,0.2
		c-16.9,0-42.4,0-45.1,9.5c-1,3.4,0.8,6.8,1.9,8.6c2.7,4.2,7.4,7.6,11.4,8.1c2.6,0.4,4.4,2.8,4,5.5
		C599.7,617.1,597.6,618.8,595.3,618.8z"/>
	<path class="st1" d="M595.1,585.1c-0.5,0-0.9-0.1-1.4-0.2c-23.5-7.1-22.1-21.8-20.5-27.8c4.6-16.3,33.6-16.1,59.2-16
		c5.3,0,10.2,0.1,14.3-0.1c2.7-0.2,4.9,2,5,4.6c0.1,2.6-2,4.9-4.6,5c-4.2,0.2-9.3,0.1-14.7,0.1c-17.7-0.1-47.3-0.3-49.9,9
		c-0.8,2.7-3,10.8,14,16c2.5,0.8,4,3.5,3.2,6C599.1,583.8,597.2,585.1,595.1,585.1z"/>
	<path class="st1" d="M590.7,552.4c-0.2,0-0.5,0-0.7-0.1c-7.2-1.1-14.3-5.5-18-11.3c-3-4.6-3.8-9.6-2.4-14.6
		c4.6-16.5,31-16.5,54.3-16.5c4.6,0,9,0,12.9-0.1c2.7-0.1,4.9,2,5,4.6c0.1,2.7-2,4.9-4.6,5c-4,0.1-8.5,0.2-13.2,0.2
		c-16.9,0-42.4,0-45.1,9.5c-0.6,2.3-0.2,4.6,1.2,6.8c2.3,3.5,6.9,6.4,11.4,7c2.6,0.4,4.4,2.8,4,5.5
		C595.1,550.7,593,552.4,590.7,552.4z"/>
</g>
<g id="Sign">
	<path class="st2" d="M1507.9,897.7c-1.2,0-2.5-0.5-3.4-1.4l-62.6-62.6h-199.7c-2.7,0-4.8-2.1-4.8-4.8V675.2c0-2.7,2.1-4.8,4.8-4.8
		h265.7c2.7,0,4.8,2.1,4.8,4.8v217.7c0,1.9-1.2,3.7-3,4.4C1509.1,897.6,1508.5,897.7,1507.9,897.7z M1247,824.1h196.9
		c1.3,0,2.5,0.5,3.4,1.4l55.8,55.8V680H1247V824.1z"/>
	<polygon class="st4" points="1394.2,609.6 1319,720.1 1360.6,720.1 1322.2,822.5 1434.2,697.6 1381.4,697.6 	"/>
</g>
<g id="Man">
	<g id="Head">
		<path class="st2" d="M1177.9,578.5c-15.8-42.2-105.4,2.6-105.4,2.6s39.5-21.1,5.3-36.9c-34.2-15.8-139.6,26.3-173.9,108l196.4-4.8
			c-2.1,5.2-3.4,10.8-3.8,16.5c-1.7,2.3-1.7,5.8,1,7.5c1.3,1.5,3.4,2,5.3,1.5c21,4.4,51.2,6.1,58.7-19.4c3-10.3-0.3-19.6-6.7-25.9
			C1171.3,615.8,1185.6,599,1177.9,578.5z"/>
		<path class="st3" d="M897.1,907.8c14.6,42.7,91.4,81.1,104.3,23.6l13.4-62c29.8,7.7,52.2,7.3,72.3-15
			c20.3-22.6,25-84.1,32.7-142.8c2.5-19.4,2.1-36-1.5-49.9c-9.6-38.2-42.2-56.3-98.9-57.6c-65.8-1.4-77.5,37.3-77.5,37.3
			c-2.7-6.2-9.4-14.1-18.3-21c-21.8-16.8-56.9-28-79.1,3c-31.3,43.7,5.8,86.4,53.7,105.2c0,0-3.9,50.3,15.9,73.7
			C914.1,802.4,910.3,842,897.1,907.8"/>
		<path class="st2" d="M968.1,965.3c-29.4,0-65.5-26.5-75.6-55.9c-0.3-0.8-0.3-1.7-0.2-2.5c11.4-56.8,15.8-94.4,16.7-103
			c-16.6-21.5-16.4-60-15.9-72c-32.3-13.4-55.6-35.5-62.7-59.6c-5.1-17.3-1.6-35.1,10.1-51.6c8.6-12,19.6-19.1,32.7-21
			c23.6-3.5,45.1,10.7,53.2,17c6.1,4.7,11.2,9.8,14.9,14.8c7.8-12.3,28.4-33,78-32.1c59.6,1.3,93.4,21.3,103.4,61.2
			c3.7,14.5,4.2,31.4,1.6,51.7c-1.1,8.4-2.1,16.8-3.2,25.2c-6.3,51.3-12.3,99.7-30.7,120.2c-20.8,23.1-44.1,24.2-72.3,17.6
			l-12.4,57.1c-4.5,20.2-17.1,31.8-35.4,32.8C969.9,965.3,969,965.3,968.1,965.3z M902.1,907.5c9.4,25.4,43.4,49.4,68.1,48.2
			c14-0.8,22.9-9.3,26.5-25.3l13.4-61.9c0.3-1.3,1.1-2.4,2.2-3.1c1.1-0.7,2.4-0.9,3.7-0.6c27.8,7.2,48.7,7.4,67.6-13.6
			c16.4-18.3,22.2-65.2,28.3-115c1-8.4,2.1-16.8,3.2-25.2c2.4-18.8,2-35-1.3-48.1c-8.9-35.6-38.9-52.8-94.3-53.9c-1.2,0-2.3,0-3.4,0
			c-58,0-69,32.5-69.4,33.9c-0.6,1.9-2.3,3.3-4.3,3.4c-2.1,0-3.9-1.1-4.7-2.9c-2.4-5.6-8.8-12.9-16.8-19.1
			c-14.9-11.5-32.1-17.1-45.9-15.1c-10.4,1.5-19.3,7.3-26.3,17.1c-10.1,14.1-13.1,28.7-8.7,43.2c6.4,21.7,29.5,42.6,60.3,54.7
			c2,0.8,3.2,2.7,3,4.8c0,0.5-3.5,48.6,14.8,70.2c0.8,1,1.2,2.3,1.1,3.6C918.8,803.2,914.9,842.9,902.1,907.5z"/>
		<path class="st2" d="M1063.1,774.8c-1.4,0-2.7-0.6-3.7-1.7c-1.7-2-1.5-5.1,0.5-6.8c18.7-15.9,19.5-39.7,3-91.1
			c-0.8-2.5,0.6-5.2,3.1-6c2.5-0.8,5.2,0.6,6,3.1c15.4,48,19.4,79.9-5.9,101.4C1065.3,774.4,1064.2,774.8,1063.1,774.8z"/>
		
			<ellipse transform="matrix(0.4116 -0.9114 0.9114 0.4116 -44.0474 1318.0709)" class="st2" cx="998.7" cy="693.1" rx="6.6" ry="6.6"/>
		
			<ellipse transform="matrix(0.4116 -0.9114 0.9114 0.4116 5.6565 1417.2057)" class="st2" cx="1100.4" cy="704.2" rx="6.6" ry="6.6"/>
		<path class="st2" d="M994.7,790.4c-13.4-2.2-21.2-15.5-16.1-28.2c2.5-6.3-7.1-10.7-9.6-4.3c-7.6,19.1,3.6,39.6,24.1,43
			C999.8,801.9,1001.4,791.5,994.7,790.4z"/>
		<path class="st2" d="M1015.1,661.9c-0.3-3-2.9-4.8-5.8-4.7c-2.9,0.1-5.9,0.2-8.8,0.3c-2.8,0.1-5,3.1-4.7,5.8
			c0.3,3,2.9,4.8,5.8,4.7c2.9-0.1,5.9-0.2,8.8-0.3C1013.3,667.6,1015.4,664.6,1015.1,661.9z"/>
		<path class="st2" d="M1107,663.9l-6-2.7c-6.2-2.8-10.5,6.8-4.3,9.6l6,2.7C1108.9,676.3,1113.2,666.7,1107,663.9z"/>
		<path class="st2" d="M913,691.1c-2.6,0-4.7-2-4.8-4.6c-0.4-9.8-12.4-35.5-29.9-39.6c-2.6-0.6-4.2-3.2-3.6-5.8
			c0.6-2.6,3.2-4.2,5.8-3.6c21.8,5,36.7,34.7,37.3,48.6c0.1,2.6-2,4.9-4.6,5C913.2,691.1,913.1,691.1,913,691.1z"/>
		<path class="st2" d="M935.5,623.3c-10.5,55.3-2.6,58,7.9,58c10.5,0,23.7-68.5,23.7-68.5L935.5,623.3z"/>
	</g>
	<g id="Body">
		<path class="st2" d="M1147.5,1141.4l-6.7,20.2l-17.8-119.2c-0.4-2.6,1.4-5.1,4-5.4c2.6-0.4,5.1,1.4,5.5,4L1147.5,1141.4z"/>
		<path class="st2" d="M900.3,898c-0.5-0.2-1.1-0.3-1.8-0.3c-115,3.3-186.6,24.9-225.3,68c-45,50.1-39.5,121.4-33.2,204l0.3,4.5
			c15.3,198.8,19.2,327.4,19.2,328.7c0.1,2.6,2.2,4.7,4.8,4.7h0.1c2.6-0.1,4.7-2.3,4.7-4.9c0-1.3-3.9-130.1-19.2-329.1l-0.3-4.5
			c-6.2-80.4-11.6-149.9,30.7-196.9c36.9-41,106.3-61.6,218.4-64.8C899.3,904.2,899.8,901.1,900.3,898z"/>
		<path class="st2" d="M1214.3,1068.1c-12.2-166-121.8-166.9-187.3-167.4c-6.9-0.1-13.5-0.1-19.5-0.3c-1.1,3-2.1,6-3.1,9
			c0.6,0.3,1.3,0.5,2,0.5c6.3,0.3,13.2,0.3,20.4,0.4c66.2,0.5,166.3,1.4,177.8,158.5c0.5,7.1,1,14,1.5,20.8c3.2-0.3,6.4-0.4,9.6-0.5
			C1215.3,1082.3,1214.8,1075.3,1214.3,1068.1z"/>
	</g>
	<g id="Hand">
		<path class="st3" d="M1127.7,1041.8"/>
		<path class="st3" d="M1253.3,1311.5c-2.9,1-12.9,0.9-14-1.8c-0.8-2,6.3-6.3,8.3-7.9c36.1-28.4,5.5-45.9,4.7-72.2
			c0.1-0.2,0.2-0.4,0.4-0.6c3-5.2,0.9-11.7-4.2-14.8c-6.1-3.6-13.1-1-19.3,0.8c-7.2,2.1-14.3,4.3-21.4,6.7
			c-27.7,9.3-54.6,20.8-80.5,34.3c-0.7,0.4-1.3,0.8-1.8,1.3c-5.7,0.1-11-0.3-16.1-1l-61.7,185.9c2.8-0.8,5.8-2,8.9-3.6
			c1.1-0.6,2.5-1.2,4.1-1.9c61.3-37.9,128.9-67.6,193.8-98.8c3.3-3.6,7.5-6.1,10.8-9.8C1267,1316.7,1266.9,1306.9,1253.3,1311.5z"/>
		<path class="st2" d="M812.1,1546.5c-17.9,0-33.9-3.5-47.8-10.4c-25.6-12.9-43.2-37.3-52.1-72.6c-18.9-74.4-45.5-222.4-61.5-310.7
			c-6.9-38-12.8-71.1-14.4-77.2c-0.6-1-0.9-2.1-0.7-3.3c0.4-2.3,2.4-4.1,4.8-4.1c4.5,0.1,4.5,0,9.4,25.9
			c2.6,13.9,6.2,33.7,10.4,57.2c15.9,88.3,42.6,236,61.4,310.1c8.2,32.4,24.1,54.8,47.1,66.4c29.4,14.8,70.5,12.1,119-7.7
			c78.5-32.2,108.5-51,146.5-74.8l11.7-7.3c53-33,99.3-53.6,136.5-70.2c18.6-8.3,34.8-15.5,46.8-22.2c17-9.4,32.8-18.9,34.2-24.5
			c0.2-0.8,0.2-2-1.6-4.6c-5.1-3.5-41.1,7.6-78.4,24.5c-2.4,1.1-5.2,0-6.3-2.4c-1.1-2.4-0.1-5.2,2.3-6.4c73-34,84.4-51.8,84.7-59.3
			c0.1-1.4,0.2-5.6-8.5-10.6c-2.3-1.3-3.1-4.3-1.8-6.6c1.3-2.3,4.3-3.1,6.6-1.8c9.2,5.3,13.6,11.8,13.3,19.4
			c-0.3,7.4-4.7,18.3-30.8,35.6c13-2.9,23.2-3.1,26.8,2.2c1.9,2.7,4.2,7,3,12.2c-1.9,8.1-11,15.2-38.9,30.7
			c-12.4,6.9-28.7,14.1-47.6,22.5c-36.9,16.4-82.9,36.9-135.3,69.5l-11.7,7.3c-38.4,24.1-68.7,43.1-148,75.6
			C862.2,1540.6,835.6,1546.5,812.1,1546.5z"/>
		<path class="st2" d="M1172.2,1312.1c-1.8,0-3.5-1-4.4-2.8c-1.1-2.4-0.1-5.3,2.3-6.4c54.4-25.4,82.8-44.3,84.3-56.1
			c0.5-3.7-1.7-7.2-7.7-12.3c-2-1.7-2.3-4.7-0.6-6.8c1.7-2,4.7-2.3,6.8-0.6c5.8,4.9,12.2,11.7,11,20.9
			c-1.5,11.4-13.4,27.9-89.8,63.5C1173.6,1312,1172.9,1312.1,1172.2,1312.1z"/>
		<path class="st2" d="M1157.7,1283.2c-1.8,0-3.5-1-4.3-2.7c-1.1-2.4-0.1-5.3,2.2-6.4c15.1-7.2,28.2-13.3,39.7-18.6
			c42-19.3,56.3-26.5,52.7-36c-0.1-0.2-0.2-0.5-1.3-1c-16.7-6.5-96.1,27.8-142.2,51c-2.4,1.2-5.3,0.2-6.4-2.1
			c-1.2-2.4-0.2-5.3,2.1-6.4c12.6-6.3,123.8-61.5,150-51.3c4.2,1.6,6,4.4,6.8,6.5c7,18.3-13.3,27.7-57.7,48.1
			c-11.5,5.3-24.6,11.3-39.6,18.5C1159.1,1283,1158.4,1283.2,1157.7,1283.2z"/>
		<path class="st2" d="M830.2,1381.5c-1.7,0-3.4-0.9-4.2-2.5c-1.3-2.3-0.4-5.2,2-6.5c1.5-0.8,154.1-82.8,203.4-114
			c20.8-13.1,35.5-26.5,48.5-38.3c17.9-16.3,27.1-28.9,47-30.5c2.7-0.3,5,1.7,5.2,4.4c0.2,2.6-1.7,5-4.4,5.2
			c-16.6,1.4-24.1,12.4-41.3,28.1c-12.6,11.5-28.4,25.8-49.8,39.4c-49.6,31.3-202.5,113.5-204,114.3
			C831.7,1381.3,830.9,1381.5,830.2,1381.5z"/>
		<line class="st3" x1="803.8" y1="1108" x2="856.5" y2="1364.4"/>
		<path class="st2" d="M856.5,1369.2c-2.2,0-4.2-1.6-4.7-3.8L799.1,1109c-0.5-2.6,1.1-5.1,3.7-5.7c2.6-0.5,5.1,1.1,5.7,3.7
			l52.7,256.4c0.5,2.6-1.1,5.1-3.7,5.7C857.1,1369.2,856.8,1369.2,856.5,1369.2z"/>
		<path class="st2" d="M1101.3,1416.3c-0.7,0-1.3-0.1-1.9-0.4c-43.2-19.2-81.9-83.8-84.5-141c-0.1-2.6,1.9-4.9,4.6-5
			c2.5-0.2,4.9,1.9,5,4.6c2.4,53.1,39.2,115.1,78.8,132.7c2.4,1.1,3.5,3.9,2.4,6.3C1104.9,1415.2,1103.2,1416.3,1101.3,1416.3z"/>
	</g>
	<g id="Fingers">
		<path class="st3" d="M1558.5,1167.8l-19.7,20.6c-33,19.1-40.9,25.3-35.7,33.9c5.2,8.6,39.2-3.9,51.2-22.8
			C1566.2,1180.6,1558.5,1167.8,1558.5,1167.8z"/>
		<path class="st2" d="M1510.1,1229.8c-0.1,0-0.2,0-0.3,0c-6.5-0.1-9.5-2.8-10.9-5.1c-2-3.3-2.6-6.7-1.8-9.9
			c2-7.9,11.6-14.6,39.2-30.6c2.3-1.3,5.2-0.5,6.6,1.7c1.3,2.3,0.5,5.2-1.7,6.6c-17.6,10.2-33.4,19.7-34.7,24.7
			c-0.1,0.3-0.3,1,0.7,2.6c0.2,0.2,2.1,0.8,6.3,0.2c11.9-1.8,29.5-11.5,36.8-23c10.1-15.9,4.4-26.3,4.2-26.7
			c-1.3-2.3-0.5-5.2,1.7-6.5c2.3-1.3,5.2-0.6,6.5,1.6c0.4,0.6,9.1,15.6-4.3,36.8C1548.3,1217.8,1524.3,1229.8,1510.1,1229.8z"/>
		<path class="st3" d="M1565.5,1126.9l-21.9,29.1c-39,29.2-48.1,38.3-40.3,48.4c7.8,10.1,49.2-10.8,61.5-36.6
			C1577.3,1142.1,1565.5,1126.9,1565.5,1126.9z"/>
		<path class="st2" d="M1510.3,1211.8c-5.9,0-9.1-2.3-10.7-4.5c-2.9-3.7-4-7.4-3.5-11.3c1.3-9.8,12.8-20,44.6-43.9
			c2.1-1.6,5.1-1.1,6.7,1c1.6,2.1,1.2,5.1-1,6.7c-21.8,16.3-39.9,30.4-40.9,37.5c-0.1,0.9,0,2.1,1.5,4.1c0.3,0.4,1.7,1,4.8,0.6
			c13.2-1.4,39.5-17.3,48.6-36.4c10.8-22.5,1.5-35.4,1.1-35.9c-1.6-2.1-1.2-5.1,0.9-6.7c2.1-1.6,5.1-1.2,6.7,0.9
			c0.6,0.7,13.4,17.8-0.1,45.9c-10.2,21.2-38.6,39.9-56.3,41.8C1512,1211.7,1511.1,1211.8,1510.3,1211.8z"/>
		<path class="st3" d="M1570,1099l-23,31.1c-41.2,31.4-50.8,41.1-42.4,51.8c8.4,10.7,52.2-12,65.1-39.5
			C1582.6,1115,1570,1099,1570,1099z"/>
		<path class="st2" d="M1511.8,1189.5c-6,0-9.3-2.4-11-4.5c-3-3.8-4.2-7.7-3.7-11.8c1.3-10.4,13.4-21.3,46.9-46.8
			c2.1-1.6,5.1-1.2,6.7,0.9c1.6,2.1,1.2,5.1-0.9,6.7c-23.9,18.2-42.3,32.8-43.2,40.4c-0.1,1,0,2.4,1.7,4.6c0.5,0.6,2.3,1.1,5.4,0.7
			c14.1-1.6,42-18.8,51.6-39.3c11.5-24.5,1-38.3,0.9-38.5c-1.6-2.1-1.3-5.1,0.8-6.7c2.1-1.6,5.1-1.3,6.7,0.8
			c0.6,0.7,14.3,18.7,0.3,48.5c-10.6,22.6-40.5,42.6-59.2,44.7C1513.8,1189.4,1512.8,1189.5,1511.8,1189.5z"/>
		<path class="st3" d="M1564.4,1062.4l-10,29c-37.2,36-54.5,52.5-44.9,62.1s50.4-18,60-46.8
			C1579.1,1077.8,1564.4,1062.4,1564.4,1062.4z"/>
		<path class="st2" d="M1515.1,1160.1c-4.6,0-7.4-1.7-9-3.3c-3.4-3.4-5.1-7.1-5.1-11.3c0.1-10.4,10.9-22.7,41.1-52
			c1.9-1.8,4.9-1.8,6.8,0.1c1.8,1.9,1.8,4.9-0.1,6.8c-21.6,20.9-38.1,37.5-38.2,45.2c0,1,0.3,2.4,2.3,4.4c0.6,0.6,2.4,0.8,5.4,0.1
			c13.8-3.3,39.5-23.6,46.6-45c8.6-25.7-3.5-38.2-3.6-38.3c-1.9-1.9-1.9-4.9,0-6.8c1.9-1.9,4.9-1.9,6.8,0c0.7,0.7,16.4,16.9,6,48.1
			c-7.9,23.7-35.3,47-53.5,51.4C1518.5,1159.9,1516.7,1160.1,1515.1,1160.1z"/>
	</g>
</g>
<g id="Objects">
	<path class="st5" d="M616.1,911c-8.5-11.7-17.1-23.5-25.6-35.2c-3.6-4.9-11.9-0.2-8.3,4.8c8.5,11.7,17.1,23.5,25.6,35.2
		C611.4,920.8,619.8,916,616.1,911z"/>
	<path class="st5" d="M589.3,942.3c-4.3-5.3-8.5-10.7-12.8-16c-1.6-2-5.1-1.7-6.8,0c-2,2-1.6,4.8,0,6.8c4.3,5.3,8.5,10.7,12.8,16
		c1.6,2,5.1,1.7,6.8,0C591.4,947.1,591,944.4,589.3,942.3z"/>
	<path class="st5" d="M1478.1,357.5c-5.3,7.5-10.7,14.9-16,22.4c-3.6,5,4.7,9.8,8.3,4.8c5.3-7.5,10.7-14.9,16-22.4
		C1490,357.3,1481.7,352.5,1478.1,357.5z"/>
	<path class="st4" d="M352.3,748.9c-15,0-27.2-12.2-27.2-27.2c0-15,12.2-27.2,27.2-27.2c15,0,27.2,12.2,27.2,27.2
		C379.5,736.7,367.3,748.9,352.3,748.9z M352.3,704c-9.7,0-17.6,7.9-17.6,17.6c0,9.7,7.9,17.6,17.6,17.6s17.6-7.9,17.6-17.6
		C369.9,711.9,362,704,352.3,704z"/>
	<path class="st0" d="M422.7,1371.5c-0.7,0-1.5-0.2-2.2-0.5c-2.4-1.2-3.3-4.1-2.1-6.5l72-139.2c1.2-2.4,4.1-3.3,6.5-2.1
		c2.4,1.2,3.3,4.1,2.1,6.5l-72,139.2C426.1,1370.5,424.4,1371.5,422.7,1371.5z"/>
	<path class="st0" d="M530.7,1304.3h-38.4c-2.7,0-4.8-2.1-4.8-4.8c0-2.7,2.1-4.8,4.8-4.8h38.4c2.7,0,4.8,2.1,4.8,4.8
		C535.5,1302.1,533.4,1304.3,530.7,1304.3z"/>
</g>
</svg>
