<?xml version="1.0" encoding="utf-8"?>
<!-- Generator: Adobe Illustrator 21.0.2, SVG Export Plug-In . SVG Version: 6.00 Build 0)  -->
<svg version="1.1" id="Слой_1" xmlns="http://www.w3.org/2000/svg" xmlns:xlink="http://www.w3.org/1999/xlink" x="0px" y="0px"
	 viewBox="0 0 2000 2000" style="enable-background:new 0 0 2000 2000;" xml:space="preserve">
<style type="text/css">
	.st0{fill:#201000;}
	.st1{fill:#FFFFFF;}
	.st2{fill:#FFDF57;}
	.st3{fill:#FF98E1;}
	.st4{fill:#00DA9F;}
	.st5{fill:#F76567;}
</style>
<g id="Man">
	<g id="Head">
		<path class="st0" d="M1195.5,600.3c-1.5-17.5-14.7-30.8-30.4-31.9c6.6-15.6-2.6-34.4-20-41.3c-28.6-11.3-60,8.1-81.1,25.7
			c-5.4,4.5-12,14.2-19.2,15.1c0.1,0-13.8-6.9-14.8-7.1c-12.8-3.7-27-1.8-39.2,3c-34,13.4-48.5,49.8-60.7,81.5
			c-2.2,5.7,5.6,8.5,9.2,4.8c65,12.1,127.5,32.4,187,61.4c4.4,2.2,9.2-1.8,7.8-6.3c0.6-0.3,1.1-0.6,1.7-1.2
			C1159.4,678.4,1198.9,638.2,1195.5,600.3z"/>
		<path class="st1" d="M925.8,834.9c11.5,28.5,40.7,38.9,72,42l8.3,94c0,0,4.6,73.4,68.6,50.4c45.7-16.4,53.5-44.5,53.5-44.5
			s-7.8-50.8-17.8-131.2c27.2-15.5,41.2-65.2,41.2-65.2c52.6-1.2,103.3-29.2,88.6-82.2c-10.4-37.6-48.1-39.2-75-30.7
			c-11,3.5-20.2,8.7-24.9,13.7c0,0,2.4-41.3-61.4-63.1c-54.9-18.8-88.2,4.5-110.8,37.9c-8.3,12.1-19,10.6-23.4,30.1
			C931.4,745.3,914.2,806,925.8,834.9z"/>
		<path class="st0" d="M1051.8,1030.6c-9.1,0-17.3-2.3-24.3-7c-23.5-15.5-26-50.9-26.1-52.4l-7.9-90c-38.3-4.6-61.9-19.2-72.1-44.6
			c0,0,0,0,0,0c-10.5-26.2,0.8-74.8,12.8-126.3c2-8.4,3.9-16.8,5.8-25.3c3.1-13.9,9.6-18.8,15.3-23.2c3.2-2.4,6.2-4.7,8.8-8.6
			c29.5-43.4,67.5-56.4,116.4-39.7c48.3,16.5,60.6,43.9,63.7,58.4c5.3-3.5,12.1-6.6,19.7-9.1c10-3.2,35.6-9.3,57.1,2.4
			c11.9,6.5,20,17.1,24,31.6c5.5,19.9,2.6,38.2-8.4,53c-15.3,20.6-45.5,33.6-81.2,35.2c-3.6,11.4-16.7,47.7-39.6,63
			c9.7,77.6,17.3,127.5,17.4,128c0.1,0.7,0.1,1.4-0.1,2c-0.3,1.2-9,30.6-56.5,47.7C1067.5,1029,1059.3,1030.6,1051.8,1030.6z
			 M930.2,833.1c9.1,22.6,31.3,35.4,68.1,39c2.3,0.2,4.1,2.1,4.3,4.4l8.3,94c0,0.4,2.3,32.3,21.8,45.1c10.3,6.7,23.8,7.1,40.4,1.2
			c38-13.7,48.4-35.8,50.2-40.4c-1.2-8.1-8.6-57.3-17.6-130.1c-0.2-1.9,0.7-3.8,2.4-4.8c25.2-14.4,38.8-61.9,38.9-62.3
			c0.6-2,2.4-3.5,4.5-3.5c33.8-0.8,63.4-12.8,77.2-31.4c9.3-12.5,11.6-27.6,6.8-44.7c-3.3-11.9-9.8-20.6-19.3-25.8
			c-12.6-6.8-31.1-7.5-49.6-1.6c-9.8,3.1-18.6,7.9-22.9,12.4c-1.4,1.5-3.5,1.9-5.4,1.1c-1.9-0.8-3-2.7-2.9-4.7
			c0.1-1.5,1-38-58.2-58.2c-44.8-15.3-78.2-3.9-105.3,36.1c-3.6,5.2-7.5,8.2-10.9,10.8c-5.2,4-9.4,7.1-11.7,17.6
			c-1.9,8.4-3.9,16.9-5.8,25.3C931.8,762.5,920.9,809.7,930.2,833.1L930.2,833.1z"/>
		<path class="st0" d="M1070.5,677.5c-1.1-2.9,0.6-5.7,3.2-6.9c2.7-1.2,5.5-2.5,8.2-3.7c2.7-1.2,6,0.6,6.9,3.2
			c1.1,2.9-0.6,5.7-3.2,6.9c-2.7,1.2-5.5,2.5-8.2,3.7C1074.8,682,1071.5,680.1,1070.5,677.5z"/>
		<path class="st0" d="M1164.5,733.6c-0.4,0-0.8,0-1.1-0.1c-2.6-0.6-4.2-3.2-3.5-5.8c5.9-24.4,27.1-41.2,39-42.1
			c2.7-0.1,4.9,1.8,5.1,4.5c0.2,2.6-1.8,4.9-4.5,5.1c-7.7,0.5-25.4,14.5-30.3,34.7C1168.6,732.1,1166.6,733.6,1164.5,733.6z"/>
		<path class="st0" d="M1099.7,677c-5.4,1.8-10.8,3.7-16.1,5.5c-6.5,2.2-3.7,12.7,2.9,10.4l16.1-5.5
			C1109.1,685.1,1106.3,674.7,1099.7,677z"/>
		<path class="st0" d="M1097.1,789.2c-0.5,10-9.2,17.4-19.2,15.7c-6.3-1.1-8.9,8.5-2.6,9.6c16.5,2.8,31-8.4,31.8-25.3
			C1107.4,782.8,1097.4,782.8,1097.1,789.2z"/>
	</g>
	<g id="Body">
		<path class="st0" d="M827.6,994.3c-1.4,0-2.7-0.6-3.6-1.7c-1.7-2-1.5-5,0.5-6.8c23.7-20.3,92-17.8,154.2-14
			c11.8,0.7,21.1,1.3,25.9,1.2c2.7,0,4.8,2,4.9,4.7c0.1,2.6-2.1,4.8-4.7,4.9c-5.2,0.1-14.7-0.5-26.7-1.2
			c-43.6-2.7-124.7-7.8-147.3,11.7C829.9,993.9,828.7,994.3,827.6,994.3z"/>
		<path class="st0" d="M1357.6,1459.7c-2.6,0-4.8-2.1-4.8-4.8c0-2-1.3-202.4-11.9-367.5c-2.7-41.6-15.8-72.1-38.9-90.8
			c-41.2-33.3-106.5-23.8-145.6-18c-12.2,1.8-21.9,3.2-28.3,3c-2.7-0.1-4.7-2.3-4.7-4.9c0.1-2.7,2.4-4.8,4.9-4.7
			c5.7,0.2,15.4-1.3,26.7-2.9c40.6-6,108.5-15.9,153,20.1c25.3,20.5,39.6,53.4,42.5,97.7c10.7,165.4,11.9,366.1,11.9,368.1
			C1362.4,1457.6,1360.3,1459.7,1357.6,1459.7C1357.6,1459.7,1357.6,1459.7,1357.6,1459.7z"/>
		<path class="st0" d="M1230,1459.7c-2.6,0-4.7-2.1-4.8-4.7l-7.2-268.6c-0.1-2.6,2-4.9,4.7-4.9c2.7-0.1,4.9,2,4.9,4.7l7.2,268.6
			c0.1,2.6-2,4.9-4.7,4.9C1230.1,1459.7,1230,1459.7,1230,1459.7z"/>
		<path class="st0" d="M1280.4,1364.2c-22.7,0-43.5-4.2-54.9-12.1c-2.2-1.5-2.7-4.5-1.2-6.7c1.5-2.2,4.5-2.7,6.7-1.2
			c22.6,15.6,88.6,14.5,120.4-7.2c2.2-1.5,5.2-0.9,6.7,1.3c1.5,2.2,0.9,5.2-1.2,6.7C1337.4,1358.1,1307.6,1364.2,1280.4,1364.2z"/>
		<polygon class="st1" points="1003.1,946.5 974.9,971.3 985.5,1056.9 1025.1,1021 		"/>
		<path class="st0" d="M985.5,1061.7c-0.6,0-1.1-0.1-1.7-0.3c-1.7-0.6-2.9-2.1-3.1-3.9l-10.6-85.6c-0.2-1.6,0.4-3.1,1.6-4.2
			l28.1-24.8c1.2-1.1,2.9-1.5,4.5-1c1.6,0.5,2.8,1.7,3.3,3.3l22,74.5c0.5,1.8,0,3.7-1.4,4.9l-39.5,36
			C987.8,1061.3,986.7,1061.7,985.5,1061.7z M980,973.2l9.1,73.9l30.5-27.7l-19-64.4L980,973.2z"/>
		<polygon class="st1" points="1084.4,1015.6 1114.9,1055.1 1152.7,977.8 1125.7,940.1 		"/>
		<path class="st0" d="M1114.9,1059.9c-1.5,0-2.9-0.7-3.8-1.9l-30.6-39.5c-1.2-1.5-1.3-3.6-0.4-5.2l41.3-75.5
			c0.8-1.4,2.3-2.4,3.9-2.5c1.7-0.1,3.2,0.7,4.2,2l27,37.7c1,1.4,1.2,3.3,0.4,4.9l-37.7,77.3c-0.7,1.5-2.2,2.5-3.8,2.7
			C1115.3,1059.9,1115.1,1059.9,1114.9,1059.9z M1090.1,1015.1l23.9,30.9l33.1-67.8l-20.9-29.2L1090.1,1015.1z"/>
		<path class="st0" d="M1086.2,1459.7c-2.6,0-4.8-2.1-4.8-4.8l-1.8-439.4c0-2.6,2.1-4.8,4.8-4.8c0,0,0,0,0,0c2.6,0,4.8,2.1,4.8,4.8
			l1.8,439.4C1091,1457.6,1088.8,1459.7,1086.2,1459.7C1086.2,1459.7,1086.2,1459.7,1086.2,1459.7z"/>
		<path class="st0" d="M1017.9,1459.7C1017.8,1459.7,1017.8,1459.7,1017.9,1459.7c-2.7,0-4.8-2.2-4.8-4.9l7.2-434
			c0-2.7,2.3-4.7,4.9-4.7c2.7,0,4.8,2.2,4.7,4.9l-7.2,434C1022.6,1457.6,1020.5,1459.7,1017.9,1459.7z"/>
		<path class="st0" d="M852.5,1459.7c-2.6,0-4.8-2.1-4.8-4.8l-1.8-236.2c0-2.7,2.1-4.8,4.8-4.8c2.8,0.1,4.8,2.1,4.8,4.8l1.8,236.2
			C857.3,1457.6,855.2,1459.7,852.5,1459.7C852.5,1459.7,852.5,1459.7,852.5,1459.7z"/>
	</g>
</g>
<g id="Objects">
	<path class="st2" d="M613.6,1053.1c-7.2-8.4-14.4-16.8-21.6-25.2c-4.5-5.3-12.1,2.4-7.6,7.6c7.2,8.4,14.4,16.8,21.6,25.2
		C610.5,1066,618.1,1058.3,613.6,1053.1z"/>
	<path class="st2" d="M1447.3,898.5c-8.4,10.8-16.8,21.6-25.2,32.4c-4.2,5.4,3.4,13.1,7.6,7.6c8.4-10.8,16.8-21.6,25.2-32.4
		C1459.1,900.7,1451.5,893,1447.3,898.5z"/>
	<path class="st2" d="M1447.3,941.6c-6,7.2-12,14.4-18,21.6c-4.4,5.3,3.2,13,7.6,7.6c6-7.2,12-14.4,18-21.6
		C1459.3,944,1451.7,936.3,1447.3,941.6z"/>
	<path class="st3" d="M541.5,1187.5c-26.4,0-47.9-21.5-47.9-47.9c0-26.4,21.5-47.9,47.9-47.9c26.4,0,47.9,21.5,47.9,47.9
		C589.5,1166,567.9,1187.5,541.5,1187.5z M541.5,1101.3c-21.1,0-38.3,17.2-38.3,38.3c0,21.1,17.2,38.3,38.3,38.3
		s38.3-17.2,38.3-38.3C579.8,1118.5,562.7,1101.3,541.5,1101.3z"/>
	<path class="st3" d="M609.8,544c-14.5,0-26.4-11.8-26.4-26.4c0-14.5,11.8-26.4,26.4-26.4s26.4,11.8,26.4,26.4
		C636.2,532.2,624.4,544,609.8,544z M609.8,500.9c-9.2,0-16.8,7.5-16.8,16.8c0,9.2,7.5,16.8,16.8,16.8s16.8-7.5,16.8-16.8
		C626.6,508.4,619.1,500.9,609.8,500.9z"/>
	<path class="st4" d="M581.1,584.2H484c-6.9,0-7,10.8,0,10.8h97.1C588,594.9,588,584.2,581.1,584.2z"/>
	<path class="st4" d="M548.7,652.5H484c-6.9,0-7,10.8,0,10.8h64.7C555.6,663.2,555.7,652.5,548.7,652.5z"/>
	<path class="st3" d="M1530.2,1331.3c-1.6,0-3.2-0.8-4.1-2.3l-71.9-118.6c-1.4-2.3-0.7-5.2,1.6-6.6c2.3-1.4,5.2-0.7,6.6,1.6
		l71.9,118.6c1.4,2.3,0.7,5.2-1.6,6.6C1531.9,1331.1,1531,1331.3,1530.2,1331.3z"/>
</g>
<g id="Lens">
	
		<ellipse transform="matrix(0.8552 -0.5183 0.5183 0.8552 -239.8306 531.5124)" class="st5" cx="831.4" cy="695" rx="235.9" ry="235.9"/>
	
		<ellipse transform="matrix(0.8552 -0.5183 0.5183 0.8552 -239.8306 531.5124)" class="st2" cx="831.4" cy="695" rx="187.8" ry="187.8"/>
	<path class="st0" d="M831.5,785.1c-0.1,0-0.3-0.1-0.3,0c-76.6-0.2-137-84.1-139.6-87.7c-1.2-1.7-1.2-3.9,0-5.6
		c2.6-3.6,63.3-86.9,139.8-86.9c0.1,0,0.2,0,0.3,0c76.6,0.2,137,84.1,139.6,87.7c1.2,1.7,1.2,3.9,0,5.6
		C968.7,701.7,908,785.1,831.5,785.1z M831.2,775.5c0.1,0,0.2,0,0.3,0c64,0,118.6-65.7,129.9-80.1c-11.2-14.5-65.6-80.6-129.7-80.8
		c-0.1,0-0.2,0-0.3,0c-64.1,0-118.6,65.7-129.9,80.1C712.7,709.2,767.1,775.3,831.2,775.5L831.2,775.5z"/>
	<path class="st5" d="M833.9,1015.2c10.8-1.6,21.9-1.6,32.8-0.3V883.7h-70.6v135.7C807.2,1014.1,820.5,1013.6,833.9,1015.2z"/>
	<path class="st5" d="M823.7,1272.6h43v-128.9c-2.9-0.8-5.6-1.2-8.2-1.4C822,1162.4,823.6,1229.5,823.7,1272.6z"/>
	<path class="st0" d="M833.6,1014.1c10.2,0,21.9-1.1,33.1-0.2v-14.7h-70.6v20.3c10.4-5,22.6-5.8,35-4.6
		C831.8,1014.4,832.6,1014.1,833.6,1014.1z"/>
	<path class="st0" d="M823.8,1243.9h42.9v-100.2c-2.9-0.8-5.6-1.2-8.2-1.4C829.5,1158.3,824.5,1204.1,823.8,1243.9z"/>
	<path class="st1" d="M958.3,772.7L933.2,805c-4.2,5.4,3.4,13.1,7.6,7.6c8.4-10.8,16.8-21.6,25.2-32.4
		C970.2,774.9,962.6,767.2,958.3,772.7z"/>
	<path class="st1" d="M871.2,563.7c-27.9-6.1-55.8-12.3-83.7-18.4c-6.8-1.5-9.7,8.9-2.9,10.4c27.9,6.1,55.8,12.3,83.7,18.4
		C875.1,575.6,878,565.2,871.2,563.7z"/>
	<path class="st1" d="M773,731.1c-1.2,0-2.5-0.5-3.4-1.4c-1.9-1.9-1.9-4.9,0-6.8l86.1-86.1c1.9-1.9,4.9-1.9,6.8,0
		c1.9,1.9,1.9,4.9,0,6.8l-86.1,86.1C775.5,730.7,774.2,731.1,773,731.1z"/>
	<path class="st0" d="M831.5,764.9c-5.6,0-11.2-0.7-16.8-2c-18.1-4.4-33.4-15.7-43.1-31.6c-20-32.9-9.4-76,23.5-95.9
		c32.9-19.9,76-9.4,95.9,23.5c9.7,16,12.5,34.7,8.1,52.8c-4.4,18.1-15.7,33.4-31.6,43.1C856.6,761.4,844.1,764.9,831.5,764.9z
		 M831.3,634.8c-10.6,0-21.4,2.8-31.1,8.7c-28.4,17.2-37.5,54.3-20.3,82.7c8.3,13.8,21.5,23.5,37.2,27.3c15.6,3.8,31.8,1.4,45.6-7
		c13.8-8.3,23.4-21.5,27.3-37.2s1.4-31.8-7-45.6h0C871.6,645.1,851.7,634.8,831.3,634.8z"/>
</g>
<g id="Hand">
	<path class="st0" d="M906.3,1001.5c-6.9-11.1-29.5-11-59.1,0.4c-2.5,1-3.7,3.7-2.8,6.2c1,2.5,3.7,3.7,6.2,2.8
		c27.9-10.8,44.6-9,47.5-4.3c1.6,2.6-1,9.2-10.4,17.9c0,0-0.1,0.1-0.1,0.1c2.4,2,4.2,4.7,5.3,7.8c0.5-0.2,0.9-0.5,1.3-0.8
		C911.3,1015.9,909.1,1006,906.3,1001.5z"/>
	<path class="st0" d="M886.5,1028.2c3.1,3.7,3.6,8.4,1.7,14.3c3.3,0.7,6.3,2.3,8.5,4.6c4.6-12.2,1-20.3-2.9-25
		c-16.7-20.3-68.4-16.6-96.3-11.3c-47.9,9.2-71.2,35.5-86,97.2c-15.8,66-21.4,177.1-25.7,346.7c-0.1,2.6,2,4.9,4.7,4.9h0.1
		c2.6,0,4.7-2.1,4.8-4.7c9-354.6,24.6-419.6,104-434.8C833.2,1013.8,875.1,1014.4,886.5,1028.2z"/>
	<path class="st0" d="M892.4,1052.4c2.7,4.5,1.1,12-4.5,22.1c0.7,0.3,1.5,0.7,2.2,1.1c1.1,0.9,2.3,1.8,3.4,2.6
		c0.8,0.7,1.4,1.5,2,2.4c8.2-14.3,9.9-25.1,5.2-33.1c-9.6-16.2-42-13.1-70.5-10.4l-6.9,0.6c-2.6,0.2-4.6,2.6-4.3,5.2
		c0.2,2.6,2.6,4.6,5.2,4.3l6.9-0.7C854.2,1044.4,885.9,1041.4,892.4,1052.4z"/>
	<path class="st0" d="M890.2,1108.5c-0.9,0-1.8-0.2-2.6-0.8c-2.2-1.4-2.9-4.4-1.5-6.6c4.5-7,9.2-16.6,5.9-22
		c-6.5-10.7-41.5-7.4-64.7-5.3l-5,0.5c-2.6,0.2-5-1.7-5.2-4.3c-0.2-2.6,1.7-5,4.3-5.2l5-0.5c30.1-2.8,64.1-6,73.8,9.9
		c4.8,7.8,2.8,18.3-6,32.1C893.4,1107.7,891.8,1108.5,890.2,1108.5z"/>
	<path class="st0" d="M868.7,1162.4c-1.3,0-2.5-0.5-3.4-1.5c-1.8-1.9-1.8-4.9,0.1-6.8c27-26.2,26.5-36.2,25-39.3
		c-2.7-5.6-16.7-11-67.8-4.7c-2.6,0.3-5-1.5-5.4-4.2c-0.3-2.6,1.5-5,4.2-5.4c48.2-6,71.4-3,77.7,10c5.4,11.2-3.2,27.2-27,50.3
		C871.1,1161.9,869.9,1162.4,868.7,1162.4z"/>
	<path class="st0" d="M820.1,1451.8L820.1,1451.8c-2.7,0-4.8-2.1-4.8-4.8c0-9.9,0.2-242.3,16.6-280.5c6.8-15.9,15.1-25.5,24.5-28.5
		c8.2-2.6,14.1,0.7,14.7,1.1c2.3,1.4,3,4.3,1.6,6.6c-1.4,2.2-4.3,3-6.5,1.6c-0.2-0.1-3.1-1.5-7.2-0.2c-4.5,1.6-11.4,6.8-18.4,23.1
		c-15.6,36.4-15.8,274.3-15.8,276.7C824.9,1449.6,822.8,1451.8,820.1,1451.8z"/>
</g>
</svg>
