<?xml version="1.0" encoding="utf-8"?>
<!-- Generator: Adobe Illustrator 21.0.2, SVG Export Plug-In . SVG Version: 6.00 Build 0)  -->
<svg version="1.1" id="Слой_1" xmlns="http://www.w3.org/2000/svg" xmlns:xlink="http://www.w3.org/1999/xlink" x="0px" y="0px"
	 viewBox="0 0 2122 2000" style="enable-background:new 0 0 2122 2000;" xml:space="preserve">
<style type="text/css">
	.st0{fill:#FFCB56;}
	.st1{fill:#F674B4;}
	.st2{fill:#FFFFFF;}
	.st3{fill:#000200;}
	.st4{fill:#FF3857;}
	.st5{fill:#7BAEED;}
</style>
<g id="Objects">
	<path class="st0" d="M1519.7,455.6L240,451.9l30.6,1017h325l103.9-1.9c-2.6-0.2-57.9-94.8-77.6-239.4c-0.4-1.5-0.9-3-1.3-4.4
		c-16.4-59.1-26.4-114.7-52.4-170.8c-14.5-31.2-34.6-57-38.1-84.4c-1.4-10.8,4.8-14.8,7.7-25.6c4.7-18.1,9.2-42.7,20.4-58.4
		c5.1-7.1,14.9-11.7,22.1-18.6c6.1-6,9.3-14.4,17.1-20.2c9.5-7,18.7,5.2,14.8,14.2c2.7,2.4-21.5,43.2,12.8,65.9
		c25.7,17,37.7-28.6,31.4-43.1c-6.2-14.4-23.9-23.9-25.3-39.9c-0.5-5.8,0.4-6.7,5.9-6.5c62.7,1.8,93.3,103.5,108.6,150
		c17,51.8,31.8,102.6,42.2,156.2c12.5,64.6,24.1,137.8,61.4,193.9c23.7,35.7,54.1,39.7,84.2,34.9c70-11,146-98.9,185.6-157.1
		c15.2-22.3,37.4-45.3,65.1-65.2c28-20.1,52.5-43.8,52.5-43.8s-26.2-57.9-29.7-74.2c-33.3-6.5-62.6-15.3-75.1-50.8
		c-12.3-35-11-83.9,2.6-119.1c-6.4-2.1-11.5-5.7-17.9-7.9c-11.8-3.9-6.8-24.9,5.6-25.5c21.1-1,21-1.8,24.3-22.2
		c1.8-10.8,2.7-21.7,4.4-32.5c4.1-25.8,14.2-65.4,28.1-87.9c16.8-27.1,35.3-30.8,66.8-19.3c37.4,13.7,67.9,50.6,92.7,80
		c26.4,31.3,52,63.7,67.1,102.2c21.6,54.9,16.9,119.7,44.6,171.9c17.4,32.8,44.5,32.9,73.6,38.4L1519.7,455.6z"/>
	<polygon class="st1" points="337.8,1395.5 307.2,1395.5 302.8,1449.3 674.8,1435.7 660.5,1402.3 	"/>
	<path class="st2" d="M973.4,552.5c-7.7-11.6-15.5-23.2-23.2-34.8c-3.1-4.7-10.8-0.3-7.6,4.5c7.7,11.6,15.5,23.2,23.2,34.8
		C968.9,561.7,976.6,557.3,973.4,552.5z"/>
	<path class="st1" d="M793,299.8c-10.3,7.8-20.6,15.6-30.8,23.4c-4.5,3.4-0.1,11.1,4.5,7.6c10.3-7.8,20.6-15.6,30.8-23.4
		C802,304,797.6,296.4,793,299.8z"/>
</g>
<path id="Frame" class="st3" d="M662.8,1399.9h-325c-2.4,0-4.3-1.9-4.4-4.3l-30.6-1017c0-1.2,0.4-2.4,1.3-3.2c0.8-0.9,2-1.3,3.2-1.3
	c0,0,0,0,0,0l1279.7,3.7c2.4,0,4.4,2,4.4,4.4V1078c0,2.4-2,4.4-4.4,4.4s-4.4-2-4.4-4.4V386.5l-1270.7-3.7L342.1,1391h320.8
	c2.4,0,4.4,2,4.4,4.4S665.3,1399.9,662.8,1399.9z"/>
<g id="Board">
	<g id="Sticker_3">
		<polygon class="st2" points="789.2,779.1 806.6,940 977.5,940 968.4,779.1 		"/>
		<path class="st3" d="M977.5,944.4H806.6c-2.3,0-4.1-1.7-4.4-3.9l-17.5-160.9c-0.1-1.2,0.3-2.5,1.1-3.4c0.8-0.9,2-1.5,3.3-1.5
			h179.2c2.3,0,4.3,1.8,4.4,4.2l9.1,160.9c0.1,1.2-0.4,2.4-1.2,3.3C979.9,943.9,978.7,944.4,977.5,944.4z M810.6,935.6h162.2
			l-8.6-152H794.1L810.6,935.6z"/>
		<path class="st3" d="M878.3,901.3c-1.2,0-2.4-0.5-3.2-1.4l-25.1-27c-1.7-1.8-1.6-4.6,0.2-6.2c1.8-1.7,4.6-1.6,6.2,0.2l20.6,22.2
			l32.2-68c1-2.2,3.7-3.1,5.9-2.1c2.2,1,3.1,3.7,2.1,5.9l-35,73.9c-0.6,1.3-1.9,2.3-3.3,2.5C878.8,901.3,878.6,901.3,878.3,901.3z"
			/>
	</g>
	<g id="Sticker_2">
		<polygon class="st2" points="1274.4,441.6 1283.9,590.7 1455.8,590.7 1446.8,441.6 		"/>
		<path class="st3" d="M1455.8,595.1h-171.9c-2.3,0-4.3-1.8-4.4-4.1l-9.5-149.1c-0.1-1.2,0.4-2.4,1.2-3.3c0.8-0.9,2-1.4,3.2-1.4
			h172.4c2.3,0,4.3,1.8,4.4,4.1l9,149.1c0.1,1.2-0.4,2.4-1.2,3.3C1458.1,594.6,1457,595.1,1455.8,595.1z M1288,586.3h163l-8.5-140.3
			h-163.5L1288,586.3z"/>
		<path class="st3" d="M1400.6,559.4c-1.1,0-2.1-0.4-3-1.1l-71.1-64.5c-1.8-1.6-1.9-4.4-0.3-6.2c1.6-1.8,4.4-1.9,6.2-0.3l71.1,64.5
			c1.8,1.6,1.9,4.4,0.3,6.2C1403,558.9,1401.8,559.4,1400.6,559.4z"/>
		<path class="st3" d="M1329.5,559.4c-1.1,0-2.1-0.4-3-1.1c-1.8-1.6-2-4.4-0.3-6.2l71.1-79.2c1.6-1.8,4.4-2,6.2-0.3
			c1.8,1.6,2,4.4,0.3,6.2l-71.1,79.2C1331.9,558.9,1330.7,559.4,1329.5,559.4z"/>
	</g>
	<g id="Text">
		<polygon class="st2" points="581,1074.6 402.3,1074.6 417.6,1287.1 629,1288.3 619.2,1211.3 		"/>
		<path class="st3" d="M566.2,1164.8h-71.8c-2.4,0-4.4-2-4.4-4.4s2-4.4,4.4-4.4h71.8c2.4,0,4.4,2,4.4,4.4S568.6,1164.8,566.2,1164.8
			z"/>
		<path class="st3" d="M574.2,1213.9h-78.6c-2.4,0-4.4-2-4.4-4.4s2-4.4,4.4-4.4h78.6c2.4,0,4.4,2,4.4,4.4S576.7,1213.9,574.2,1213.9
			z"/>
	</g>
	<g id="Sticker_1">
		<polygon class="st2" points="380.4,462.8 393.6,664.5 581,664.5 581,472.2 		"/>
		<path class="st3" d="M581,668.9H393.6c-2.3,0-4.3-1.8-4.4-4.1L376,463.1c-0.1-1.3,0.4-2.5,1.3-3.4c0.9-0.9,2-1.5,3.4-1.3
			l200.6,9.3c2.4,0.1,4.2,2,4.2,4.4v192.3C585.4,666.9,583.4,668.9,581,668.9z M397.7,660.1h178.9V476.4l-191.4-8.9L397.7,660.1z"/>
		<path class="st3" d="M480.7,584.1c-0.7,0-1.3-0.1-2-0.5l-54.4-27c-1.4-0.7-2.3-2.1-2.4-3.6c-0.1-1.6,0.6-3.1,1.9-4l54.4-37.3
			c2-1.4,4.8-0.9,6.1,1.1c1.4,2,0.9,4.8-1.1,6.1l-48.2,33l47.6,23.7c2.2,1.1,3.1,3.7,2,5.9C483.9,583.2,482.3,584.1,480.7,584.1z"/>
		<path class="st3" d="M494.4,589.2c-0.7,0-1.5-0.2-2.2-0.6c-2.1-1.2-2.9-3.9-1.6-6l42.5-74.6c1.2-2.1,3.9-2.8,6-1.6
			c2.1,1.2,2.9,3.9,1.6,6L498.2,587C497.4,588.4,495.9,589.2,494.4,589.2z"/>
	</g>
	<g id="Web">
		<path class="st3" d="M977.5,1213.9c-2,0-3.8-1.4-4.3-3.4l-64.1-268.2c-0.6-2.4,0.9-4.8,3.3-5.3c2.4-0.6,4.8,0.9,5.3,3.3
			l64.1,268.2c0.6,2.4-0.9,4.8-3.3,5.3C978.2,1213.9,977.8,1213.9,977.5,1213.9z"/>
		<path class="st3" d="M877.7,783.5c-0.8,0-1.7-0.2-2.5-0.8L627.9,616.5l-152.7,20.9c-2.5,0.3-4.6-1.4-5-3.8c-0.3-2.4,1.4-4.6,3.8-5
			l154.3-21.2c1.1-0.1,2.2,0.1,3.1,0.7l245.4,165.1l249.7-292.1c1.3-1.5,3.4-2,5.2-1.1l90.6,42.4c2.2,1,3.2,3.7,2.1,5.9
			c-1,2.2-3.6,3.2-5.9,2.1l-87.5-40.9L881,782C880.2,783,878.9,783.5,877.7,783.5z"/>
		<path class="st3" d="M650,611.7c0,11.6-4.5,21.4-21,21.4c-11.6,0-21-9.8-21-21.4c0-11.6,9.4-21,21-21
			C640.6,590.7,650,600.1,650,611.7z"/>
		<path class="st4" d="M1150.9,483.8c0,11.6-4.5,21.4-21,21.4c-11.6,0-21-9.8-21-21.4s9.4-21,21-21S1150.9,472.2,1150.9,483.8z"/>
		<path class="st5" d="M1241.5,526.2c0,11.6-4.5,21.4-21,21.4c-11.6,0-21-9.8-21-21.4s9.4-21,21-21S1241.5,514.6,1241.5,526.2z"/>
		<path class="st5" d="M998.5,1230.5c0,11.6-4.5,21.4-21,21.4c-11.6,0-21-9.8-21-21.4c0-11.6,9.4-21,21-21
			C989.1,1209.5,998.5,1218.9,998.5,1230.5z"/>
		<path class="st4" d="M898.7,778.9c0,11.6-4.5,21.4-21,21.4c-11.6,0-21-9.8-21-21.4s9.4-21,21-21
			C889.3,757.9,898.7,767.3,898.7,778.9z"/>
		<path class="st4" d="M495.6,632.8c0,11.6-4.5,21.4-21,21.4c-11.6,0-21-9.8-21-21.4s9.4-21,21-21S495.6,621.3,495.6,632.8z"/>
		<path class="st3" d="M621.2,827.4c-0.1,0-0.1,0-0.2,0c-2.4-0.1-4.3-2.1-4.2-4.6l7.8-211.1c0.1-2.4,2.1-4.2,4.6-4.3
			c2.4,0.1,4.3,2.1,4.2,4.6l-7.8,211.1C625.5,825.5,623.6,827.4,621.2,827.4z"/>
		<path class="st4" d="M642.2,843.9c0,11.6-4.5,21.4-21,21.4c-11.6,0-21-9.8-21-21.4s9.4-21,21-21
			C632.8,823,642.2,832.4,642.2,843.9z"/>
	</g>
</g>
<g id="Woman">
	<g id="Head">
		<path class="st3" d="M1197.3,888.7c-4,5.3-10.8,11.7-18,8.4c-5.2-2.3-9.3,5.4-4.1,7.8c11,5,21.8-1.2,28.5-10.2
			C1207.1,890.2,1200.7,884.1,1197.3,888.7z"/>
		<path class="st3" d="M1132.9,865.3c-0.3,0-0.6,0-0.9-0.1c-11.9-2.3-21.3-8-25.4-15.2c-2.5-4.5-2.9-9.5-1-14.4
			c5.5-14.6,31.9-12.8,34.8-12.5c2.4,0.2,4.2,2.3,4,4.8c-0.2,2.4-2.4,4.2-4.8,4c-7.3-0.6-23.3,0.2-25.8,6.8c-0.9,2.5-0.8,4.8,0.5,7
			c2.7,4.8,10.3,9,19.3,10.8c2.4,0.5,4,2.8,3.5,5.2C1136.8,863.9,1135,865.3,1132.9,865.3z"/>
		<path class="st3" d="M1194.8,789.4l-1.7,8.7c-2.2,11.2-19.5,7.8-17.3-3.4l1.7-8.7C1179.6,774.8,1196.9,778.2,1194.8,789.4z"/>
		<path class="st3" d="M1188.2,735.2c4.8,2.5,9.2,5.8,14.2,7.9c5.2,2.2,2.8,10.7-2.4,8.5c-5.7-2.4-10.8-6-16.3-8.8
			C1178.6,740.2,1183.2,732.6,1188.2,735.2z"/>
		<path class="st3" d="M1255.2,1032.3c0-1.2-0.5-2.4-1.3-3.2c-0.9-0.8-2-1.2-3.2-1.3c-0.7,0.1-68.1,2-99.7-25.6
			c-25.7-22.4-29.1-57.8-13.6-140.5c0.4-2.4-1.1-4.7-3.5-5.2c-2.4-0.5-4.7,1.1-5.2,3.5c-14,74.9-15.5,120.8,16.5,148.8
			c14.7,12.8,35.8,19.8,55.3,23.5l17.7,43.3c0.1,0.4,0.3,0.8,0.5,1.1l13.8,33.6c2.5-1.8,4.9-3.5,7.4-5.2l-11.4-27.8
			C1249.1,1069.9,1255,1045.2,1255.2,1032.3z"/>
		<path class="st3" d="M1505.4,896.9c7.5-67.1,8.1-139.6-60-135.9c-4.1-31.4-18.7-62.4-55-84.3c-19.8-14-46.9-24.3-81.9-31.1
			c-85.4-16.8-136.1,9.3-150.6,77.5c-3.5,16.3-6.6,30.7-9.5,44.1c-4.6,21-8.7,39.6-12.7,59.7c-0.5,2.4,1.1,4.7,3.5,5.2
			c2.4,0.5,4.7-1.1,5.2-3.5c4-20,8.1-38.6,12.6-59.5c2.9-13.4,6.1-27.8,9.6-44.1c5.6-26.2,16.7-45.5,33.5-58
			c3.4,61.4,69.9,133.5,77.4,142.5c1.6,1.9,3.8,4.9,6.2,5.2c25.9,3.7,43.5,11.2,50.9,21.7c3.6,5.1,4.8,10.7,3.6,16.9
			c-0.7,3.7-3.1,10.7-10.8,15.7c-8,5.2-19.5,6.4-33.2,3.6c-0.1-0.1-0.3-0.1-0.4-0.2c-0.4-0.1-0.8-0.2-1.2-0.2
			c-0.3-0.1-0.6-0.1-1-0.2c-2.3-0.6-4.7,0.9-5.3,3.3c-0.4,1.6,0.2,3.3,1.4,4.3c-4.8,33.2-0.5,69.3,26.1,92.7
			c16.3,14.3,39.7,20.4,60.1,13.9c-5.6,72.9,16.7,136.7,86,134.8C1560.6,1118,1497.3,969.4,1505.4,896.9z"/>
	</g>
	<g id="Body">
		<path class="st3" d="M1172.9,1646c-2,0-3.7-1.3-4.3-3.3l-32.7-124.8c-0.6-2.4,0.8-4.8,3.1-5.4c2.4-0.6,4.8,0.8,5.4,3.1l32.7,124.8
			c0.6,2.4-0.8,4.8-3.1,5.4C1173.6,1646,1173.2,1646,1172.9,1646z"/>
		<path class="st3" d="M1214.8,1449.3c5.1,53.3-49.3,164.2-49.3,164.2l-25.4-90.9L1214.8,1449.3z"/>
		<path class="st3" d="M1644.9,1617.9c-1.9,0-3.7-1.3-4.3-3.2L1540.4,1253c-0.7-2.4,0.7-4.8,3.1-5.4c2.3-0.7,4.8,0.7,5.4,3.1
			l100.3,361.6c0.7,2.4-0.7,4.8-3.1,5.4C1645.7,1617.9,1645.3,1617.9,1644.9,1617.9z"/>
	</g>
	<g id="Hand_2">
		<path class="st3" d="M1642.7,1593.5c-1.8,0-3.5-1.1-4.2-2.9c-0.8-2.3,0.4-4.8,2.7-5.6c2.4-0.8,237.9-86,231.8-237.2
			c-2.7-65.1-41.8-125.2-116.4-178.6c-2.4-1.8-4.8-3.4-7.2-5.1c-85-58.7-190.9-93-246.5-108.3c-2.4-0.6-3.7-3.1-3.1-5.4
			c0.6-2.4,3.1-3.7,5.4-3.1c56.1,15.4,163.1,50.2,249.1,109.5c2.5,1.7,5,3.4,7.4,5.2c76.9,55,117.3,117.4,120.1,185.3
			c6.4,157.8-227.7,242.4-237.6,245.9C1643.7,1593.4,1643.2,1593.5,1642.7,1593.5z"/>
		<path class="st3" d="M1594.8,1437.1c-2.1,0-3.9-1.5-4.3-3.6c-0.5-2.4,1.1-4.7,3.5-5.2c41.7-7.9,68.3-25,75-48
			c5-17.3-2.2-36.5-19.7-52.8c-2-1.8-4.1-3.7-6.4-5.4c-20.7-16.2-50.2-26.6-83.1-29.4c-2.4-0.2-4.2-2.3-4-4.8c0.2-2.4,2.3-4.2,4.8-4
			c34.6,3,65.7,14,87.7,31.2c2.5,1.9,4.8,3.9,7.1,6c20,18.7,28.1,41.2,22.2,61.7c-7.6,26.4-36.7,45.7-81.8,54.3
			C1595.3,1437.1,1595,1437.1,1594.8,1437.1z"/>
		<path class="st3" d="M1759.2,1165.5c-25.4,59-61.6,112.9-106.9,158.8c-2.1-1.9-4.3-3.9-6.8-5.7c45.2-45.8,81.2-99.5,106.4-158.2
			C1754.3,1162.1,1756.8,1163.7,1759.2,1165.5z"/>
		<path class="st3" d="M1543.5,1247.6c38,0,43.4,43.9,43.4,43.9l-36.3-4.3L1543.5,1247.6z"/>
	</g>
	<g id="Hand">
		<path class="st3" d="M915.8,1377.7c-11.2,0-21.7-2.1-31.6-6.3c-35.6-15.2-62.2-57.8-79-126.6c-12-49-21.8-93.2-30.5-132.1
			c-24.2-109-40.2-181-73.4-222.8c-30.7-38.6-52.6-50.4-62.9-48.6c-2.7,0.5-4.6,1.9-5.4,4.4c-2.2,6.5,2.8,10.8,11.8,18
			c8.6,6.8,18.3,14.4,18.4,27c0.2,34.6-18.8,40-24.6,40.9c-14.5,2-29.7-8.5-34-23.5c-6.7-23.1-1.6-37.7,1.8-47.4
			c3-8.5,3.2-10.2-0.3-12.9c-1.3-1-2.4-1.1-4-0.5c-9.4,4-21.3,30.6-22.9,43.9c-2,16.6-1.7,36.2,28.2,58.6c1.9,1.5,2.4,4.2,0.9,6.2
			c-1.5,1.9-4.2,2.4-6.2,0.9c-32.1-24.1-34.1-47.2-31.7-66.7c1.6-14.1,13.9-44.9,28.2-51c4.5-1.9,9-1.3,12.8,1.6
			c8.9,6.8,6,15,3.2,22.8c-3.2,9.1-7.6,21.5-1.7,42c3.1,10.7,14.2,18.5,24.3,17.2c10.9-1.6,17.1-13.3,17-32.1c0-8.3-7.3-14-15-20.1
			c-8.9-7-19.1-15-14.7-27.8c1.9-5.5,6.3-9.2,12.2-10.2c9.9-1.7,32.2,2.8,71.3,51.8c34.5,43.4,50.7,116.2,75.1,226.3
			c8.7,38.9,18.5,83,30.5,132c16.1,66,41,106.5,73.9,120.6c25.2,10.8,55.9,6,91.2-14.4c2.8-1.6,5.5-3.2,8.3-5.1
			c11.6-7.3,23.7-16.2,36.2-26.6c21.2-17.7,42.1-43.8,64.2-71.4c62-77.5,139.2-173.9,292.7-188.3c2.5-0.1,4.6,1.6,4.8,4
			c0.2,2.4-1.6,4.6-4,4.8c-149.8,14.1-225.7,108.9-286.7,185c-22.4,28-43.6,54.5-65.4,72.7c-12.8,10.6-25.2,19.8-37.1,27.2
			c-2.9,1.9-5.8,3.7-8.7,5.3C958.8,1370.6,936.3,1377.7,915.8,1377.7z"/>
		<path class="st3" d="M574.2,964.8c-1.4,0-2.8-0.7-3.7-1.9c-21.1-30.9-28.4-58-20.4-76.4c4.7-10.9,14.4-18,28.1-20.6
			c0.7-0.1,1.4-0.3,2.1-0.4c2.4-0.4,4.7,1.3,5,3.7c0.4,2.4-1.3,4.7-3.7,5c-11.7,1.8-19.8,7.3-23.5,15.8c-6.6,15.2,0.6,40,19.6,67.9
			c1.4,2,0.9,4.8-1.2,6.1C575.9,964.6,575.1,964.8,574.2,964.8z"/>
		<path class="st3" d="M558.2,984.6c-1.4,0-2.8-0.7-3.7-2c-17.6-26.8-28.7-63.4-6.8-85.9c1.7-1.7,4.5-1.8,6.2-0.1
			c1.7,1.7,1.8,4.5,0.1,6.2c-18.3,18.8-7.9,51,7.8,74.9c1.3,2,0.8,4.8-1.3,6.1C559.9,984.4,559,984.6,558.2,984.6z"/>
		<path class="st3" d="M896.8,1603.9c-150.9,0-246.9-169.4-272.8-332.7c-15.9-99.9-43.6-187.8-82.4-261.3
			c-22.7-43.1-21.4-51.6-5.2-72.6c1.5-1.9,4.3-2.3,6.2-0.8c1.9,1.5,2.3,4.3,0.8,6.2c-13.1,16.9-16.2,21,6,63.1
			c39.3,74.3,67.3,163.1,83.3,264c26.4,165.8,125.7,338,281.3,324.5c59.6-5.1,115.9-21,167.4-47.2c2.9-1.4,5.7-2.8,8.4-4.3
			c89-47.5,132.9-110.4,133.3-111.1c1.4-2,4.1-2.5,6.1-1.1c2,1.4,2.5,4.1,1.1,6.1c-0.4,0.6-45.4,65.3-136.4,113.9
			c-2.8,1.5-5.6,3-8.6,4.4c-52.4,26.6-109.8,42.8-170.5,48C908.7,1603.6,902.7,1603.9,896.8,1603.9z"/>
		<path class="st3" d="M1091.8,1546.7c-2.7,1.5-5.6,2.9-8.5,4.3c-23.8-20.3-44.3-44.5-60.7-71.6c-20.6-34.2-39.1-81.5-41.5-126.8
			c2.8-1.6,5.7-3.3,8.6-5.2c1.1,47.2,21.6,97.6,43.9,132.9C1049.6,1505.5,1069.3,1527.9,1091.8,1546.7z"/>
	</g>
</g>
</svg>
