<svg xmlns="http://www.w3.org/2000/svg" xmlns:xlink="http://www.w3.org/1999/xlink" version="1.1" id="Layer_1" x="0px" y="0px" viewBox="0 0 1436.7 579.2" style="enable-background:new 0 0 1436.7 579.2;" xml:space="preserve">

<g id="Group_2947" transform="translate(-21776.766 3684.737)">
	<g id="Group_2946">
		
			<linearGradient id="Path_8553_00000096778808400028143150000008856749288322789793_" gradientUnits="userSpaceOnUse" x1="21793.6211" y1="-3183.2078" x2="21793.2598" y2="-3183.3069" gradientTransform="matrix(-229.1806 213.7144 197.8129 212.1284 5646189 -3985455.75)">
			<stop offset="0" style="stop-color:#1A745F"/>
			<stop offset="1" style="stop-color:#1C8D5D"/>
		</linearGradient>
		<path id="Path_8553" style="fill: orange;" d="M22103-3212.7    l-328.5,107.2l0.6-198L22103-3212.7z"/>
		
			<linearGradient id="Path_8560_00000115500127726862746540000005657166178484600456_" gradientUnits="userSpaceOnUse" x1="21793.3848" y1="-3181.6135" x2="21793.3848" y2="-3182.6135" gradientTransform="matrix(1445.0969 -24.5666 -9.9404 -584.728 -31502690 -1328691.375)">
			<stop offset="0" style="stop-color:#349F6D"/>
			<stop offset="1" style="stop-color:#287256"/>
		</linearGradient>
		<path id="Path_8560" style="fill: #ffa603;" d="M21775.1-3691    l1438.7,11.8l-0.1,277.6l-510.9,199.3l-215.5,84.1l-712.3-173.1L21775.1-3691z"/>
		
			<linearGradient id="Path_8769_00000026845316452118157030000011403236287489377188_" gradientUnits="userSpaceOnUse" x1="21793.1719" y1="-3181.7742" x2="21793.1719" y2="-3182.7742" gradientTransform="matrix(613.5187 572.1155 255.9294 -274.4507 -12533543 -13345128)">
			<stop offset="0" style="stop-color:#34DD89"/>
			<stop offset="0" style="stop-color:#30CB7F"/>
			<stop offset="1" style="stop-color:#237458"/>
		</linearGradient>
		<path id="Path_8769" style="fill: #ffa501;" d="M22657.7-3685    l-554-3.5l760.5,414.5L22657.7-3685z"/>
		<path id="Path_8764" class="st3" d="M22487.2-3118.2l-386.2-93.9l2.7-476.5L22487.2-3118.2z" style="&#10;    fill: #c18415;&#10;"/>
		
			<linearGradient id="Path_8552_00000145775871861580561260000004801895045601183635_" gradientUnits="userSpaceOnUse" x1="21792.418" y1="-3181.3196" x2="21794.6309" y2="-3183.4966" gradientTransform="matrix(347.6863 112.9701 74.9403 -230.6426 -7315597.5 -3199134.5)">
			<stop offset="0" style="stop-color:#3C6259"/>
			<stop offset="0" style="stop-color:#3AB472"/>
			<stop offset="1" style="stop-color:#4BB277"/>
		</linearGradient>
		<path id="Path_8552" style="fill: orange;" d="M23214.4-3415.3v247    l-350-105.8L23214.4-3415.3z"/>
		
			<linearGradient id="Path_8771_00000162343332759547552850000015036381032936368016_" gradientUnits="userSpaceOnUse" x1="21794.873" y1="-3182.5635" x2="21794.7461" y2="-3183.1726" gradientTransform="matrix(-135.4204 -126.2815 -368.4298 395.0926 1801960.5 4006307)">
			<stop offset="0" style="stop-color:#20845E"/>
			<stop offset="1" style="stop-color:#188658"/>
		</linearGradient>
		<path id="Path_8771" style="fill: orange;" d="M23213.7-3686.6    l-349.4,412.6l350.5-141.2L23213.7-3686.6z"/>
		
			<linearGradient id="Path_8765_00000110443132529251835420000016472190275319960475_" gradientUnits="userSpaceOnUse" x1="21793.2812" y1="-3182.3174" x2="21793.1934" y2="-3183.4683" gradientTransform="matrix(-279.4642 260.6046 561.3398 601.9633 7899526 -3766931.5)">
			<stop offset="0" style="stop-color:#166A40"/>
			<stop offset="1" style="stop-color:#14B77F"/>
		</linearGradient>
		<path id="Path_8765" style="fill: #e39300;" d="M22487.2-3118.2    l-383.5-570.3l761.9,415L22487.2-3118.2z"/>
		<path id="Path_8766" class="st7" d="M22587.1-3159.5l277.2-114.6l203.1,58.6L22587.1-3159.5z" style="&#10;    fill: orange;&#10;"/>
		
			<linearGradient id="Path_8767_00000018213913400299485210000013226177496672037023_" gradientUnits="userSpaceOnUse" x1="21793.2305" y1="-3181.5659" x2="21792.9824" y2="-3181.9138" gradientTransform="matrix(555.961 9.4513 7.1053 -417.961 -12070654 -1539393.75)">
			<stop offset="0" style="stop-color:#37B26B"/>
			<stop offset="1" style="stop-color:#239A60"/>
		</linearGradient>
		<path id="Path_8767" style="fill: #c47f00;" d="M22864.5-3273.8    l348.9-412.1l-556.1,0.7L22864.5-3273.8z"/>
	</g>
</g>
</svg>