<?xml version="1.0" encoding="utf-8"?>
<!-- Generator: Adobe Illustrator 18.1.1, SVG Export Plug-In . SVG Version: 6.00 Build 0)  -->
<!DOCTYPE svg PUBLIC "-//W3C//DTD SVG 1.1//EN" "http://www.w3.org/Graphics/SVG/1.1/DTD/svg11.dtd">
<svg version="1.1" id="Laag_1" xmlns="http://www.w3.org/2000/svg" xmlns:xlink="http://www.w3.org/1999/xlink" x="0px" y="0px"
	 viewBox="0 754.6 1366 170.4" enable-background="new 0 754.6 1366 170.4" xml:space="preserve">
<rect y="754.6" fill="#DD0000" width="1366" height="170.4"/>
<g>
	<path fill="#FFFFFF" d="M103.3,815.7h2.6c6,0,11.2,0,11.2,7.7c0,7.7-6,7.7-11.2,7.7h-2.6V815.7z M87.8,863.9h15.5v-19.8h8.6
		c13.8,0,21.5-6,21.5-20.7c0-13.8-9.5-19.8-22.4-19.8H86.9v60.3H87.8z"/>
	<path fill="#FFFFFF" d="M155.8,829.5L155.8,829.5c2.6-5.2,7.7-7.7,13.8-7.7h2.6v13.8c-1.7-0.9-4.3-1.7-6-1.7
		c-7.7,0-10.3,5.2-10.3,12.9v16.4h-14.6v-40.5h14.6L155.8,829.5L155.8,829.5z"/>
	<path fill="#FFFFFF" d="M199.7,833.8c6,0,9.5,4.3,9.5,9.5s-3.4,9.5-9.5,9.5s-9.5-4.3-9.5-9.5S193.7,833.8,199.7,833.8z
		 M199.7,820.9c-12.9,0-25,7.7-25,22.4c0,13.8,12.1,22.4,25,22.4s25-7.7,25-22.4C224.7,829.5,212.6,820.9,199.7,820.9z"/>
	<path fill="#FFFFFF" d="M252.2,844.1l9.5-21.5H278l-21.5,41.3H247l-21.5-41.3h16.4L252.2,844.1z"/>
	<path fill="#FFFFFF" d="M297.8,863.9h-14.6v-41.3h14.6V863.9z M298.7,806.2c0,4.3-3.4,8.6-8.6,8.6c-4.3,0-8.6-3.4-8.6-8.6
		c0-5.2,3.4-8.6,8.6-8.6C294.4,798.5,298.7,801.9,298.7,806.2z"/>
	<path fill="#FFFFFF" d="M322.8,827.7L322.8,827.7c3.4-5.2,7.7-6.9,13.8-6.9c11.2,0,15.5,6.9,15.5,17.2v25.8h-14.6V844
		c0-4.3,0.9-11.2-6.9-11.2c-6,0-7.7,4.3-7.7,9.5v21.5h-14.6v-41.3h14.6L322.8,827.7L322.8,827.7z"/>
	<path fill="#FFFFFF" d="M392.5,836.4c-2.6-1.7-5.2-2.6-7.7-2.6c-6,0-10.3,4.3-10.3,10.3s4.3,10.3,10.3,10.3c2.6,0,5.2-0.9,7.7-2.6
		v12.1c-3.4,1.7-6.9,2.6-10.3,2.6c-12.1,0-22.4-9.5-22.4-21.5c0-12.9,10.3-22.4,23.2-22.4c3.4,0,6.9,0.9,9.5,2.6L392.5,836.4
		L392.5,836.4z"/>
	<path fill="#FFFFFF" d="M416.6,863.9H402v-41.3h14.6V863.9z M417.5,806.2c0,4.3-3.4,8.6-8.6,8.6c-4.3,0-8.6-3.4-8.6-8.6
		c0-5.2,3.4-8.6,8.6-8.6C414,798.5,417.5,801.9,417.5,806.2z"/>
	<path fill="#FFFFFF" d="M439,837.2c0.9-4.3,4.3-6.9,8.6-6.9s7.7,2.6,8.6,6.9H439z M470,844.1c0-13.8-8.6-23.2-22.4-23.2
		s-23.2,8.6-23.2,22.4c0,14.6,10.3,22.4,24.1,22.4c9.5,0,18.9-4.3,21.5-14.6h-13.8c-1.7,2.6-4.3,3.4-6.9,3.4c-6,0-9.5-3.4-9.5-9.5
		h31v-0.9H470L470,844.1z"/>
	<path fill="#FFFFFF" d="M506.1,802.8h15.5l29.3,37.9l0,0v-37.9h15.5v61.1h-15.5l-29.3-37l0,0v37h-15.5L506.1,802.8L506.1,802.8z"/>
	<path fill="#FFFFFF" d="M600.8,833.8c6,0,9.5,4.3,9.5,9.5s-3.4,9.5-9.5,9.5c-6,0-9.5-4.3-9.5-9.5S594.8,833.8,600.8,833.8z
		 M600.8,820.9c-12.9,0-25,7.7-25,22.4c0,13.8,12.1,22.4,25,22.4s25-7.7,25-22.4C625.8,829.5,614.6,820.9,600.8,820.9z"/>
	<path fill="#FFFFFF" d="M656.7,833.8c6,0,9.5,4.3,9.5,9.5s-3.4,9.5-9.5,9.5c-6,0-9.5-4.3-9.5-9.5
		C647.3,838.1,650.7,833.8,656.7,833.8z M656.7,820.9c-13.8,0-25,7.7-25,22.4c0,13.8,12.1,22.4,25,22.4s25-7.7,25-22.4
		C681.7,829.5,669.7,820.9,656.7,820.9z"/>
	<path fill="#FFFFFF" d="M704.9,829.5L704.9,829.5c2.6-5.2,7.7-7.7,13.8-7.7h2.6v13.8c-1.7-0.9-4.3-1.7-6-1.7
		c-7.7,0-10.3,5.2-10.3,12.9v16.4h-14.6v-40.5H705L704.9,829.5L704.9,829.5z"/>
	<path fill="#FFFFFF" d="M749.7,833.8c6,0,9.5,4.3,9.5,9.5s-3.4,9.5-9.5,9.5c-6,0-9.5-4.3-9.5-9.5S743.7,833.8,749.7,833.8z
		 M759.2,863.9h14.6v-67.1h-14.6v29.3c-3.4-3.4-7.7-5.2-12.9-5.2c-12.1,0-20.7,10.3-20.7,22.4c0,12.1,8.6,22.4,20.7,22.4
		c5.2,0,10.3-1.7,12.9-6l0,0V863.9z"/>
	<path fill="#FFFFFF" d="M806.5,832.1v12.1h-23.2v-12.1H806.5z"/>
	<path fill="#FFFFFF" d="M832.3,851.9h1.7c4.3,0,12.9,0,12.9-6.9c0-7.7-7.7-6.9-12.9-6.9h-1.7V851.9z M816,863.9v-61.1h22.4
		c11.2,0,18.1,4.3,18.1,15.5c0,5.2-1.7,10.3-6.9,12.1l0,0c8.6,0.9,12.1,6.9,12.1,15.5c0,12.9-11.2,17.2-22.4,17.2H816V863.9z
		 M832.3,826.9h1.7c4.3,0,8.6-0.9,8.6-6c0-5.1-5.2-6-9.5-6h-0.9v12H832.3z"/>
	<path fill="#FFFFFF" d="M886.6,829.5L886.6,829.5c2.6-5.2,7.7-7.7,13.8-7.7h2.6v13.8c-1.7-0.9-4.3-1.7-6-1.7
		c-7.7,0-10.3,5.2-10.3,12.9v16.4h-14.6v-40.5h14.6L886.6,829.5L886.6,829.5z"/>
	<path fill="#FFFFFF" d="M930.5,833.8c6,0,9.5,4.3,9.5,9.5s-3.4,9.5-9.5,9.5c-6,0-9.5-4.3-9.5-9.5S924.4,833.8,930.5,833.8z
		 M954.6,822.6H940v4.3c-3.4-3.4-7.7-5.2-12.9-5.2c-12.1,0-20.7,10.3-20.7,22.4c0,12.1,8.6,22.4,20.7,22.4c5.2,0,10.3-1.7,12.9-6
		l0,0v4.3h14.6V822.6z"/>
	<path fill="#FFFFFF" d="M988.1,833.8c6,0,9.5,4.3,9.5,9.5s-3.4,9.5-9.5,9.5c-6,0-9.5-4.3-9.5-9.5
		C978.7,838.1,982.1,833.8,988.1,833.8z M964,863.9h14.6v-4.3l0,0c2.6,4.3,7.7,6,12.9,6c12.1,0,20.7-10.3,20.7-22.4
		s-8.6-22.4-20.7-22.4c-5.2,0-9.5,1.7-12.9,5.2v-29.3H964V863.9z"/>
	<path fill="#FFFFFF" d="M1042.4,833.8c6,0,9.5,4.3,9.5,9.5s-3.4,9.5-9.5,9.5c-6,0-9.5-4.3-9.5-9.5S1036.3,833.8,1042.4,833.8z
		 M1066.5,822.6h-14.6v4.3c-3.4-3.4-7.7-5.2-12.9-5.2c-12.1,0-20.7,10.3-20.7,22.4c0,12.1,8.6,22.4,20.7,22.4c5.2,0,10.3-1.7,12.9-6
		l0,0v4.3h14.6V822.6z"/>
	<path fill="#FFFFFF" d="M1091.4,827.7L1091.4,827.7c3.4-5.2,7.7-6.9,13.8-6.9c11.2,0,15.5,6.9,15.5,17.2v25.8h-14.6V844
		c0-4.3,0.9-11.2-6.9-11.2c-6,0-7.7,4.3-7.7,9.5v21.5h-14.6v-41.3h14.6v5.2H1091.4z"/>
	<path fill="#FFFFFF" d="M1147.4,863.9h-14.6v-29.3h-5.2v-12.1h5.2v-12.9h14.6v12.1h8.6v12.1h-8.6V863.9z"/>
</g>
</svg>
