<?xml version="1.0" encoding="utf-8"?>
<!-- Generator: Adobe Illustrator 21.0.2, SVG Export Plug-In . SVG Version: 6.00 Build 0)  -->
<svg version="1.1" id="Layer_1" xmlns="http://www.w3.org/2000/svg" xmlns:xlink="http://www.w3.org/1999/xlink" x="0px" y="0px"
	 width="180px" height="160px" viewBox="0 0 180 160" style="enable-background:new 0 0 180 160;" xml:space="preserve">
<style type="text/css">
	.st0{fill:#C39E06;}
	.st1{fill:#FDB714;}
	.st2{fill:#D4B558;}
	.st3{fill:#D3A60B;}
	.st4{fill:#E6E6E7;}
	.st5{fill:#C08D0D;}
	.st6{fill:none;stroke:#C08D0D;stroke-width:5.500000e-02;}
	.st7{fill:#232020;}
	.st8{fill:#4D4D4F;}
</style>
<g>
	<polygon class="st0" points="94.5,68.1 92.6,68.2 92.9,68.1 94.8,67.9 	"/>
	<path class="st0" d="M93.5,50.6l1.9-0.1c-0.3,1.5-0.6,6.6-0.3,7.9c0.3,1.2,0.1,8.9-0.3,9.6l-1.9,0.1c0.5-0.7,0.6-8.3,0.3-9.6
		C92.9,57.3,93.2,52.1,93.5,50.6"/>
	<path class="st0" d="M93.2,38l1.9-0.1c-0.1,0.8,0,1.2,0.1,1.4l-1.9,0.1C93.2,39.1,93.1,38.7,93.2,38"/>
	<path class="st0" d="M95.7,43.1l1.9-0.1l-0.4,0.1c-0.7,0.3-1.4,4.8-1.7,6.6c-0.1,0.4-0.1,0.6-0.1,0.8l-1.9,0.1
		c0-0.2,0.1-0.5,0.1-0.8c0.3-1.7,1-6.3,1.7-6.6L95.7,43.1z"/>
	<path class="st0" d="M93.4,39.3l1.9-0.1l0.3,0.2c0.3,0.2,1,0.4,2.5,0.6l-1.9,0.1c-1.4-0.2-2.1-0.4-2.4-0.6L93.4,39.3z"/>
	<path class="st0" d="M91.6,29.9l1.9-0.1l0.5,0c0.6,0,1.1,0.2,1.6,0.4c0.7,0.4,1.2,0.9,1.6,1.7c0.4,0.7,0.5,1.5,0.4,2.3
		c-0.2,2.1-2,3.3-2.5,3.6L93.2,38c0.5-0.3,2.3-1.5,2.5-3.6c0.1-0.8-0.1-1.6-0.4-2.3c-0.4-0.7-0.9-1.3-1.6-1.7
		c-0.5-0.3-1-0.4-1.6-0.4L91.6,29.9z"/>
	<path class="st0" d="M96.1,40.2L98,40c1.7,0.3,3.4,1.2,3.8,1.5l-1.9,0.1C99.5,41.4,97.9,40.5,96.1,40.2"/>
	<path class="st0" d="M99.9,41.6l1.9-0.1c0.4,0.2,2.2,0.6,3.3,0.9c0.8,0.2,1.1,0.3,1.2,0.3l-1.9,0.1c-0.1-0.1-0.4-0.1-1.2-0.3
		C102.1,42.3,100.3,41.8,99.9,41.6"/>
	<path class="st0" d="M104.5,42.9l1.9-0.1c0.1,0,0.5,0.1,1.4,0.4c0.8,0.2,1.8,0.6,2.7,1.1c1.1,0.5,2.2,0.8,3,1
		c0.5,0.1,0.9,0.2,1.2,0.3l-1.9,0.1c-0.3-0.1-0.7-0.2-1.2-0.3c-0.8-0.2-1.9-0.5-3-1c-0.9-0.5-2-0.8-2.7-1.1
		C105,43,104.6,42.9,104.5,42.9"/>
	<path class="st0" d="M113.9,81.9l-1.9,0.1l0.2-0.1c0.6-0.5,2.6-8.8,2.6-10.4l1.9-0.1c0,1.5-2,9.8-2.6,10.3L113.9,81.9z"/>
	<path class="st0" d="M119.4,47.5l-1.9,0.1l-0.3,0c-1-0.1-2.2-0.8-3.2-1.3c-0.5-0.3-0.9-0.5-1.2-0.6l1.9-0.1
		c0.3,0.1,0.7,0.3,1.2,0.6c1,0.5,2.2,1.2,3.2,1.3L119.4,47.5z"/>
	<path class="st0" d="M120.2,47.2l1.9-0.1c-0.4,1-0.4,1.6-0.3,1.9l-1.9,0.1C119.9,48.8,119.8,48.2,120.2,47.2"/>
	<path class="st0" d="M120.8,54.5l1.9-0.1c-0.7,0-2.6,5-3.3,7.1c-0.2,0.5-0.3,0.8-0.4,1c-0.6,1.5-2.3,7.4-2.2,9l-1.9,0.1
		c0-1.6,1.6-7.5,2.2-9c0.1-0.2,0.2-0.6,0.4-1C118.2,59.5,120,54.6,120.8,54.5"/>
	<path class="st0" d="M119.9,49.1l1.9-0.1c0.1,0.2,0.4,0.9,2.3,2.1l-1.9,0.1C120.3,50,120,49.3,119.9,49.1"/>
	<path class="st0" d="M119.9,36.3c0.6,0,1.3-0.1,1.9-0.1c0.5,0,1,0.1,1.5,0.3l-1.9,0.1C120.9,36.4,120.3,36.3,119.9,36.3"/>
	<path class="st0" d="M134.8,85l1.9-0.1c-0.9,1.4-3.5,7.1-3.8,8.8c-0.3,1.7-3.7,9.5-4.3,9.7l-1.9,0.1c0.7-0.2,4.1-8,4.3-9.7
		C131.3,92,133.9,86.3,134.8,85"/>
	<path class="st0" d="M128.6,103.3L128.6,103.3l-1.9,0.1l0,0C127.2,103.4,128,103.4,128.6,103.3"/>
	<path class="st0" d="M122.3,51.2l1.9-0.1c1.2,0.9,1.5,1.6,1.7,2.1l0.2,0.4l-1.9,0.1l-0.2-0.4C123.8,52.9,123.5,52.2,122.3,51.2"/>
	<path class="st0" d="M121.4,36.6l1.9-0.1c1.1,0.6,1.8,1.7,2.2,3.1c0.4,1.3,0.4,2.8,0,4.1c-0.7,2.3-2.6,3.1-3.3,3.4l-1.9,0.1
		c0.8-0.2,2.7-1,3.3-3.4c0.4-1.3,0.4-2.8,0-4.1C123.2,38.3,122.4,37.2,121.4,36.6"/>
	<path class="st0" d="M124.2,53.8l1.9-0.1c0.2,0.2,1.4,1.3,2.4,2.1l-1.9,0.1C125.6,55.1,124.4,54,124.2,53.8"/>
	<polygon class="st0" points="126.6,55.9 128.5,55.8 129.5,56.7 127.6,56.8 	"/>
	<path class="st0" d="M127.6,56.8l1.9-0.1c0.3,0.2,0.4,0.4,0.5,0.4l-1.9,0.1C128,57.2,127.9,57,127.6,56.8"/>
	<path class="st0" d="M140.2,68c-0.6,0-1.3,0.1-1.9,0.1l-0.3-0.1l-0.2-0.2c-0.9-0.7-1.9-2.1-2.7-3.3c-0.4-0.6-0.8-1.2-1.1-1.5
		c-0.3-0.3-0.5-0.5-0.7-0.6c-0.4-0.2-0.7-0.5-1.6-1.7c-0.8-1-1.7-2-2.4-2.6c-0.7-0.7-1.1-0.9-1.2-1l1.9-0.1c0.2,0.1,0.5,0.4,1.2,1
		c0.7,0.6,1.6,1.6,2.4,2.6c0.9,1.2,1.2,1.4,1.6,1.7c0.2,0.1,0.4,0.3,0.7,0.6c0.3,0.3,0.7,0.8,1.1,1.5c0.8,1.1,1.8,2.6,2.7,3.3
		l0.2,0.2L140.2,68z"/>
	<path class="st0" d="M139.6,78l1.9-0.1c-0.8,0.1-3.1,4.1-4.2,5.9c-0.3,0.5-0.5,0.9-0.7,1.1l-1.9,0.1c0.1-0.2,0.4-0.6,0.7-1.1
		C136.5,82.1,138.8,78,139.6,78"/>
	<path class="st0" d="M140.6,69.1l1.9-0.1c-0.6,1-0.7,1.7-0.7,2.2c0,0.5,0.4,1.9,2,4.4l-2.1,0c-1.7-2.5-1.9-3.8-1.9-4.3
		C140,70.8,140,70.1,140.6,69.1"/>
	<path class="st0" d="M141.9,75.5l1.9-0.1c0.9,1.7,1.2,4.9,1.4,7c0.1,0.7,0.1,1.4,0.2,1.6l-1.9,0.1c0-0.2-0.1-0.8-0.2-1.6
		C143,80.3,142.7,77.2,141.9,75.5"/>
	<path class="st0" d="M143.4,84l1.9-0.1c0.2,0.5,0.5,2.2,0.7,3.1c0.4,1.8,0.5,2.3,0.5,2.6l-1.9,0.1c0-0.2-0.1-0.8-0.5-2.6
		C144,86.2,143.6,84.5,143.4,84"/>
	<path class="st0" d="M144.7,89.7l1.9-0.1c0.4,3.8,0.1,5.8,0.2,6.8l-1.6,0.5C145,94.4,144.9,92,144.7,89.7"/>
	<path class="st0" d="M141.1,55.7l1.9-0.1c0.4,0,0.8,0.1,1.2,0.3c0.5,0.3,0.9,0.7,1.4,1.3c1.6,2.5,1.9,7.1,0.7,9.9
		c-0.5,1.2-1.4,1.9-2.5,2c-0.6,0-1.3,0.1-1.9,0.1c1.1-0.1,2-0.8,2.5-2c1.3-2.8,0.9-7.5-0.7-9.9c-0.4-0.6-0.9-1.1-1.4-1.3
		C141.9,55.8,141.5,55.7,141.1,55.7"/>
	<path class="st1" d="M145.1,96.8c-0.4-0.3-1.2-3.8-2.4-7.1c-0.5-1.5-1-3.7-1.4-5.9c-0.5-2.6-1.1-5.6-1.6-5.8
		c-0.7-0.4-3.2,4-4.3,5.9c-0.3,0.5-0.5,0.9-0.7,1.1c-0.9,1.3-3.5,7.1-3.8,8.8c-0.3,1.7-3.7,9.6-4.3,9.7l-0.2,0
		c-0.4-0.2-1-1.3-1.8-3.4c1-3.8,1.2-4.3,1.8-5.7c0.2-0.5,0.4-1.1,0.7-1.6c0.6-1.5,1.1-2.8,1.6-3.1c0.5-0.4,3.7-9.1,3.9-10.3
		c0.1-0.2,0.2-0.6,0.3-1.1c0.6-2,2.1-6.8,1.6-8.9c-0.5-2.6-5.9-8.6-6.4-8.8l-0.2-0.1c-0.6-0.3-2-1.4-3.2-2.7c-1-1.2-2.2-2.4-3.1-2.9
		c-0.3-0.2-0.6-0.3-0.9-0.2c-0.7,0-2.6,4.9-3.3,7.1c-0.2,0.5-0.3,0.8-0.4,1c-0.6,1.5-2.3,7.5-2.2,9c0,1.6-2,9.8-2.6,10.4
		c-0.1,0.1-0.3,0.1-0.5,0c-0.4-0.2-1-0.9-1.8-2c0.4-3.7,0.4-4.2,0.8-5.7c0.1-0.5,0.3-1.1,0.4-1.6c0.3-1.5,0.6-2.9,1-3.4
		c0.4-0.5,2.1-9.1,2.2-10.2c0-0.2,0.1-0.5,0.1-1.1c0.3-1.9,0.9-6.3,0.2-7.6c-0.3-0.6-1.1-1.2-2.2-1.8c-2.9-1.6-7.5-3.2-7.9-3.1
		c0,0-0.2,0-0.8-0.1c-0.4-0.1-1.2-0.3-2.3-0.8c-2-0.9-5.2-1.7-6-1.3c-0.7,0.3-1.4,4.8-1.7,6.6c-0.1,0.4-0.1,0.6-0.1,0.8
		c-0.3,1.5-0.5,6.7-0.3,7.9c0.3,1.3,0.1,8.9-0.3,9.6c-0.1,0.2-0.4,0.3-1.4-0.2c-0.3-0.2-0.7-0.4-1.1-0.7c-0.4-3.4-0.5-3.8-0.4-5.1
		c0-0.5,0-1,0-1.5c0-1.4,0-2.6,0.2-3.1c0.3-0.6,0-8-0.1-8.7c-0.7-4.1-1.5-5.5-2-5.9l-0.3-0.2c-1.5-0.8-5-1.2-7-1.4l-0.8-0.1
		c-2.7-0.6-5.5-1.2-7.9-1.7l0-0.5c0.1,0,0.9,0,2.8,0.1c3.2,0.2,8.6,0.4,12.2,0.5c1.2,0,2.2-0.2,3.7-0.5c0.4-0.1,0.7-0.3,0.7-0.6
		c0-0.3-0.2-0.6-0.2-0.7c-2-1.5-3-2.9-3-4.2c0-2.2,1.8-3.8,4-3.7c0.6,0,1.1,0.2,1.6,0.5c0.7,0.4,1.2,0.9,1.6,1.7
		c0.4,0.7,0.5,1.5,0.4,2.3c-0.2,2.1-2,3.3-2.5,3.6c-0.2,0.8,0,1.2,0.1,1.4l0.3,0.2c0.3,0.2,1,0.4,2.4,0.6c1.7,0.3,3.4,1.2,3.8,1.5
		c0.4,0.2,2.2,0.6,3.3,0.9c0.8,0.2,1.1,0.3,1.2,0.3c0.1,0,0.5,0.1,1.4,0.4c0.8,0.2,1.8,0.6,2.7,1.1c1.1,0.6,2.2,0.8,3,1
		c0.5,0.1,0.9,0.2,1.2,0.3c0.3,0.1,0.7,0.3,1.2,0.6c1,0.5,2.2,1.2,3.2,1.3c0.4,0,0.7-0.1,0.9-0.5c0.1-0.3,0.1-0.8,0-1l-0.1-0.3
		c-1.8-3.1-1.8-5-1.6-6.1c0.6-2.7,2.8-4.2,4.8-3.2c1.1,0.6,1.8,1.7,2.2,3.1c0.4,1.3,0.4,2.8,0,4.1c-0.7,2.3-2.5,3.1-3.3,3.4
		c-0.4,1.1-0.4,1.6-0.3,1.9c0.1,0.2,0.4,0.9,2.3,2.1c1.3,0.9,1.5,1.6,1.7,2.1l0.2,0.4c0.2,0.2,1.4,1.3,2.4,2.1l1,0.9
		c0.3,0.2,0.4,0.4,0.5,0.4c0.2,0.1,0.5,0.4,1.2,1.1c0.7,0.6,1.6,1.6,2.4,2.6c0.9,1.2,1.2,1.4,1.6,1.7c0.2,0.1,0.4,0.3,0.7,0.6
		c0.3,0.3,0.7,0.9,1.1,1.5c0.8,1.2,1.8,2.6,2.7,3.3l0.2,0.2c0.2,0.1,0.4,0.1,0.6,0c0.3-0.3,0.3-1.2,0.3-1.5
		c-1.1-4.8-0.8-7.2-0.3-8.3c0.5-1.4,1.4-2.3,2.4-2.5c0.4-0.1,0.9,0,1.3,0.3c0.5,0.3,0.9,0.7,1.4,1.4c1.6,2.5,1.9,7.1,0.7,9.9
		c-0.7,1.6-2.1,2.3-3.7,1.8c-0.6,1-0.7,1.7-0.7,2.2c0,0.4,0.1,1.2,1.6,3.6l0.3,0.6c0.9,1.7,1.2,4.9,1.4,7c0.1,0.7,0.1,1.4,0.2,1.6
		c0.1,0.5,0.5,2.2,0.7,3.2c0.4,1.8,0.5,2.3,0.5,2.6C144.9,92,145,94.4,145.1,96.8"/>
	<path class="st1" d="M144.5,94.4c0.1,0.4,0.2,0.7,0.3,1c-0.1-1.9-0.2-3.9-0.4-5.8c0-0.2-1-4.7-1.2-5.5c-0.1-0.3-0.1-0.9-0.2-1.7
		c-0.2-1.9-0.6-5-1.4-6.7c-0.7-1.6-1.6-1.9-2-4.4c-0.1-0.9,0.4-1.9,1-2.8c0.9,0.1,2.6,0.5,3.5-1.6c1.2-2.6,0.9-7-0.6-9.3
		c-0.4-0.6-0.8-1-1.2-1.2c-0.4-0.2-0.8-0.3-1.2-0.2c-0.9,0.2-1.7,1-2.2,2.3c-0.4,1.1-0.7,3.2,0.3,7.6l0.1,0.4c0,0.4-0.1,1.2-0.2,1.6
		c-0.2,0.4-0.4,0.8-1,0.5l-0.3-0.2c-0.9-0.7-1.9-2.2-2.7-3.4c-0.4-0.6-0.8-1.1-1.1-1.4c-0.3-0.3-0.4-0.4-0.7-0.6
		c-0.4-0.2-0.8-0.5-1.7-1.7c-1.2-1.7-3.2-3.4-3.6-3.6c0,0-0.8-0.7-1.5-1.3c-1-0.9-2.2-1.9-2.4-2.2c-0.1-0.2-0.2-0.4-0.3-0.6
		c-0.2-0.5-0.4-1.1-1.5-1.9c-1.7-1.1-2.4-1.9-2.6-2.5c-0.2-0.8,0-1.6,0.4-2.6c0.7-0.3,2.6-0.9,3.2-3.1c0.4-1.2,0.4-2.5,0-3.7
		c-0.4-1.3-1.1-2.3-1.9-2.8c-2-1-4,0.4-4.6,2.9c-0.2,1-0.1,2.7,1.5,5.6c0.1,0.3,0.5,1.1,0.1,1.9c-0.3,0.5-0.5,0.7-1.1,0.7
		c-1-0.1-2.3-0.8-3.3-1.4c-0.5-0.3-0.9-0.5-1.2-0.6c-0.3-0.1-0.7-0.2-1.2-0.3c-0.9-0.2-1.9-0.5-3.1-1c-1.7-0.9-4.1-1.5-4.1-1.5
		c0,0-0.6-0.2-1.2-0.3c-1.2-0.3-3-0.8-3.3-0.9L99.8,42c-0.5-0.3-2.1-1.1-3.6-1.4c-1.2-0.1-2.1-0.4-2.6-0.6c-0.2-0.1-0.3-0.2-0.4-0.4
		c-0.3-0.5-0.4-1.3-0.2-2.1c0.3-0.3,2.3-1.3,2.4-3.3c0-0.7-0.1-1.3-0.4-1.9c-0.3-0.7-0.9-1.2-1.5-1.6c-0.5-0.2-1-0.4-1.5-0.4
		c-2-0.1-3.7,1.4-3.7,3.3c0,1,1,2.4,2.7,3.7c0.2,0.2,0.6,0.6,0.4,1.3c-0.1,0.5-0.4,0.8-1,0.9c-1.5,0.3-2.4,0.5-3.7,0.5
		c-3.5-0.1-8.9-0.3-12.1-0.5c1.6,0.4,3.4,0.7,5.1,1.1l0.8,0.1c2.1,0.2,5.6,0.6,7.1,1.4l0.4,0.3c0.9,0.7,1.6,2.7,2.2,6.1
		c0.2,0.9,0.4,8.5,0.1,9.3c-0.2,0.4-0.2,1.7-0.2,2.9v1.5c0,1.3,0,1.7,0.3,4.6c0.4,0.3,0.8,0.5,1.1,0.7c0.8,0.4,1,0.3,1.1,0.2
		c0.3-0.5,0.6-7.7,0.3-9c-0.4-1.4,0-6.8,0.3-8.2c0-0.2,0.1-0.4,0.1-0.8c0.5-3.4,1.1-6.6,1.9-6.9c1-0.4,4.3,0.5,6.1,1.3
		c1.8,0.8,2.8,0.9,2.9,0.9c0.2-0.1,2.7,0.8,4.9,1.7c1.2,0.5,2.3,1,3.1,1.5c1.3,0.7,2.1,1.4,2.4,1.9c0.9,1.5,0.3,5.8-0.1,8.1
		c-0.1,0.5-0.1,0.9-0.1,1c-0.1,0.8-1.8,9.8-2.3,10.5c-0.3,0.4-0.6,1.8-0.9,3.2c-0.1,0.5-0.3,1.1-0.4,1.7c-0.3,1.4-0.4,1.9-0.8,5.2
		c0.9,1.2,1.4,1.7,1.6,1.8l0.3,0c0.4-0.3,2.5-8.3,2.5-9.9c0-1.7,1.7-7.7,2.3-9.3c0.1-0.2,0.2-0.6,0.4-1c1.4-3.7,2.8-7.2,3.5-7.3
		c0.3,0,0.6,0.1,1,0.3c0.8,0.4,1.8,1.4,3.2,2.9c1.5,1.7,3,2.6,3.3,2.8c0.6,0.3,6.2,6.4,6.7,9.2c0.5,2.3-0.9,7-1.6,9.3
		c-0.2,0.5-0.3,0.9-0.3,1.1c-0.2,0.9-3.5,10.1-4.1,10.5c-0.4,0.3-0.9,1.7-1.5,3c-0.2,0.5-0.4,1.1-0.7,1.6c-0.6,1.3-0.7,1.8-1.7,5.2
		c0.9,2.4,1.3,3,1.5,3.1c0.6-0.1,3.9-7.4,4.3-9.4c0.3-1.8,2.9-7.6,3.8-9c0.1-0.2,0.4-0.6,0.7-1.1c1.9-3.3,3.8-6.4,4.5-6
		c0.6,0.3,1.1,2.5,1.8,6.1c0.4,2.2,0.9,4.4,1.4,5.8C143.6,91.3,144.1,93.2,144.5,94.4"/>
	<path class="st2" d="M110.9,57.3l-15.7,6.5c-0.1,2-0.2,3.8-0.4,4.2l-1.9,0.1c0.2-0.3,0.3-1.8,0.4-3.5c-0.1,1.7-0.2,3.2-0.4,3.5
		l1.9-0.1l-0.3,0.2l-1.9,0.1l0,0c0,0,0,0-0.1,0c-0.2,0-0.5-0.1-1-0.3c-0.3-0.2-0.7-0.4-1.1-0.7c-0.1-0.5-0.1-1-0.2-1.3L48.1,83.2
		l5.4,9.8l55.7-23.2L110.9,57.3z"/>
	<path class="st0" d="M94.8,67.9l-1.9,0.1c-0.1,0.1-0.2,0.2-0.3,0.2l0,0l1.9-0.1L94.8,67.9z"/>
	<path class="st0" d="M95.2,63.7l-1.9,0.8c-0.1,1.7-0.2,3.2-0.4,3.5l1.9-0.1C95,67.6,95.2,65.7,95.2,63.7"/>
	<path class="st3" d="M93.3,64.5L93,64.7c-0.1,1.5-0.2,2.8-0.3,3c0,0-0.1,0.1-0.2,0.1c-0.2,0-0.4-0.1-0.9-0.3
		c-0.3-0.2-0.6-0.4-1.1-0.7c0-0.4-0.1-0.7-0.1-1l-0.2,0.1c0,0.4,0.1,0.8,0.2,1.3c0.4,0.3,0.8,0.6,1.1,0.7c0.5,0.2,0.8,0.3,1,0.3
		c0,0,0,0,0.1,0c0.2,0,0.3-0.1,0.3-0.2C93.1,67.7,93.2,66.3,93.3,64.5"/>
	<path class="st3" d="M93,64.7l-2.6,1.1c0,0.3,0.1,0.6,0.1,1c0.4,0.3,0.8,0.5,1.1,0.7c0.4,0.2,0.7,0.3,0.9,0.3c0.1,0,0.2,0,0.2-0.1
		C92.8,67.5,92.9,66.2,93,64.7"/>
	<path class="st2" d="M119.9,73.5l-3.8,1.6c-0.6,2.9-1.6,6.5-2,6.8l-0.2,0.1l-1.8,0.1c0,0-0.1,0-0.1,0c-0.1,0-0.2,0-0.3-0.1
		c-0.4-0.2-1-0.9-1.8-2c0.1-1,0.2-1.8,0.2-2.5L57.2,99.4l5.4,9.8L118.2,86L119.9,73.5z"/>
	<path class="st0" d="M116.1,75l-2.1,0.9c-0.6,2.8-1.5,5.8-1.9,6.1c0,0-0.1,0-0.1,0.1l1.8-0.1l0.2-0.1
		C114.5,81.5,115.5,77.9,116.1,75"/>
	<path class="st3" d="M114.1,75.9l-0.4,0.1c-0.6,2.6-1.4,5.3-1.6,5.5l-0.3,0c-0.3-0.2-0.8-0.6-1.6-1.8c0.1-1,0.2-1.7,0.3-2.3
		l-0.3,0.1c-0.1,0.6-0.1,1.4-0.2,2.5c0.8,1.1,1.4,1.8,1.8,2c0.1,0.1,0.2,0.1,0.3,0.1c0,0,0.1,0,0.1,0c0,0,0.1,0,0.1-0.1
		C112.6,81.7,113.4,78.6,114.1,75.9"/>
	<path class="st3" d="M113.7,76l-3.3,1.4c-0.1,0.6-0.2,1.3-0.3,2.3c0.9,1.2,1.4,1.7,1.6,1.8l0.3,0C112.3,81.4,113.1,78.6,113.7,76"
		/>
	<path class="st0" d="M77.8,39.4c0,0-42.5-5.1-46.2,31.9c-3.8,38.2,82.3,96.7,111.9,34.5c3.5-7.4,3.3-13,3.3-13
		c-0.3-0.1,0,0.3-3-0.7c0,0-2.3,32.4-41.5,26.5C65.6,113,52.4,80.4,52.4,80.4c-2.9-7.4-8.1-39,25.2-39.7l1.3,0.1L77.8,39.4z"/>
	<path class="st4" d="M77.8,39.4c0,0-42.5-5.1-46.2,31.9c-3.8,38.2,82.3,96.7,111.9,34.5c3.5-7.4,3.2-13,3.3-13l0.1-0.1
		c-0.1,0,1.1,7.8-2.5,15.8c-30.4,66.9-120.3,4.9-116.6-36c3.5-39.6,50.9-33.3,50.9-33.3L77.8,39.4L77.8,39.4z"/>
	<path class="st5" d="M77.8,39.4c0,0-42.5-5.1-46.2,31.9c-3.8,38.2,82.3,96.7,111.9,34.5c3.5-7.4,3.2-13,3.3-13l0-0.4
		c-0.1,0,1.2,8-2.4,16c-30.4,66.9-120.3,4.9-116.6-36c3.5-39.6,51-33.2,51-33.2L77.8,39.4L77.8,39.4z"/>
	<path class="st6" d="M77.8,39.4c0,0-42.6-5.1-46.2,31.9c-3.8,38.2,82.4,96.8,111.9,34.5c3.5-7.4,3.2-13,3.3-13l0-0.4
		c-0.1,0,1.2,8-2.4,16c-30.4,66.9-120.3,4.9-116.7-36c3.5-39.6,51-33.2,51-33.2L77.8,39.4L77.8,39.4z"/>
	<path class="st7" d="M3.3,65.8c-0.2,1.9,0.7,4.5,5.1,4.9c2.8,0.2,4.9-1.2,5.2-4c0-0.4,0-0.5-0.2-0.5C12.2,65.9,4.3,65,3.7,65
		C3.5,65,3.4,65.3,3.3,65.8L3.3,65.8z M14.1,61.4l0.2-0.1l0.1,0.1c0,1-0.2,3.6-0.4,5.5c-0.6,4.8-2.6,7.5-5.9,7.2
		c-3.8-0.3-5.6-3.9-5-8.5c0.1-0.7,0.3-2.1,0.4-2.6c0.1-0.9,0.2-1.8,0.3-2.3l0.1-0.1l0.2,0.1l0,1L4.1,62c0.7,0.1,4.1,0.3,4.8,0.4
		c0.8,0.1,4.1,0.3,4.6,0.3l0.3-0.2L14.1,61.4z"/>
	<path class="st7" d="M11.6,78.3l0.2-0.2c0.8,0.4,1.6,0.8,1.9,0.9c0.1,0,0.2,0.2,0.2,0.4l0,0.9l-0.1,0.1
		C13.4,80.1,12.2,79,11.6,78.3L11.6,78.3L11.6,78.3z M10.5,78.5c-0.1-0.9-1.2-1.6-3.6-1.3c0,1.2,0.2,2.5,0.3,2.8
		c0.1,0.2,0.2,0.3,0.6,0.2C8.7,80.1,10.6,79.7,10.5,78.5L10.5,78.5z M7.7,83.4c-0.2,0-0.4-0.1-0.5-0.4c-0.3-0.8-0.6-4.8-0.6-5.8
		c-0.4,0-1,0.2-1.2,0.2c-1.3,0.5-2,1.9-1.9,3.1c0,0.5,0.1,1.1,0.3,1.5c0.1,0.4,0.4,1.1,0.6,1.6l-0.2,0.1L4,83.7
		c-0.3-0.5-0.8-1.5-1.1-2.4c-0.2-0.5-0.3-0.9-0.3-1.9c-0.2-2.8,0.6-4.9,3.2-5.2c2.4-0.3,4.9,1.6,5.1,4.7
		C11.1,81.8,9.2,83.2,7.7,83.4L7.7,83.4z"/>
	<path class="st7" d="M15.4,88.2l0,0.2c-0.8,1.5-4.1,6.6-5.5,8.7l-0.4,0.6l0.1,0.1c0.3-0.1,0.5-0.2,0.8-0.3c1.2-0.5,5.4-2,6.5-2.6
		c0.2-0.1,0.2-0.2,0.2-0.4l-0.3-1.2l0.2-0.2l0.1,0l1.3,4l0,0.1l-0.3,0l-0.4-0.7c-0.1-0.2-0.2-0.3-0.5-0.2c-0.6,0.1-3.2,0.9-4.5,1.3
		c-1,0.3-4.5,1.4-5.1,1.6l-0.2-0.1c-0.1-0.2-0.4-0.7-0.5-0.9c-0.1-0.2-0.1-0.4,0-0.6c1.1-2.3,3.3-6.4,4.6-8.7l0.3-0.4l-0.1-0.1
		c-0.2,0.1-0.4,0.1-0.6,0.2c-1.3,0.4-4.9,1.4-6,1.8L5,90.5l0.3,1.4l-0.1,0.2L5,92c-0.1-0.3-0.3-1.1-0.6-1.9
		c-0.2-0.7-0.5-1.4-0.6-1.7l0-0.1l0.2,0l0.5,1l0.3,0.1c0.5-0.2,3.4-1.3,4.4-1.7c0.7-0.3,4-1.6,4.5-1.8c0.2-0.1,0.3-0.2,0.2-0.4
		l-0.1-0.9l0.2-0.2l0.1,0L15.4,88.2z"/>
	<path class="st7" d="M10.9,105.8c0.7,1.4,2.4,1,4.4,0c1.8-1,3.1-2.3,2.4-3.7c-0.7-1.3-2.4-1.2-4.5,0
		C11.4,103,10.3,104.5,10.9,105.8L10.9,105.8z M10.3,105.4c-1.4-2.7-0.9-5,1.1-6c2.1-1.1,4.9-0.5,6.8,3.1c1.6,3.1,0.7,5.2-1.2,6.2
		C15,109.7,12.2,108.9,10.3,105.4L10.3,105.4z"/>
	<path class="st7" d="M19.4,112.4l0.4-0.2c1.7-0.5,4.1-0.8,5.2,0.8c0.2,0.3,0.3,0.5,0.3,0.7l-0.1,0.1l-2,1.5l-0.3-0.1l0-0.1
		c0.2-0.4,0.4-1,0.5-1.4c0.1-0.2,0-0.5-0.1-0.7c-0.7-1-2.8-0.8-5.1,0c-0.5,0.2-1.5,0.8-1.9,1l0,0.3l0.8,1.5l-0.1,0.2l-0.1,0
		c-0.3-0.5-1.1-1.6-1.9-2.8c-0.7-1.1-1.4-2-1.6-2.2l0-0.1l0.2,0l0.8,0.8l0.3,0c0.4-0.3,2.2-1.5,2.8-2c0.6-0.4,2.1-1.5,2.5-1.8
		l0.1-0.4l-0.5-0.8l0.1-0.2l0.1,0l2.9,3.2l0,0.3c-0.2,0.2-2.2,1.4-3.1,1.8L19.4,112.4L19.4,112.4z"/>
	<path class="st7" d="M32.3,132.9l-0.1,0.2l-0.1,0c-0.4-0.5-0.9-1-1.8-1.9c-0.9-0.9-1.5-1.6-1.9-1.9l0-0.1l0.2-0.1l0.8,0.6l0.3,0
		c0.4-0.3,1.5-1.3,1.9-1.7c1.3-1.2,2.3-2.6,1.5-3.4c-1-1-3.1-0.3-4.5,0.6c-0.7,0.5-1.6,1.2-1.8,1.4l0,0.3l0.7,1l-0.1,0.2l-0.1,0
		c-0.5-0.5-1-1.1-1.9-2c-0.9-0.9-1.5-1.5-1.9-1.9l0-0.1l0.2-0.1l0.8,0.5l0.3,0c0.3-0.2,1.3-1.2,1.8-1.6c1.3-1.2,2.4-2.6,1.5-3.5
		c-0.9-1-2.9-0.4-4.5,0.5c-0.5,0.3-1.4,1-1.9,1.5l0,0.3l0.6,0.9l-0.1,0.2l-0.1,0c-0.6-0.7-1-1.1-1.9-2c-0.8-0.8-1.2-1.3-1.8-1.8
		l0-0.1l0.2-0.1l0.8,0.6h0.3c0.6-0.5,2-1.9,2.6-2.4c0.4-0.4,1.8-1.8,2.1-2.1l0-0.4l-0.6-0.7l0.1-0.2l0.1,0l3.3,2.7l0,0.2
		c-0.2,0.1-1.7,1.5-2.5,2l-0.5,0.4l0.1,0.1c0.2-0.1,0.4-0.2,0.5-0.2c1.4-0.5,3.8-0.9,5.5,0.8c1.1,1.2,0.8,2.6-0.6,4l-0.4,0.4l0,0.1
		l0.5-0.2c1.2-0.4,3.6-0.8,5.2,0.9c1.1,1.2,0.9,2.7-1,4.4c-1,0.9-2.6,2.1-3,2.4l-0.1,0.4L32.3,132.9z"/>
	<path class="st8" d="M46.7,135.4L46.7,135.4l-0.2,0.1l-0.4-0.2c-0.1-0.1-0.3,0-0.5,0.1c-1.2,0.6-5.4,2.6-6.5,3
		c-0.2,0.1-0.3,0-0.8-0.3l-0.4-0.3l-0.1-0.1c0.2-1.3,1.2-5.2,1.7-6.8l-0.1-0.3l-0.4-0.4l0-0.2h0.1l3.1,2.3l0,0l-0.2,0.1l-0.8-0.5
		l-0.2,0.1c-0.5,1.3-1.5,4.3-1.9,5.5l-0.1,0.5l0.1,0l0.5-0.3c1.3-0.6,3.7-2.1,5.1-3c0.2-0.1,0.2-0.2,0.1-0.3l-0.6-0.6l0-0.2h0
		L46.7,135.4z"/>
	<path class="st8" d="M46,142.9c1.4,0.9,3,0,4.1-1.7c1-1.5,1-3.1-0.3-3.8c-1.3-0.8-3-0.1-4.2,1.7C44.6,140.6,44.7,142.2,46,142.9
		L46,142.9z M45.4,142.9c-2-1.2-2.5-3-1.4-4.6c1.2-1.8,3.8-2.5,6.2-1c2.1,1.3,2.4,3.1,1.4,4.7C50.5,143.8,47.9,144.5,45.4,142.9
		L45.4,142.9z"/>
	<path class="st8" d="M54.3,147.5c1.5,0.8,3-0.2,4-2c0.9-1.6,0.8-3.1-0.6-3.8c-1.4-0.7-3,0.2-4.1,2C52.7,145.4,53,146.9,54.3,147.5
		L54.3,147.5z M53.7,147.6c-2.1-1.1-2.7-2.7-1.8-4.5c1.1-1.9,3.6-2.8,6.1-1.5c2.2,1.1,2.7,2.9,1.8,4.6
		C58.8,148.1,56.4,148.9,53.7,147.6L53.7,147.6z"/>
	<path class="st8" d="M62.7,148.2l0.3-0.4c1-1,2.9-2.6,4.7-1.8c0.3,0.1,0.4,0.2,0.5,0.3l0,0.1l-0.6,1.6l-0.2,0l0,0
		c0-0.4-0.1-0.8-0.1-1.1c0-0.2-0.2-0.3-0.5-0.5c-1.4-0.6-3.4,1.3-4.6,2.8c-0.2,0.3-0.7,1-0.8,1.3l0.1,0.2l1.3,0.7l0.1,0.2l-0.1,0
		c-0.4-0.2-1.3-0.6-2.2-1c-0.8-0.3-1.5-0.6-1.7-0.7l0,0l0.2-0.1l0.9,0.2l0.2-0.1c0.1-0.3,1-2.1,1.3-2.8c0.3-0.7,0.9-2.1,1.1-2.5
		l-0.1-0.3l-0.9-0.4l0-0.2l0.1,0l2.7,0.7l0.1,0.2c-0.2,0.4-1.2,2.2-1.6,3L62.7,148.2L62.7,148.2z"/>
	<path class="st8" d="M73.3,155.1c1.6,0.5,3-0.8,3.7-2.9c0.4-1.2,0.3-2.4-0.7-2.6c-1.5-0.4-3.6,1.2-4.6,2.5l-0.1,0.2l0,0.3
		C71.5,153.7,72.2,154.8,73.3,155.1L73.3,155.1z M72.1,151.2l0.4-0.4c1-0.9,3-2.3,5-1.7c1.5,0.4,1.8,1.8,1.3,3.1
		c-0.8,2.3-2.9,3.9-5.5,3.1c-1.2-0.4-1.8-1-2.3-1.8l-0.2,0l-0.9,0.7l-0.1,0l-0.3-0.2c0.4-1.3,1.2-3.6,1.7-5.2c0.4-1,1.3-3.7,1.3-4
		l-0.1-0.3l-1-0.3l-0.1-0.2l0.1,0l2.9,0.6l0.1,0.2c-0.1,0.1-1.7,4.3-2.1,5.5C72.2,150.6,72.1,151,72.1,151.2L72.1,151.2z"/>
	<path class="st8" d="M83.9,151c-1.1-0.2-2.3,0.7-2.9,2.5c1.1,0.3,3,0.6,3.6,0.6c0.2,0,0.4-0.1,0.4-0.3
		C85.4,152.9,85.3,151.2,83.9,151L83.9,151z M86.7,154.3c-0.1,0.2-0.3,0.3-0.5,0.3c-0.8,0-4.4-0.7-5.2-1c-0.1,0.3-0.2,0.6-0.2,0.9
		c-0.2,1.4,0.7,2.4,2,2.7c0.5,0.1,1,0.1,1.3,0.1c0.5,0,1.2-0.1,1.7-0.2l0.1,0.2l-0.1,0.1c-0.5,0.1-1.5,0.3-2.3,0.3
		c-0.3,0-0.8,0-1.4-0.1c-2.1-0.4-3.5-1.7-2.9-3.7c0.5-1.9,2.7-3.6,5-3.2C86.5,151.2,87.1,153,86.7,154.3L86.7,154.3z"/>
	<path class="st8" d="M90.8,152.6c-0.3,1.1-0.6,2.1-0.7,3.2c-0.4,2,0.1,2.8,1.5,3c0.2,0,0.5,0,0.7,0c0.3,0,0.8-0.1,1.3-0.2l0.1,0.2
		l-0.1,0.1c-0.4,0.1-1.2,0.3-1.9,0.3c-0.2,0-0.5,0-0.9-0.1c-1.8-0.2-2.8-1.1-2.4-3.2c0.2-1.1,0.6-2.5,1-3.5l-1.8-0.2l-0.1-0.1
		l0.1-0.2c0.1-0.1,0.2-0.2,0.4-0.1l1.4,0.2c0.1-0.4,0.4-1,0.6-1.4c0.1-0.2,0.2-0.3,0.5-0.3c0.3-0.1,0.8-0.2,1-0.2l0,0.1
		c-0.2,0.4-0.5,1.4-0.7,2l3.7,0.5l0,0l-0.2,0.2L90.8,152.6z"/>
	<path class="st8" d="M96.9,156.5l0.2-0.5c0.6-1.3,1.9-3.3,3.9-3.2c0.3,0,0.5,0.1,0.6,0.2l0.1,0.1l-0.1,1.7l-0.2,0.1l0,0
		c-0.1-0.3-0.3-0.7-0.5-1c-0.1-0.2-0.3-0.3-0.6-0.3c-1.5-0.1-2.9,2.3-3.5,4c-0.1,0.4-0.3,1.2-0.3,1.4l0.2,0.2l1.5,0.3l0.1,0.1l0,0
		c-0.4,0-1.4-0.1-2.5-0.2c-0.9-0.1-1.6-0.1-1.8-0.1l0,0l0.1-0.1l0.9-0.1l0.2-0.2c0-0.3,0.2-2.3,0.3-3c0.1-0.7,0.2-2.3,0.2-2.6
		l-0.2-0.3l-1-0.1l-0.1-0.2l0.1,0l2.8-0.2l0.2,0.1c0,0.4-0.4,2.4-0.5,3.3L96.9,156.5L96.9,156.5z"/>
	<path class="st8" d="M105.6,159.6c1.7,0,2.6-1.5,2.6-3.5c0-1.8-0.8-3.1-2.4-3c-1.6,0-2.7,1.5-2.7,3.6
		C103.2,158.4,104.2,159.6,105.6,159.6L105.6,159.6z M105.2,159.9c-2.4,0-3.8-1.1-3.7-3c0-2.1,1.9-4,4.8-4.1
		c2.6-0.1,3.8,1.3,3.8,3.1C110,157.9,108.2,159.8,105.2,159.9L105.2,159.9z"/>
	<path class="st8" d="M116.1,152.5l-0.2-0.1l0.1-0.1l2.5-0.7l0.1,0.1c0,0.6,0.2,2.6,0.3,3.3c0.1,0.7,0.3,2.6,0.3,3l0.2,0.2l0.9,0
		l0.1,0.1l-0.1,0c-0.4,0-0.9,0.1-1.4,0.2c-0.5,0.1-0.9,0.1-1.2,0.2l-0.1-0.1c0-0.3-0.1-2.1-0.2-2.8c0-0.2,0-0.4,0-0.6l-0.1,0
		c-0.1,0.2-0.1,0.4-0.1,0.5c-0.6,1.9-1.8,3.4-3.5,3.6c-1.4,0.2-2.2-1-2.4-3c-0.1-0.9,0-2.4,0-3c0-0.2-0.1-0.2-0.3-0.2l-0.9,0.1
		l-0.2-0.1l0.1,0l2.5-0.7l0.2,0.1c0,0.5,0,2.2,0.1,3c0.2,2.2,0.7,3.2,1.8,3c1.4-0.2,2.4-2.4,2.7-4.6c0-0.4,0-1.1,0-1.4l-0.2-0.2
		L116.1,152.5z"/>
	<path class="st8" d="M124.7,156.9l0.1-0.5c0.4-1.4,0.8-3.8,1.2-5.7c0-0.3,0.1-0.3,0.7-0.5l0.4-0.1l0.1,0c0.9,1.2,2.5,3.6,3.4,4.8
		l0.3,0.4l0.1,0l0.1-0.5c0.2-1.4,0.5-4.2,0.6-5.6c0-0.2-0.1-0.3-0.3-0.2l-0.9,0.1l-0.2-0.1l0,0l3-0.8l0,0l-0.1,0.2l-0.4,0.2
		l-0.3,0.4c-0.2,1.1-1.1,5.4-1.5,6.7c0,0.1-0.1,0.2-0.8,0.4l-0.4,0.1l-0.2,0c-0.9-1-2.2-2.7-2.9-3.6c-0.1-0.1-0.3-0.4-0.4-0.6
		l-0.1,0c0,0.2-0.1,0.5-0.1,0.7c-0.3,1.1-0.9,3.5-1.3,4.6c-0.1,0.2-0.2,0.2-0.9,0.4l-0.4,0.1l-0.1,0c-0.9-1.1-2.9-4.2-3.8-5.5
		l-0.3-0.1l-0.6,0.1l-0.1-0.1l0.1-0.1l3.8-1l0,0l-0.1,0.2l-0.9,0.4l-0.1,0.3c0.6,1.2,1.9,3.6,2.7,4.8L124.7,156.9L124.7,156.9z"/>
	<path class="st8" d="M139,152.5c1.5-0.7,1.8-2.5,0.9-4.5c-0.5-1.1-1.4-1.9-2.3-1.5c-1.5,0.6-2,3.2-1.8,4.8l0.1,0.3l0.2,0.3
		C136.6,152.7,138,153,139,152.5L139,152.5z M135.4,150.5c0-0.2,0-0.4,0-0.6c0.1-1.3,0.8-3.6,2.7-4.4c1.5-0.6,2.6,0.2,3.2,1.4
		c0.9,2.1,0.4,4.7-2.1,5.8c-1.2,0.5-2.1,0.4-3,0.2L136,153l-0.2,1.1l0,0.1l-0.3,0c-0.6-1.2-1.5-3.4-2.1-4.9c-0.4-1-1.5-3.5-1.7-3.7
		l-0.3-0.1l-1,0.4l-0.2-0.1l0-0.1l2.6-1.4l0.2,0c0.1,0.1,1.6,4.2,2.1,5.4C135.1,150,135.3,150.3,135.4,150.5L135.4,150.5z"/>
	<path class="st8" d="M146.3,148.5c0.9-0.6,1.4-1.9,1.2-3.2l-0.1-0.4l-0.3-0.2c-0.5-0.2-1.4-0.3-2.4,0.3c-1.1,0.7-1.2,1.9-0.6,2.9
		C144.7,148.8,145.5,149,146.3,148.5L146.3,148.5z M146.9,144.2c-0.2-0.3-0.5-0.7-0.7-0.8c-0.7-0.7-1.4-0.9-2.4-0.4
		c-0.9,0.6-1.6,1.6-1.9,2.6l0,0.1l-0.2-0.1c0.4-1.2,1.2-2.5,2.7-3.5c1.9-1.1,3-0.1,3.8,1.2c0.2,0.3,0.6,1.1,0.8,1.5
		c0.3,0.5,0.7,1.2,0.9,1.5l0.3,0.1l0.9-0.4l0.2,0.1l-0.1,0.1c-0.2,0.1-0.7,0.4-1.1,0.7c-0.4,0.3-0.8,0.5-1,0.6l-0.1,0
		c-0.1-0.2-0.6-0.8-0.8-1.2l-0.2-0.4l-0.1,0l0,0.5c-0.1,0.9-0.6,2.3-2.1,3.2c-1,0.6-2.3,0.7-3-0.4c-0.6-1-0.5-2.8,1.6-4.1
		c0.8-0.5,1.6-0.7,2.1-0.7L146.9,144.2L146.9,144.2z"/>
	<path class="st8" d="M153.7,143.4c0.8-0.7,1.1-2.1,0.7-3.3l-0.2-0.3l-0.3-0.2c-0.5-0.1-1.4-0.1-2.3,0.6c-1,0.8-0.9,2-0.2,2.9
		C152.1,143.9,152.9,144,153.7,143.4L153.7,143.4z M153.7,139.1c-0.2-0.2-0.6-0.6-0.9-0.7c-0.8-0.6-1.6-0.7-2.4,0
		c-0.8,0.7-1.3,1.8-1.5,2.8l0,0.1l-0.2-0.1c0.2-1.3,0.8-2.7,2.2-3.8c1.7-1.4,3-0.5,3.9,0.6c0.2,0.3,0.8,1,1.1,1.4
		c0.3,0.4,0.9,1.1,1.1,1.3l0.3,0l0.9-0.5l0.2,0l0,0.1c-0.2,0.1-0.6,0.5-1,0.8c-0.4,0.3-0.7,0.6-0.9,0.7l-0.1,0
		c-0.1-0.1-0.7-0.8-1-1.1l-0.3-0.4l-0.1,0l0.1,0.5c0,0.9-0.3,2.4-1.6,3.5c-0.9,0.8-2.2,1-3,0c-0.8-0.9-0.9-2.7,1-4.2
		c0.7-0.6,1.5-0.9,2-1L153.7,139.1L153.7,139.1z"/>
	<path class="st8" d="M157.9,136l-0.3-0.4c-0.7-1.2-1.5-3.4-0.2-4.9c0.2-0.2,0.4-0.3,0.5-0.4h0.1l1.4,1l-0.1,0.2l0,0
		c-0.4-0.1-0.8-0.2-1.1-0.2c-0.2,0-0.4,0.1-0.6,0.3c-1,1.1,0,3.5,1.1,5c0.2,0.3,0.8,0.9,1,1.1l0.3,0l1.2-1h0.2l0,0.1
		c-0.3,0.3-1,1-1.7,1.8c-0.6,0.6-1.1,1.2-1.2,1.4l-0.1,0l0-0.2l0.5-0.8l0-0.2c-0.3-0.2-1.7-1.5-2.3-1.9c-0.6-0.5-1.8-1.4-2-1.7
		l-0.3,0l-0.7,0.7l-0.2,0l0-0.1l1.6-2.3l0.2-0.1c0.3,0.3,1.8,1.7,2.4,2.3L157.9,136L157.9,136z"/>
	<path class="st8" d="M156,127.1l0.2-0.1c0.1,0.1,4.4,2.9,5.5,3.7l0.5,0.4l0-0.1l-0.4-0.5c-0.6-1-1.9-3.6-0.7-5.4
		c0.9-1.3,2.6-0.7,4,0.2c0.9,0.5,2.1,1.4,2.4,1.7h0.4l0.7-0.7l0.2,0l0,0.1c-0.2,0.3-0.6,0.8-1,1.5c-0.5,0.7-0.9,1.3-1,1.6l-0.1,0
		l-0.1-0.2l0.4-0.9l-0.1-0.3c-0.3-0.2-1.4-0.9-2-1.3c-1.6-1-3-1.4-3.6-0.5c-0.8,1.2,0.5,3.8,1.6,5c0.3,0.3,0.9,0.8,1.2,0.9l0.3-0.1
		l0.8-0.9l0.2,0l0,0.1c-0.2,0.3-0.7,1-1.2,1.7c-0.5,0.7-0.8,1.2-1,1.5l-0.1,0l0-0.2l0.4-0.8l-0.1-0.2c-0.3-0.2-3.3-2-3.8-2.4
		c-0.4-0.3-3.5-2.1-3.9-2.3l-0.3,0l-0.7,1l-0.2,0l0-0.1L156,127.1z"/>
	<path class="st8" d="M164.3,119.7c-0.5,1,0.2,2.3,1.9,3.1c0.5-1,1.2-2.8,1.4-3.4c0-0.2,0-0.4-0.2-0.5
		C166.6,118.6,164.9,118.5,164.3,119.7L164.3,119.7z M168.3,117.5c0.2,0.1,0.3,0.3,0.2,0.6c-0.2,0.8-1.6,4.1-2,4.9
		c0.2,0.1,0.6,0.2,0.8,0.3c1.3,0.4,2.6-0.4,3.2-1.6c0.2-0.5,0.3-1,0.4-1.2c0.1-0.5,0.2-1.2,0.2-1.7l0.2,0l0,0.1c0,0.5,0,1.5-0.1,2.2
		c0,0.3-0.2,0.8-0.4,1.4c-0.9,2-2.4,3.1-4.4,2.3c-1.8-0.7-3.1-3.1-2.2-5.3C165.1,117.3,167.1,117,168.3,117.5L168.3,117.5z"/>
	<path class="st8" d="M166.2,113.9l0.2-0.1c0.6,0.2,2.6,0.8,3.4,1c0.7,0.2,2.5,0.7,2.8,0.8l0.2-0.1l0.4-0.9l0.2-0.1l0,0.1
		c-0.1,0.4-0.4,1-0.6,1.8c-0.3,0.8-0.5,1.5-0.5,1.9l0,0l-0.1-0.1l0.1-1l-0.1-0.3c-0.3-0.1-2.1-0.5-2.9-0.7c-0.7-0.2-2.3-0.5-2.7-0.6
		l-0.3,0.1l-0.3,0.9l-0.2,0.1l0-0.1L166.2,113.9z M163.6,114.1c0.2-0.5,0.6-0.8,0.9-0.7c0.4,0.1,0.6,0.6,0.4,1.1
		c-0.1,0.4-0.5,0.9-0.9,0.8C163.7,115.1,163.4,114.7,163.6,114.1L163.6,114.1z"/>
	<path class="st8" d="M173.7,110.6c0.2-1.2-1.1-2.8-3.2-3.8l-0.3-0.1l-0.5,0c-0.8,0.2-1.8,1-2,2.1c-0.3,1.7,1.2,2.8,3.4,3.1
		C172.3,112.1,173.5,111.6,173.7,110.6L173.7,110.6z M164.7,104.5l0.1-0.1c0.1,0,4.8,0.8,5.6,0.9c0.5,0.1,3.9,0.6,4.1,0.6l0.2-0.2
		l0.3-1l0.2-0.1l0,0.1c-0.1,0.4-0.2,0.8-0.2,1.3c-0.1,0.6-0.2,0.9-0.2,1.2l-0.1,0.1c-0.3,0-2.1-0.2-2.6-0.3c-0.2,0-0.6-0.1-0.8-0.2
		l0,0.1l0.4,0.2c1.6,1.1,2.8,2.6,2.5,4.4c-0.3,1.5-1.5,2.3-3,2.1c-2.4-0.3-4.3-2.1-3.9-4.7c0.2-1,0.6-1.6,1-2l0.3-0.3l0-0.1
		c-0.2,0-0.5,0-0.8,0c-0.4,0-2.4-0.3-2.8-0.3l-0.2,0.2l-0.3,1.3l-0.2,0.1l0,0L164.7,104.5z"/>
	<path class="st8" d="M12.6,40.8c1.5,0.4,2.1,2.6,0.9,5.9c-0.2,0.6-0.5,1.3-0.7,1.6l-0.2,0.1l-1.8-0.2l-0.1-0.2l0,0
		c0.5-0.1,1-0.3,1.5-0.4l0.4-0.2c0.2-0.2,0.5-0.8,0.6-1.2c0.6-1.8,0.4-3.3-0.8-3.6c-1-0.3-1.9,0.5-3,2c-1.1,1.5-2.1,2.4-3.2,2.1
		c-1.3-0.4-2-2.7-1.1-5.5c0.2-0.7,0.5-1.2,0.7-1.5l0.2-0.1l1.7,0.3l0,0.2l0,0c-0.5,0.1-1,0.2-1.5,0.4L6,40.5c-0.2,0.2-0.4,0.5-0.6,1
		c-0.6,1.7-0.1,3,0.9,3.3C7.2,45,7.9,44.4,9,43.1C10.2,41.6,11.3,40.4,12.6,40.8L12.6,40.8z"/>
	<path class="st8" d="M10.7,36.5c0.9,0.5,1.9,1.1,2.9,1.5c1.8,0.8,2.8,0.6,3.4-0.6c0.1-0.2,0.2-0.4,0.3-0.7c0.1-0.3,0.2-0.8,0.3-1.3
		l0.2,0l0.1,0.1c0,0.4-0.1,1.2-0.3,1.9c-0.1,0.2-0.2,0.5-0.3,0.8c-0.8,1.6-1.9,2.3-3.9,1.4c-1-0.4-2.2-1.2-3.1-1.8l-0.8,1.6l-0.1,0
		L9,39.3l0-0.4l0.6-1.3c-0.3-0.2-0.9-0.6-1.2-0.9c-0.1-0.1-0.2-0.3-0.2-0.6c0-0.3,0-0.8,0.1-1l0.1,0c0.4,0.2,1.3,0.8,1.8,1.1L12,33
		l0,0l0.1,0.2L10.7,36.5z"/>
	<path class="st8" d="M13.4,30.6l0.2-0.1c0.5,0.3,2.3,1.5,2.9,1.9c0.6,0.4,2.2,1.4,2.5,1.6l0.3-0.1l0.7-0.8l0.2,0l0,0.1
		c-0.2,0.3-0.6,0.9-1.1,1.6c-0.5,0.7-0.9,1.4-1,1.7l0,0l-0.1-0.2l0.4-0.9l0-0.3c-0.3-0.2-1.9-1.1-2.6-1.5c-0.6-0.3-2.1-1.1-2.4-1.3
		l-0.3,0l-0.5,0.8l-0.2,0l0-0.1L13.4,30.6z M10.9,30.1c0.3-0.5,0.8-0.6,1.1-0.4c0.3,0.2,0.4,0.7,0.1,1.1c-0.3,0.4-0.8,0.7-1.1,0.5
		C10.6,31.1,10.5,30.6,10.9,30.1L10.9,30.1z"/>
	<path class="st8" d="M17.5,31.6c-0.9-0.7-1.4-2-1.3-3.4c0.1-1.1,0.5-2.2,1.3-3.1c0.5-0.6,0.9-0.9,1.2-1.1l0.2,0l1.3,0.9l0,0.2
		l-0.1,0c-0.5-0.1-0.9-0.2-1.4-0.2L18.3,25c-0.2,0.1-0.5,0.3-0.7,0.6c-0.6,0.7-0.7,1.6-0.4,2.6c0.1,0.6,0.6,1.5,1.4,2.1
		c1.3,1,2.8,0.6,3.7-0.5c0.3-0.3,0.5-0.7,0.6-0.9c0.3-0.6,0.5-1,0.6-1.5l0.2,0l0,0.1c-0.1,0.5-0.4,1.3-0.7,2
		c-0.1,0.3-0.3,0.6-0.8,1.2C20.9,32.2,19.1,32.9,17.5,31.6L17.5,31.6z"/>
	<path class="st8" d="M18.6,19.3l0.2,0c0.1,0.1,3.4,4,4.3,5l0.4,0.5l0.1-0.1l-0.2-0.6c-0.3-1.1-0.8-4,0.8-5.4c1.2-1,2.6,0,3.8,1.2
		c0.7,0.7,1.6,1.9,1.8,2.2l0.4,0.1l0.8-0.5l0.2,0l0,0.1c-0.3,0.2-0.8,0.6-1.4,1.2c-0.7,0.6-1.2,1.1-1.4,1.3l-0.1,0l0-0.2l0.6-0.7
		l0-0.3c-0.2-0.3-1.1-1.3-1.5-1.7C26,20.1,24.8,19.3,24,20c-1.1,1-0.6,3.8,0.2,5.3c0.2,0.4,0.7,1,0.9,1.2l0.3,0l1-0.7l0.2,0l0,0.1
		c-0.3,0.2-0.9,0.8-1.6,1.4c-0.6,0.6-1.1,1-1.3,1.2l-0.1,0l0-0.2l0.6-0.7l0-0.3c-0.2-0.3-2.6-2.8-3-3.3c-0.4-0.4-2.8-3-3.1-3.3
		l-0.3,0l-0.9,0.8l-0.2,0l0-0.1L18.6,19.3z"/>
	<path class="st8" d="M29.5,15.6c0.5,1,1.1,1.9,1.6,2.7c1.1,1.6,2.1,1.9,3.2,1.1l0.6-0.4c0.2-0.2,0.6-0.6,0.9-1l0.1,0.1v0.1
		c-0.2,0.3-0.7,1-1.2,1.5c-0.2,0.1-0.4,0.3-0.7,0.5c-1.6,1-2.8,1.1-4-0.7c-0.6-0.9-1.3-2.1-1.7-3.1l-1.5,1l-0.1,0l-0.1-0.2l0.2-0.4
		L28,16c-0.2-0.3-0.4-1-0.5-1.4c0-0.2,0-0.3,0.2-0.6c0.2-0.3,0.5-0.7,0.6-0.8l0.1,0.1c0.2,0.4,0.6,1.3,0.9,1.9l3.1-2.1l0,0l0,0.2
		L29.5,15.6z"/>
	<path class="st8" d="M34.9,11.5l0.2,0c0.3,0.5,1.2,2.4,1.5,3.1c0.3,0.6,1.2,2.3,1.3,2.6l0.3,0.1l0.9-0.4l0.2,0.1l0,0.1
		c-0.3,0.2-1,0.5-1.7,0.9c-0.8,0.4-1.4,0.8-1.7,1l-0.1,0l0-0.2l0.8-0.6l0.1-0.3c-0.1-0.3-1.1-1.9-1.5-2.6c-0.4-0.6-1.2-2-1.4-2.3
		l-0.3-0.1l-0.9,0.5l-0.2-0.1l0-0.1L34.9,11.5z M33,9.9c0.5-0.3,1-0.2,1.1,0.1c0.2,0.3,0,0.8-0.5,1.1c-0.4,0.2-1,0.2-1.2-0.1
		C32.3,10.7,32.5,10.2,33,9.9L33,9.9z"/>
	<path class="st8" d="M48.2,12.9l0.1,0.1l0,0c-0.5,0.2-1,0.4-1.8,0.7c-0.8,0.3-1.4,0.6-1.8,0.8l0,0l0-0.2l0.8-0.5l0.2-0.3
		c-0.1-0.3-0.6-1.7-0.8-2.2c-0.7-1.6-1.6-2.8-2.5-2.4c-1.3,0.5-1.8,3.3-1.7,5c0,0.4,0.3,1.2,0.4,1.5l0.3,0.1l1.1-0.3l0.1,0.1l0,0.1
		c-0.5,0.2-1.1,0.4-1.9,0.8c-0.7,0.3-1.3,0.6-1.7,0.7l0,0l0-0.2l0.8-0.5l0.1-0.2c-0.2-0.4-0.8-2-1.1-2.7c-0.3-0.6-0.9-2.1-1.1-2.4
		l-0.3-0.2l-0.9,0.3l-0.2-0.1l0-0.1l2.5-1.4l0.2,0c0.1,0.4,0.8,2.3,1.1,3.1l0.2,0.6l0.1,0l0-0.5c0.1-1.3,0.7-4.1,2.6-4.9
		c1.4-0.6,2.5,0.8,3.1,2.4c0.3,0.8,0.8,2.4,0.9,2.8c0.1,0.2,0.1,0.2,0.3,0.2L48.2,12.9z"/>
	<path class="st8" d="M52.3,14.8c1.7-0.5,3-1.5,2.8-2.3c-0.2-0.9-1.9-0.7-4.2-0.3c-0.3,0-0.4,0.1-0.6,0.2c-0.6,0.5-1.3,1.2-1.1,1.9
		C49.4,15.1,50.7,15.2,52.3,14.8L52.3,14.8z M51.1,9.8c1.1-0.3,2-1.2,1.6-2.7c-0.3-1.1-1.2-1.8-2.5-1.4c-1.5,0.4-2,1.6-1.7,2.8
		C48.8,9.7,49.9,10.1,51.1,9.8L51.1,9.8z M46.9,9.2c-0.4-1.5,1-3.1,3.5-3.8c0.7-0.2,1.1-0.3,1.4-0.3L52.3,5l2.4-0.7l0.1,0l-0.1,0.2
		l-1.7,0.7c0.7,0.2,1.2,0.7,1.3,1.3c0.4,1.4-0.9,2.7-2.8,3.5c-0.2,0.1-0.6,0.2-0.9,0.4c-0.7,0.4-1.4,0.8-1.3,1
		c0.1,0.3,1.5,0,2.9-0.2c2.6-0.5,4.2-0.6,4.5,0.4c0.3,1.2-1.5,2.7-4.6,3.6c-2.4,0.7-4.2,0.7-4.4-0.3c-0.2-0.7,0.5-1.2,2.5-2.7
		c-0.6,0.1-1.3,0.1-1.6,0.1c-0.3,0-0.4-0.1-0.5-0.4l0.1-0.2c0.7-0.4,1.4-0.9,1.9-1.2C48.6,10.6,47.2,10.2,46.9,9.2L46.9,9.2z"/>
	<path class="st8" d="M64.1,0.9l0.2,0.1c1.1,1.2,5.5,6.3,7,8.1l0.4,0.6l0.1,0c0-0.2,0-0.5-0.1-0.7c-0.1-1.6-0.4-7-0.5-7.8
		c0-0.2-0.1-0.3-0.4-0.3l-1.2,0l-0.1-0.2l0-0.1l3.9-0.3l0.1,0l-0.1,0.2l-0.7,0.2c-0.2,0.1-0.3,0.1-0.3,0.5c0,0.6-0.1,3.3-0.1,4.5
		c0,0.8,0,4.7,0.1,5.4L72.3,11l-0.7,0.2L71.2,11c-1.6-1.6-5.6-5.8-7.4-7.9l-0.4-0.5l-0.1,0c0,0.2,0,0.4,0,0.6c0,1.6,0.1,7.1,0.1,7.7
		l0.2,0.2l1.4,0.1l0.1,0.2l0,0.1c-0.4,0-1.2,0.1-2,0.1c-0.7,0.1-1.3,0.1-1.7,0.2l-0.1,0l0.1-0.2l1.1-0.3l0.3-0.3
		c0-0.5-0.2-4-0.3-4.8c0-0.7-0.3-4.1-0.3-4.5c0-0.2-0.1-0.3-0.3-0.3l-1-0.1l-0.1-0.2l0-0.1L64.1,0.9z"/>
	<path class="st8" d="M78.3,10.9c1.9,0.1,3.1-1.6,3.3-3.9c0.2-2.1-0.7-3.6-2.4-3.6c-1.8-0.1-3.2,1.6-3.3,3.9
		C75.5,9.4,76.6,10.8,78.3,10.9L78.3,10.9z M77.7,11.2c-2.7-0.1-4.2-1.5-4-3.7C73.9,5,76.1,3,79.4,3.1c2.9,0.1,4.3,1.7,4.1,3.8
		C83.3,9.3,81.2,11.3,77.7,11.2L77.7,11.2z"/>
	<path class="st8" d="M86.9,8.3l0.3-0.5c0.8-1.4,2.5-3.7,4.7-3.4c0.3,0,0.5,0.1,0.7,0.2l0.1,0.1l-0.2,2l-0.2,0.1l0,0
		C92,6.4,91.8,6,91.6,5.6c-0.1-0.2-0.3-0.3-0.6-0.4c-1.7-0.2-3.5,2.4-4.3,4.3c-0.2,0.4-0.4,1.3-0.5,1.6l0.2,0.2l1.7,0.4l0.1,0.2
		l-0.1,0c-0.5-0.1-1.6-0.3-2.8-0.4c-1-0.1-1.8-0.2-2.1-0.2l0,0l0.1-0.2l1.1,0l0.2-0.2c0.1-0.4,0.4-2.6,0.6-3.4
		c0.1-0.8,0.4-2.6,0.4-3l-0.2-0.3l-1.1-0.2l-0.1-0.2l0.1,0l3.2,0L87.8,4c-0.1,0.4-0.6,2.8-0.9,3.7l-0.1,0.6L86.9,8.3z"/>
	<path class="st8" d="M108,16.5l0.1,0.2l-0.1,0c-0.5-0.1-1.1-0.3-2-0.6c-0.9-0.2-1.6-0.4-2-0.5l0,0l0.2-0.1l1,0.1l0.3-0.2
		c0.2-0.3,0.7-2,0.9-2.5c0.7-2.1,0.7-3.7-0.5-4c-1.6-0.4-3.9,1.9-4.8,3.5c-0.3,0.5-0.6,1.4-0.7,1.6c-0.1,0.2-0.1,0.2,0.2,0.3l1,0.5
		l0.1,0.2l-0.1,0c-0.5-0.2-1.2-0.4-2.1-0.6c-0.9-0.3-1.6-0.4-2-0.5l-0.1,0l0.2-0.1l0.9,0.1l0.4-0.2c0.2-0.3,0.7-2,0.8-2.5
		c0.7-2.1,0.8-3.7-0.5-4.1c-1.6-0.4-3.9,2-4.9,3.6c-0.2,0.4-0.6,1.3-0.7,1.6l0.2,0.3l1.1,0.5l0.1,0.2l-0.1,0
		c-0.6-0.2-1.2-0.4-2.2-0.6c-0.9-0.2-1.5-0.4-2-0.5l0,0l0.2-0.1l1,0.1l0.3-0.1c0.2-0.5,0.8-2.5,1.1-3.4c0.2-0.7,0.7-2.5,0.8-2.9
		l-0.1-0.3l-1.1-0.3l-0.1-0.2l0.1,0L96,5.1l0.1,0.2C96,5.6,95.1,8,94.7,8.8c-0.1,0.2-0.1,0.4-0.2,0.6l0.1,0L95,9
		c0.9-1.1,3.2-3.3,5.6-2.7c1.6,0.4,1.5,2.3,1,4.1c0,0.1-0.1,0.3-0.2,0.6l0.1,0l0.4-0.5c0.8-1,3-3,5.4-2.4c1.3,0.4,1.7,1.7,0.9,4.3
		c-0.3,1.1-1.1,3-1.2,3.3c-0.1,0.2,0,0.3,0.2,0.4L108,16.5z"/>
	<path class="st8" d="M114.8,11.3c-1.2-0.5-2.7,0.3-3.7,2.2c1.1,0.5,3.2,1.3,3.9,1.4c0.2,0,0.4,0,0.6-0.3
		C116,13.8,116.2,11.9,114.8,11.3L114.8,11.3z M117.2,15.7c-0.1,0.2-0.4,0.3-0.7,0.3c-0.9-0.2-4.7-1.7-5.6-2.1
		c-0.2,0.3-0.3,0.7-0.4,0.9c-0.5,1.5,0.3,2.9,1.7,3.5c0.6,0.2,1.1,0.4,1.4,0.4c0.5,0.1,1.4,0.1,1.9,0.1l0,0.2l-0.1,0.1
		c-0.5,0-1.7,0.1-2.6-0.1c-0.4,0-0.9-0.2-1.6-0.4c-2.3-0.9-3.5-2.6-2.5-4.8c0.9-2.1,3.8-3.6,6.3-2.6
		C117.6,12.1,117.8,14.3,117.2,15.7L117.2,15.7z"/>
	<path class="st8" d="M120,18.3l0.4-0.4c1.2-1.1,3.5-2.7,5.5-1.8c0.3,0.1,0.5,0.3,0.5,0.4l0,0.1l-0.9,1.8l-0.3,0l0,0
		c0-0.4,0-0.9,0-1.3c0-0.2-0.2-0.4-0.5-0.6c-1.5-0.8-4,1.2-5.4,2.8c-0.3,0.3-0.9,1.1-1,1.4l0.1,0.3l1.5,0.9l0,0.2l-0.1,0
		c-0.4-0.2-1.4-0.7-2.5-1.3c-0.9-0.4-1.6-0.8-1.9-0.9l0,0l0.2-0.1l1,0.3l0.3-0.1c0.2-0.4,1.3-2.3,1.7-3.1c0.4-0.8,1.2-2.4,1.4-2.7
		l-0.1-0.4l-1-0.5l0-0.2l0.1,0l3,1l0.1,0.2c-0.2,0.4-1.5,2.4-2,3.3L120,18.3L120,18.3z"/>
	<path class="st8" d="M130.4,15.6c0.5,0.3,0.7,0.8,0.5,1.2c-0.2,0.4-0.8,0.5-1.3,0.2c-0.4-0.3-0.8-0.8-0.5-1.2
		C129.2,15.4,129.8,15.2,130.4,15.6L130.4,15.6z M129.8,18.4l0.1,0.2c-0.4,0.6-1.8,2.6-2.3,3.3c-0.5,0.7-1.7,2.5-1.9,2.9l0.1,0.3
		l0.9,0.7l0,0.2l-0.1,0c-0.4-0.2-1.1-0.7-1.9-1.1c-0.8-0.5-1.6-0.9-1.9-1.1l0-0.1l0.2-0.1l1,0.4l0.4,0c0.2-0.3,1.3-2.2,1.8-3
		c0.4-0.7,1.4-2.4,1.6-2.7l0-0.3l-1-0.6l0-0.2l0.1,0L129.8,18.4z"/>
	<path class="st8" d="M136,32.1l0,0.2h-0.1c-0.5-0.3-1-0.7-1.7-1.2c-0.8-0.5-1.4-1-1.8-1.2l0-0.1l0.2-0.1l0.9,0.4l0.4,0
		c0.3-0.3,1.3-1.7,1.7-2.2c1.2-1.7,1.9-3.3,0.9-3.9c-1.3-0.9-4.3,0.4-5.9,1.6c-0.4,0.3-1,1-1.3,1.4l0.1,0.3l0.9,0.8l0,0.2l-0.1,0
		c-0.5-0.4-1.1-0.8-1.8-1.3c-0.7-0.5-1.3-0.9-1.7-1.1l0-0.1l0.2-0.1l1,0.5l0.3-0.1c0.3-0.4,1.5-2.1,2.1-2.8c0.4-0.6,1.6-2.2,1.8-2.6
		l0-0.4l-0.8-0.6l0-0.2l0.1,0L134,21l0.1,0.2c-0.3,0.3-1.9,2.3-2.5,3l-0.5,0.6l0.1,0l0.5-0.3c1.3-0.8,4.5-2,6.4-0.7
		c1.4,1,0.6,2.8-0.6,4.5c-0.6,0.9-1.9,2.3-2.2,2.7l0,0.4L136,32.1z"/>
	<path class="st8" d="M141.1,32.9c1,0.9,2.4,1,3.6-0.3c0.9-1,1-2.3-0.1-3.2c-1.3-1.1-2.8-0.8-3.7,0.3
		C139.9,30.7,140.1,32.1,141.1,32.9L141.1,32.9z M137,37.4c1.4,1.2,3.2,1.8,3.9,1c0.8-0.9-0.5-2.2-2.2-4.2c-0.2-0.2-0.3-0.3-0.6-0.4
		c-0.8-0.2-1.9-0.4-2.5,0.2C134.9,34.8,135.5,36.1,137,37.4L137,37.4z M139.2,28.6c1.2-1.3,3.7-1.1,5.8,0.7c0.6,0.5,0.9,0.9,1.2,1.1
		l0.4,0.4l2.1,1.8l0,0.1l-0.3,0.1l-1.7-1.2c0.2,0.8,0,1.6-0.5,2.1c-1.2,1.3-3.2,1-5.1-0.3c-0.2-0.2-0.6-0.4-1-0.5
		c-0.8-0.4-1.6-0.8-1.8-0.6c-0.2,0.2,0.9,1.4,1.9,2.5c2,2.1,3.1,3.5,2.2,4.4c-1,1.1-3.6,0.4-6.2-1.9c-2-1.8-3.1-3.5-2.4-4.3
		c0.6-0.6,1.5-0.3,4.1,0.5c-0.4-0.5-0.8-1.1-1-1.5c-0.1-0.3-0.1-0.5,0.1-0.8l0.3-0.1c0.8,0.3,1.7,0.7,2.3,1
		C138.8,31.1,138.4,29.6,139.2,28.6L139.2,28.6z"/>
	<path class="st8" d="M155.7,37.3c-0.2,0.1-0.6,0.2-0.7,0.2c-1.6,0.5-4,1.2-5.1,1.7l-0.1,0.2c0.7,0.9,2.4,3,3.1,3.7
		c0.5-0.9,1.8-3.6,2.5-5.1C155.5,37.9,155.6,37.6,155.7,37.3L155.7,37.3z M156.8,37.2c0.3,0.3,0.5,0.6,0.7,0.9l0,0.1
		c-1.2,2.1-4,7.4-5.2,9.6v0.6l0.4,0.7l-0.1,0.2l-0.1,0c-0.2-0.3-0.7-0.9-1.3-1.5c-0.7-0.8-1.3-1.5-1.6-1.8l0-0.1l0.2,0l0.9,0.8
		l0.3,0c0.4-0.8,1.1-2.4,1.5-3.2c-0.6-0.7-2.5-2.8-3.5-3.8l-0.3-0.1c-0.6,0.2-2.1,0.8-2.9,1.1L146,41l0.7,1.1l-0.1,0.2l-0.1,0
		c-0.3-0.3-0.9-1.1-1.5-1.7c-0.4-0.5-0.9-1-1.1-1.2l0-0.1l0.2,0l0.5,0.4c0.1,0.1,0.3,0.1,0.5,0.1c2.5-0.6,8.2-2.3,10.6-2.9
		C156.2,36.7,156.4,36.7,156.8,37.2L156.8,37.2z"/>
	<path class="st8" d="M156.5,48.8l0.6-0.2c1.5-0.4,4.4-0.8,5.6,0.9c0.2,0.3,0.3,0.5,0.3,0.6l0,0.1l-1.6,1.3l-0.2-0.1l0,0
		c0.2-0.4,0.4-0.8,0.6-1.2c0.1-0.2,0.1-0.4-0.1-0.7c-0.9-1.4-4-0.8-6.1,0c-0.4,0.2-1.3,0.6-1.5,0.8l-0.1,0.3l0.8,1.5l-0.1,0.2
		l-0.1,0c-0.3-0.4-0.9-1.3-1.5-2.3c-0.5-0.8-1-1.4-1.2-1.7l0-0.1l0.2,0l0.7,0.7l0.3,0.1c0.3-0.2,2.2-1.5,2.9-2
		c0.7-0.5,2.2-1.6,2.5-1.8l0.1-0.4l-0.6-0.9l0.1-0.2l0.1,0l2.1,2.3l0,0.2c-0.4,0.3-2.5,1.5-3.4,2L156.5,48.8L156.5,48.8z"/>
	<path class="st8" d="M158.6,59c0.9,1.6,3,1.7,5.3,0.5c1.3-0.7,2.1-1.8,1.6-2.8c-0.8-1.5-3.8-1.8-5.7-1.4l-0.3,0.1l-0.3,0.2
		C158.3,56.3,158,57.8,158.6,59L158.6,59z M160.8,54.7c0.2,0,0.5-0.1,0.7-0.1c1.5,0,4.2,0.4,5.3,2.5c0.8,1.5-0.1,3-1.5,3.7
		c-2.5,1.3-5.5,1-6.9-1.6c-0.7-1.2-0.6-2.3-0.4-3.4l-0.1-0.2l-1.3-0.1l-0.1,0l-0.1-0.4c1.4-0.8,4-2.1,5.6-3c1.1-0.6,4-2.1,4.3-2.3
		l0.1-0.3l-0.5-1.1l0.1-0.2l0.1,0l1.8,2.8l0,0.2c-0.2,0.1-4.8,2.3-6.2,3c-0.3,0.1-0.7,0.3-0.9,0.4L160.8,54.7z"/>
	<path class="st8" d="M169.5,64.3c-0.4-1.2-2.1-1.7-4.1-1c0.4,1.2,1.2,3.2,1.5,3.8c0.1,0.2,0.3,0.3,0.6,0.2
		C168.4,66.9,170,65.7,169.5,64.3L169.5,64.3z M167.9,69.2c-0.3,0.1-0.5,0-0.6-0.3c-0.5-0.8-1.9-4.6-2.2-5.5
		c-0.3,0.1-0.7,0.3-0.9,0.4c-1.5,0.7-2,2.3-1.4,3.7c0.2,0.6,0.5,1.1,0.6,1.3c0.3,0.5,0.8,1.1,1.2,1.5l-0.1,0.2l-0.1,0
		c-0.4-0.3-1.2-1.2-1.7-1.9c-0.2-0.3-0.5-0.7-0.7-1.4c-0.8-2.2-0.4-4.3,1.9-5.2c2.2-0.8,5.2,0.1,6.1,2.6
		C170.8,66.9,169.3,68.6,167.9,69.2L167.9,69.2z"/>
	<path class="st8" d="M174.4,69.9c0.1,0.6-0.1,1.1-0.5,1.2c-0.4,0.1-0.9-0.2-1-0.8c-0.1-0.5,0-1.1,0.5-1.3
		C173.7,68.9,174.3,69.2,174.4,69.9L174.4,69.9z M172,71.6l-0.1,0.2c-0.7,0.1-3.2,0.7-4,0.9c-0.8,0.2-3,0.7-3.3,0.8l-0.2,0.3
		l0.1,1.1l-0.1,0.2l-0.1,0c-0.1-0.4-0.3-1.2-0.5-2.1c-0.2-0.9-0.5-1.7-0.6-2.1l0-0.1l0.2,0.1l0.4,1l0.3,0.2c0.3-0.1,2.5-0.7,3.4-1
		c0.8-0.2,2.7-0.8,3-1l0.2-0.3l-0.3-1.1l0.1-0.2l0.1,0L172,71.6z"/>
	<path class="st8" d="M165.6,78.2c0.2,1.4,2.2,2.7,4.8,3.1l0.4,0l0.5-0.2c0.8-0.5,1.7-1.6,1.5-2.9c-0.2-1.9-2.3-2.6-4.8-2.3
		C166.6,76.2,165.5,77.1,165.6,78.2L165.6,78.2z M177.5,82l-0.1,0.2c-0.1,0-5.6,0.7-6.5,0.8c-0.6,0.1-4.6,0.6-4.7,0.7l-0.2,0.3
		l0,1.2l-0.1,0.2l0-0.1c0-0.4-0.1-1-0.2-1.5c-0.1-0.6-0.1-1.1-0.2-1.3l0.1-0.2c0.3-0.1,2.4-0.4,2.9-0.5c0.2,0,0.7-0.1,0.9-0.1l0-0.1
		c-0.2,0-0.4-0.1-0.6-0.1c-2.1-0.7-3.9-1.9-4.2-3.9c-0.2-1.7,0.9-3,2.7-3.2c2.8-0.4,5.5,0.9,5.8,3.9c0.1,1.1-0.1,1.9-0.5,2.5
		l-0.3,0.4l0,0.1c0.2-0.1,0.6-0.2,0.9-0.2c0.5-0.1,2.7-0.5,3.2-0.6l0.2-0.3l-0.1-1.5l0.2-0.2l0,0L177.5,82z"/>
</g>
</svg>
